<svg id="Слой_1" data-name="Слой 1" xmlns="http://www.w3.org/2000/svg" xmlns:xlink="http://www.w3.org/1999/xlink" viewBox="0 0 575.89 575.89"><defs><style>.cls-1{fill:url(#Безымянный_градиент_14);}.cls-2{fill:url(#Безымянный_градиент_14-2);}.cls-3{fill:url(#Безымянный_градиент_14-3);}.cls-4{fill:url(#Безымянный_градиент_14-4);}.cls-5{fill:url(#Безымянный_градиент_14-5);}.cls-6{fill:url(#Безымянный_градиент_14-6);}.cls-7{fill:url(#Безымянный_градиент_14-7);}.cls-8{fill:url(#Безымянный_градиент_14-8);}.cls-9{fill:url(#Безымянный_градиент_14-9);}.cls-10{fill:url(#Безымянный_градиент_14-10);}.cls-11{fill:url(#Безымянный_градиент_14-11);}.cls-12{fill:url(#Безымянный_градиент_14-12);}.cls-13{fill:url(#Безымянный_градиент_14-13);}.cls-14{fill:url(#Безымянный_градиент_14-14);}.cls-15{fill:url(#Безымянный_градиент_14-15);}.cls-16{fill:url(#Безымянный_градиент_14-16);}.cls-17{fill:url(#Безымянный_градиент_14-17);}.cls-18{fill:url(#Безымянный_градиент_14-18);}.cls-19{fill:url(#Безымянный_градиент_14-19);}.cls-20{fill:url(#Безымянный_градиент_14-20);}.cls-21{fill:url(#Безымянный_градиент_14-21);}.cls-22{fill:url(#Безымянный_градиент_14-22);}.cls-23{fill:url(#Безымянный_градиент_14-23);}.cls-24{fill:url(#Безымянный_градиент_14-24);}.cls-25{fill:url(#Безымянный_градиент_14-25);}.cls-26{fill:url(#Безымянный_градиент_14-26);}.cls-27{fill:url(#Безымянный_градиент_14-27);}.cls-28{fill:url(#Безымянный_градиент_14-28);}.cls-29{fill:url(#Безымянный_градиент_14-29);}.cls-30{fill:url(#Безымянный_градиент_14-30);}.cls-31{fill:url(#Безымянный_градиент_14-31);}.cls-32{fill:url(#Безымянный_градиент_14-32);}.cls-33{fill:url(#Безымянный_градиент_14-33);}.cls-34{fill:url(#Безымянный_градиент_14-34);}.cls-35{fill:url(#Безымянный_градиент_14-35);}.cls-36{fill:url(#Безымянный_градиент_14-36);}.cls-37{fill:url(#Безымянный_градиент_14-37);}.cls-38{fill:url(#Безымянный_градиент_14-38);}.cls-39{fill:url(#Безымянный_градиент_14-39);}.cls-40{fill:url(#Безымянный_градиент_14-40);}.cls-41{fill:url(#Безымянный_градиент_14-41);}.cls-42{fill:url(#Безымянный_градиент_14-42);}.cls-43{fill:url(#Безымянный_градиент_14-43);}.cls-44{fill:url(#Безымянный_градиент_14-44);}.cls-45{fill:url(#Безымянный_градиент_14-45);}.cls-46{fill:url(#Безымянный_градиент_14-46);}.cls-47{fill:url(#Безымянный_градиент_14-47);}.cls-48{fill:url(#Безымянный_градиент_14-48);}.cls-49{fill:url(#Безымянный_градиент_14-49);}.cls-50{fill:url(#Безымянный_градиент_14-50);}.cls-51{fill:url(#Безымянный_градиент_14-51);}.cls-52{fill:url(#Безымянный_градиент_14-52);}.cls-53{fill:url(#Безымянный_градиент_14-53);}.cls-54{fill:url(#Безымянный_градиент_14-54);}.cls-55{fill:url(#Безымянный_градиент_14-55);}.cls-56{fill:url(#Безымянный_градиент_14-56);}.cls-57{fill:url(#Безымянный_градиент_14-57);}.cls-58{fill:url(#Безымянный_градиент_14-58);}.cls-59{fill:url(#Безымянный_градиент_14-59);}.cls-60{fill:url(#Безымянный_градиент_14-60);}.cls-61{fill:url(#Безымянный_градиент_14-61);}.cls-62{fill:url(#Безымянный_градиент_14-62);}.cls-63{fill:url(#Безымянный_градиент_14-63);}.cls-64{fill:url(#Безымянный_градиент_14-64);}.cls-65{fill:url(#Безымянный_градиент_14-65);}.cls-66{fill:url(#Безымянный_градиент_14-66);}.cls-67{fill:url(#Безымянный_градиент_14-67);}.cls-68{fill:url(#Безымянный_градиент_14-68);}.cls-69{fill:url(#Безымянный_градиент_14-69);}.cls-70{fill:url(#Безымянный_градиент_14-70);}.cls-71{fill:url(#Безымянный_градиент_14-71);}.cls-72{fill:url(#Безымянный_градиент_14-72);}.cls-73{fill:url(#Безымянный_градиент_14-73);}.cls-74{fill:url(#Безымянный_градиент_14-74);}.cls-75{fill:url(#Безымянный_градиент_14-75);}.cls-76{fill:url(#Безымянный_градиент_14-76);}.cls-77{fill:url(#Безымянный_градиент_14-77);}.cls-78{fill:url(#Безымянный_градиент_14-78);}.cls-79{fill:url(#Безымянный_градиент_14-79);}.cls-80{fill:url(#Безымянный_градиент_14-80);}.cls-81{fill:url(#Безымянный_градиент_14-81);}.cls-82{fill:url(#Безымянный_градиент_14-82);}.cls-83{fill:url(#Безымянный_градиент_14-83);}.cls-84{fill:url(#Безымянный_градиент_14-84);}.cls-85{fill:url(#Безымянный_градиент_14-85);}.cls-86{fill:url(#Безымянный_градиент_14-86);}.cls-87{fill:url(#Безымянный_градиент_14-87);}.cls-88{fill:url(#Безымянный_градиент_14-88);}.cls-89{fill:url(#Безымянный_градиент_14-89);}.cls-90{fill:url(#Безымянный_градиент_14-90);}.cls-91{fill:url(#Безымянный_градиент_14-91);}.cls-92{fill:url(#Безымянный_градиент_14-92);}.cls-93{fill:url(#Безымянный_градиент_14-93);}.cls-94{fill:url(#Безымянный_градиент_14-94);}.cls-95{fill:url(#Безымянный_градиент_14-95);}.cls-96{fill:url(#Безымянный_градиент_14-96);}.cls-97{fill:url(#Безымянный_градиент_14-97);}.cls-98{fill:url(#Безымянный_градиент_14-98);}.cls-99{fill:url(#Безымянный_градиент_14-99);}.cls-100{fill:url(#Безымянный_градиент_14-100);}.cls-101{fill:url(#Безымянный_градиент_14-101);}.cls-102{fill:url(#Безымянный_градиент_14-102);}.cls-103{fill:url(#Безымянный_градиент_14-103);}.cls-104{fill:url(#Безымянный_градиент_14-104);}.cls-105{fill:url(#Безымянный_градиент_14-105);}.cls-106{fill:url(#Безымянный_градиент_14-106);}.cls-107{fill:url(#Безымянный_градиент_14-107);}.cls-108{fill:url(#Безымянный_градиент_14-108);}.cls-109{fill:url(#Безымянный_градиент_14-109);}.cls-110{fill:url(#Безымянный_градиент_14-110);}.cls-111{fill:url(#Безымянный_градиент_14-111);}.cls-112{fill:url(#Безымянный_градиент_14-112);}.cls-113{fill:url(#Безымянный_градиент_14-113);}.cls-114{fill:url(#Безымянный_градиент_14-114);}.cls-115{fill:url(#Безымянный_градиент_14-115);}.cls-116{fill:url(#Безымянный_градиент_14-116);}.cls-117{fill:url(#Безымянный_градиент_14-117);}.cls-118{fill:url(#Безымянный_градиент_14-118);}.cls-119{fill:url(#Безымянный_градиент_14-119);}.cls-120{fill:url(#Безымянный_градиент_14-120);}.cls-121{fill:url(#Безымянный_градиент_14-121);}.cls-122{fill:url(#Безымянный_градиент_14-122);}.cls-123{fill:url(#Безымянный_градиент_14-123);}.cls-124{fill:url(#Безымянный_градиент_14-124);}.cls-125{fill:url(#Безымянный_градиент_14-125);}.cls-126{fill:url(#Безымянный_градиент_14-126);}.cls-127{fill:url(#Безымянный_градиент_14-127);}.cls-128{fill:url(#Безымянный_градиент_14-128);}.cls-129{fill:url(#Безымянный_градиент_14-129);}.cls-130{fill:url(#Безымянный_градиент_14-130);}.cls-131{fill:url(#Безымянный_градиент_14-131);}.cls-132{fill:url(#Безымянный_градиент_14-132);}.cls-133{fill:url(#Безымянный_градиент_14-133);}.cls-134{fill:url(#Безымянный_градиент_14-134);}.cls-135{fill:url(#Безымянный_градиент_14-135);}.cls-136{fill:url(#Безымянный_градиент_14-136);}.cls-137{fill:url(#Безымянный_градиент_14-137);}</style><linearGradient id="Безымянный_градиент_14" x1="-510.05" y1="576.32" x2="-30" y2="180.28" gradientUnits="userSpaceOnUse"><stop offset="0" stop-color="#cf9a50"/><stop offset="0.24" stop-color="#cb964d"/><stop offset="0.49" stop-color="#be8b44"/><stop offset="0.74" stop-color="#aa7735"/><stop offset="0.99" stop-color="#8d5d21"/><stop offset="1" stop-color="#8c5c20"/></linearGradient><linearGradient id="Безымянный_градиент_14-2" x1="-518.43" y1="566.16" x2="-38.38" y2="170.12" xlink:href="#Безымянный_градиент_14"/><linearGradient id="Безымянный_градиент_14-3" x1="-518.17" y1="566.48" x2="-38.12" y2="170.44" xlink:href="#Безымянный_градиент_14"/><linearGradient id="Безымянный_градиент_14-4" x1="-509.03" y1="577.56" x2="-28.98" y2="181.52" xlink:href="#Безымянный_градиент_14"/><linearGradient id="Безымянный_градиент_14-5" x1="-519.31" y1="565.09" x2="-39.27" y2="169.05" xlink:href="#Безымянный_градиент_14"/><linearGradient id="Безымянный_градиент_14-6" x1="-519.06" y1="565.4" x2="-39.01" y2="169.36" xlink:href="#Безымянный_градиент_14"/><linearGradient id="Безымянный_градиент_14-7" x1="-518.91" y1="565.58" x2="-38.86" y2="169.54" xlink:href="#Безымянный_градиент_14"/><linearGradient id="Безымянный_градиент_14-8" x1="-518.65" y1="565.89" x2="-38.61" y2="169.85" xlink:href="#Безымянный_градиент_14"/><linearGradient id="Безымянный_градиент_14-9" x1="-515.1" y1="570.19" x2="-35.06" y2="174.15" xlink:href="#Безымянный_градиент_14"/><linearGradient id="Безымянный_градиент_14-10" x1="-628.19" y1="433.11" x2="-148.14" y2="37.08" xlink:href="#Безымянный_градиент_14"/><linearGradient id="Безымянный_градиент_14-11" x1="-635.51" y1="424.24" x2="-155.47" y2="28.2" xlink:href="#Безымянный_градиент_14"/><linearGradient id="Безымянный_градиент_14-12" x1="-643.03" y1="415.13" x2="-162.98" y2="19.09" xlink:href="#Безымянный_градиент_14"/><linearGradient id="Безымянный_градиент_14-13" x1="-616.13" y1="447.73" x2="-136.08" y2="51.69" xlink:href="#Безымянный_градиент_14"/><linearGradient id="Безымянный_градиент_14-14" x1="-652.83" y1="403.25" x2="-172.78" y2="7.21" xlink:href="#Безымянный_градиент_14"/><linearGradient id="Безымянный_градиент_14-15" x1="-597.7" y1="470.08" x2="-117.65" y2="74.04" xlink:href="#Безымянный_градиент_14"/><linearGradient id="Безымянный_градиент_14-16" x1="-626.22" y1="435.51" x2="-146.17" y2="39.47" xlink:href="#Безымянный_градиент_14"/><linearGradient id="Безымянный_градиент_14-17" x1="-446.15" y1="653.78" x2="33.9" y2="257.74" xlink:href="#Безымянный_градиент_14"/><linearGradient id="Безымянный_градиент_14-18" x1="-580.33" y1="491.12" x2="-100.29" y2="95.08" xlink:href="#Безымянный_градиент_14"/><linearGradient id="Безымянный_градиент_14-19" x1="-581.96" y1="489.16" x2="-101.91" y2="93.12" xlink:href="#Безымянный_градиент_14"/><linearGradient id="Безымянный_градиент_14-20" x1="-449.76" y1="649.4" x2="30.29" y2="253.36" xlink:href="#Безымянный_градиент_14"/><linearGradient id="Безымянный_градиент_14-21" x1="-463.27" y1="633.02" x2="16.78" y2="236.98" xlink:href="#Безымянный_градиент_14"/><linearGradient id="Безымянный_градиент_14-22" x1="-582.74" y1="488.21" x2="-102.69" y2="92.17" xlink:href="#Безымянный_градиент_14"/><linearGradient id="Безымянный_градиент_14-23" x1="-446.93" y1="652.83" x2="33.12" y2="256.79" xlink:href="#Безымянный_градиент_14"/><linearGradient id="Безымянный_градиент_14-24" x1="-581.58" y1="489.61" x2="-101.54" y2="93.57" xlink:href="#Безымянный_градиент_14"/><linearGradient id="Безымянный_градиент_14-25" x1="-458.51" y1="638.8" x2="21.54" y2="242.76" xlink:href="#Безымянный_градиент_14"/><linearGradient id="Безымянный_градиент_14-26" x1="-450.24" y1="648.81" x2="29.81" y2="252.77" xlink:href="#Безымянный_градиент_14"/><linearGradient id="Безымянный_градиент_14-27" x1="-582.48" y1="488.53" x2="-102.43" y2="92.49" xlink:href="#Безымянный_градиент_14"/><linearGradient id="Безымянный_градиент_14-28" x1="-453.55" y1="644.81" x2="26.5" y2="248.77" xlink:href="#Безымянный_градиент_14"/><linearGradient id="Безымянный_градиент_14-29" x1="-580.9" y1="490.44" x2="-100.85" y2="94.4" xlink:href="#Безымянный_градиент_14"/><linearGradient id="Безымянный_градиент_14-30" x1="-584.88" y1="485.62" x2="-104.83" y2="89.58" xlink:href="#Безымянный_градиент_14"/><linearGradient id="Безымянный_градиент_14-31" x1="-463.8" y1="632.38" x2="16.25" y2="236.34" xlink:href="#Безымянный_градиент_14"/><linearGradient id="Безымянный_градиент_14-32" x1="-458.91" y1="638.31" x2="21.14" y2="242.27" xlink:href="#Безымянный_градиент_14"/><linearGradient id="Безымянный_градиент_14-33" x1="-453.92" y1="644.35" x2="26.13" y2="248.31" xlink:href="#Безымянный_градиент_14"/><linearGradient id="Безымянный_градиент_14-34" x1="-583.25" y1="487.59" x2="-103.2" y2="91.55" xlink:href="#Безымянный_градиент_14"/><linearGradient id="Безымянный_градиент_14-35" x1="-582.82" y1="488.11" x2="-102.77" y2="92.07" xlink:href="#Безымянный_градиент_14"/><linearGradient id="Безымянный_градиент_14-36" x1="-502.15" y1="585.89" x2="-22.1" y2="189.85" xlink:href="#Безымянный_градиент_14"/><linearGradient id="Безымянный_градиент_14-37" x1="-461.82" y1="634.77" x2="18.22" y2="238.73" xlink:href="#Безымянный_градиент_14"/><linearGradient id="Безымянный_градиент_14-38" x1="-583.82" y1="486.9" x2="-103.77" y2="90.86" xlink:href="#Безымянный_градиент_14"/><linearGradient id="Безымянный_градиент_14-39" x1="-459.1" y1="638.07" x2="20.95" y2="242.03" xlink:href="#Безымянный_градиент_14"/><linearGradient id="Безымянный_градиент_14-40" x1="-446.73" y1="653.07" x2="33.32" y2="257.03" xlink:href="#Безымянный_градиент_14"/><linearGradient id="Безымянный_градиент_14-41" x1="-586.06" y1="484.18" x2="-106.01" y2="88.14" xlink:href="#Безымянный_градиент_14"/><linearGradient id="Безымянный_градиент_14-42" x1="-517.05" y1="567.84" x2="-37" y2="171.8" xlink:href="#Безымянный_градиент_14"/><linearGradient id="Безымянный_градиент_14-43" x1="-512.14" y1="573.79" x2="-32.09" y2="177.75" xlink:href="#Безымянный_градиент_14"/><linearGradient id="Безымянный_градиент_14-44" x1="-512.5" y1="573.34" x2="-32.46" y2="177.3" xlink:href="#Безымянный_градиент_14"/><linearGradient id="Безымянный_градиент_14-45" x1="-510.76" y1="575.45" x2="-30.72" y2="179.41" xlink:href="#Безымянный_градиент_14"/><linearGradient id="Безымянный_градиент_14-46" x1="-512.32" y1="573.56" x2="-32.27" y2="177.52" xlink:href="#Безымянный_градиент_14"/><linearGradient id="Безымянный_градиент_14-47" x1="-518.46" y1="566.12" x2="-38.42" y2="170.08" xlink:href="#Безымянный_градиент_14"/><linearGradient id="Безымянный_градиент_14-48" x1="-518.73" y1="565.8" x2="-38.68" y2="169.76" xlink:href="#Безымянный_градиент_14"/><linearGradient id="Безымянный_градиент_14-49" x1="-509.75" y1="576.68" x2="-29.71" y2="180.64" xlink:href="#Безымянный_градиент_14"/><linearGradient id="Безымянный_градиент_14-50" x1="-519.09" y1="565.36" x2="-39.04" y2="169.32" xlink:href="#Безымянный_градиент_14"/><linearGradient id="Безымянный_градиент_14-51" x1="-491.8" y1="598.44" x2="-11.75" y2="202.4" xlink:href="#Безымянный_градиент_14"/><linearGradient id="Безымянный_градиент_14-52" x1="-489.68" y1="601.01" x2="-9.63" y2="204.97" xlink:href="#Безымянный_градиент_14"/><linearGradient id="Безымянный_градиент_14-53" x1="-493.06" y1="596.91" x2="-13.01" y2="200.87" xlink:href="#Безымянный_градиент_14"/><linearGradient id="Безымянный_градиент_14-54" x1="-497.11" y1="592.01" x2="-17.06" y2="195.97" xlink:href="#Безымянный_градиент_14"/><linearGradient id="Безымянный_градиент_14-55" x1="-494.36" y1="595.33" x2="-14.31" y2="199.29" xlink:href="#Безымянный_градиент_14"/><linearGradient id="Безымянный_градиент_14-56" x1="-498.3" y1="590.56" x2="-18.25" y2="194.52" xlink:href="#Безымянный_градиент_14"/><linearGradient id="Безымянный_градиент_14-57" x1="-491.23" y1="599.13" x2="-11.18" y2="203.09" xlink:href="#Безымянный_градиент_14"/><linearGradient id="Безымянный_градиент_14-58" x1="-499.29" y1="589.36" x2="-19.24" y2="193.32" xlink:href="#Безымянный_градиент_14"/><linearGradient id="Безымянный_градиент_14-59" x1="-496" y1="593.34" x2="-15.96" y2="197.3" xlink:href="#Безымянный_градиент_14"/><linearGradient id="Безымянный_градиент_14-60" x1="-495.35" y1="594.14" x2="-15.3" y2="198.1" xlink:href="#Безымянный_градиент_14"/><linearGradient id="Безымянный_градиент_14-61" x1="-679.6" y1="370.8" x2="-199.55" y2="-25.24" xlink:href="#Безымянный_градиент_14"/><linearGradient id="Безымянный_градиент_14-62" x1="-561.63" y1="513.8" x2="-81.58" y2="117.76" xlink:href="#Безымянный_градиент_14"/><linearGradient id="Безымянный_градиент_14-63" x1="-696.4" y1="350.44" x2="-216.35" y2="-45.6" xlink:href="#Безымянный_градиент_14"/><linearGradient id="Безымянный_градиент_14-64" x1="-558.84" y1="517.18" x2="-78.79" y2="121.14" xlink:href="#Безымянный_градиент_14"/><linearGradient id="Безымянный_градиент_14-65" x1="-693.59" y1="353.84" x2="-213.55" y2="-42.2" xlink:href="#Безымянный_градиент_14"/><linearGradient id="Безымянный_градиент_14-66" x1="-560.94" y1="514.63" x2="-80.89" y2="118.59" xlink:href="#Безымянный_градиент_14"/><linearGradient id="Безымянный_градиент_14-67" x1="-696.94" y1="349.78" x2="-216.89" y2="-46.26" xlink:href="#Безымянный_градиент_14"/><linearGradient id="Безымянный_градиент_14-68" x1="-561.89" y1="513.48" x2="-81.85" y2="117.44" xlink:href="#Безымянный_градиент_14"/><linearGradient id="Безымянный_градиент_14-69" x1="-562.58" y1="512.65" x2="-82.53" y2="116.61" xlink:href="#Безымянный_градиент_14"/><linearGradient id="Безымянный_градиент_14-70" x1="-689.69" y1="358.57" x2="-209.64" y2="-37.47" xlink:href="#Безымянный_градиент_14"/><linearGradient id="Безымянный_градиент_14-71" x1="-561.46" y1="514" x2="-81.41" y2="117.96" xlink:href="#Безымянный_градиент_14"/><linearGradient id="Безымянный_градиент_14-72" x1="-684.47" y1="364.9" x2="-204.42" y2="-31.14" xlink:href="#Безымянный_градиент_14"/><linearGradient id="Безымянный_градиент_14-73" x1="-560.18" y1="515.55" x2="-80.13" y2="119.51" xlink:href="#Безымянный_градиент_14"/><linearGradient id="Безымянный_градиент_14-74" x1="-560.95" y1="514.62" x2="-80.9" y2="118.58" xlink:href="#Безымянный_градиент_14"/><linearGradient id="Безымянный_градиент_14-75" x1="-689.26" y1="359.09" x2="-209.21" y2="-36.95" xlink:href="#Безымянный_градиент_14"/><linearGradient id="Безымянный_градиент_14-76" x1="-559.36" y1="516.55" x2="-79.31" y2="120.51" xlink:href="#Безымянный_градиент_14"/><linearGradient id="Безымянный_градиент_14-77" x1="-693.1" y1="354.43" x2="-213.06" y2="-41.6" xlink:href="#Безымянный_градиент_14"/><linearGradient id="Безымянный_градиент_14-78" x1="-559.69" y1="516.14" x2="-79.65" y2="120.1" xlink:href="#Безымянный_градиент_14"/><linearGradient id="Безымянный_градиент_14-79" x1="-694.16" y1="353.15" x2="-214.12" y2="-42.89" xlink:href="#Безымянный_градиент_14"/><linearGradient id="Безымянный_градиент_14-80" x1="-679.02" y1="371.5" x2="-198.98" y2="-24.54" xlink:href="#Безымянный_градиент_14"/><linearGradient id="Безымянный_градиент_14-81" x1="-692.91" y1="354.67" x2="-212.86" y2="-41.37" xlink:href="#Безымянный_градиент_14"/><linearGradient id="Безымянный_градиент_14-82" x1="-559.2" y1="516.74" x2="-79.16" y2="120.7" xlink:href="#Безымянный_градиент_14"/><linearGradient id="Безымянный_градиент_14-83" x1="-560.16" y1="515.58" x2="-80.11" y2="119.54" xlink:href="#Безымянный_градиент_14"/><linearGradient id="Безымянный_градиент_14-84" x1="-696.17" y1="350.72" x2="-216.12" y2="-45.32" xlink:href="#Безымянный_градиент_14"/><linearGradient id="Безымянный_градиент_14-85" x1="-557.42" y1="518.9" x2="-77.37" y2="122.86" xlink:href="#Безымянный_градиент_14"/><linearGradient id="Безымянный_градиент_14-86" x1="-693.24" y1="354.27" x2="-213.19" y2="-41.77" xlink:href="#Безымянный_градиент_14"/><linearGradient id="Безымянный_градиент_14-87" x1="-696.56" y1="350.24" x2="-216.51" y2="-45.8" xlink:href="#Безымянный_градиент_14"/><linearGradient id="Безымянный_градиент_14-88" x1="-558.92" y1="517.08" x2="-78.87" y2="121.04" xlink:href="#Безымянный_градиент_14"/><linearGradient id="Безымянный_градиент_14-89" x1="-573.63" y1="499.26" x2="-93.58" y2="103.22" xlink:href="#Безымянный_градиент_14"/><linearGradient id="Безымянный_градиент_14-90" x1="-541.79" y1="537.84" x2="-61.74" y2="141.8" xlink:href="#Безымянный_градиент_14"/><linearGradient id="Безымянный_градиент_14-91" x1="-605.24" y1="460.94" x2="-125.19" y2="64.9" xlink:href="#Безымянный_градиент_14"/><linearGradient id="Безымянный_градиент_14-92" x1="-610.94" y1="454.02" x2="-130.9" y2="57.98" xlink:href="#Безымянный_градиент_14"/><linearGradient id="Безымянный_градиент_14-93" x1="-634.66" y1="425.28" x2="-154.61" y2="29.24" xlink:href="#Безымянный_градиент_14"/><linearGradient id="Безымянный_градиент_14-94" x1="-651.26" y1="405.15" x2="-171.22" y2="9.11" xlink:href="#Безымянный_градиент_14"/><linearGradient id="Безымянный_градиент_14-95" x1="-548.4" y1="529.84" x2="-68.35" y2="133.8" xlink:href="#Безымянный_градиент_14"/><linearGradient id="Безымянный_градиент_14-96" x1="-562.05" y1="513.29" x2="-82" y2="117.25" xlink:href="#Безымянный_градиент_14"/><linearGradient id="Безымянный_градиент_14-97" x1="-622.3" y1="440.25" x2="-142.26" y2="44.21" xlink:href="#Безымянный_градиент_14"/><linearGradient id="Безымянный_градиент_14-98" x1="-581.95" y1="489.16" x2="-101.91" y2="93.12" xlink:href="#Безымянный_градиент_14"/><linearGradient id="Безымянный_градиент_14-99" x1="-515.49" y1="569.72" x2="-35.44" y2="173.68" xlink:href="#Безымянный_градиент_14"/><linearGradient id="Безымянный_градиент_14-100" x1="-526.21" y1="556.73" x2="-46.16" y2="160.69" xlink:href="#Безымянный_градиент_14"/><linearGradient id="Безымянный_градиент_14-101" x1="-461.43" y1="635.25" x2="18.62" y2="239.21" xlink:href="#Безымянный_градиент_14"/><linearGradient id="Безымянный_градиент_14-102" x1="-691.01" y1="356.98" x2="-210.96" y2="-39.06" xlink:href="#Безымянный_градиент_14"/><linearGradient id="Безымянный_градиент_14-103" x1="-698.04" y1="348.45" x2="-217.99" y2="-47.59" xlink:href="#Безымянный_градиент_14"/><linearGradient id="Безымянный_градиент_14-104" x1="-694.37" y1="352.9" x2="-214.33" y2="-43.14" xlink:href="#Безымянный_градиент_14"/><linearGradient id="Безымянный_градиент_14-105" x1="-675.28" y1="376.04" x2="-195.23" y2="-20" xlink:href="#Безымянный_градиент_14"/><linearGradient id="Безымянный_градиент_14-106" x1="-681.56" y1="368.42" x2="-201.52" y2="-27.62" xlink:href="#Безымянный_градиент_14"/><linearGradient id="Безымянный_градиент_14-107" x1="-688.48" y1="360.04" x2="-208.43" y2="-36" xlink:href="#Безымянный_градиент_14"/><linearGradient id="Безымянный_градиент_14-108" x1="-664.32" y1="389.32" x2="-184.27" y2="-6.72" xlink:href="#Безымянный_градиент_14"/><linearGradient id="Безымянный_градиент_14-109" x1="-625.8" y1="436.01" x2="-145.75" y2="39.97" xlink:href="#Безымянный_градиент_14"/><linearGradient id="Безымянный_градиент_14-110" x1="-692.29" y1="355.42" x2="-212.25" y2="-40.62" xlink:href="#Безымянный_градиент_14"/><linearGradient id="Безымянный_градиент_14-111" x1="-613.77" y1="450.6" x2="-133.72" y2="54.56" xlink:href="#Безымянный_градиент_14"/><linearGradient id="Безымянный_градиент_14-112" x1="-518.97" y1="565.5" x2="-287.96" y2="374.92" xlink:href="#Безымянный_градиент_14"/><linearGradient id="Безымянный_градиент_14-113" x1="-519.22" y1="565.21" x2="-373" y2="444.58" xlink:href="#Безымянный_градиент_14"/><linearGradient id="Безымянный_градиент_14-114" x1="254.02" y1="424.76" x2="257.92" y2="421.54" xlink:href="#Безымянный_градиент_14"/><linearGradient id="Безымянный_градиент_14-115" x1="249.72" y1="445.65" x2="280.18" y2="420.51" xlink:href="#Безымянный_градиент_14"/><linearGradient id="Безымянный_градиент_14-116" x1="-503.72" y1="583.99" x2="-23.67" y2="187.95" xlink:href="#Безымянный_градиент_14"/><linearGradient id="Безымянный_градиент_14-117" x1="-554.26" y1="522.72" x2="-74.22" y2="126.69" xlink:href="#Безымянный_градиент_14"/><linearGradient id="Безымянный_градиент_14-118" x1="-549.27" y1="528.78" x2="-69.22" y2="132.74" xlink:href="#Безымянный_градиент_14"/><linearGradient id="Безымянный_градиент_14-119" x1="-493.35" y1="596.56" x2="-13.31" y2="200.52" xlink:href="#Безымянный_градиент_14"/><linearGradient id="Безымянный_градиент_14-120" x1="-497.28" y1="591.8" x2="-17.23" y2="195.76" xlink:href="#Безымянный_градиент_14"/><linearGradient id="Безымянный_градиент_14-121" x1="-485.73" y1="605.8" x2="-5.68" y2="209.76" xlink:href="#Безымянный_градиент_14"/><linearGradient id="Безымянный_градиент_14-122" x1="-545.85" y1="532.92" x2="-65.8" y2="136.88" xlink:href="#Безымянный_градиент_14"/><linearGradient id="Безымянный_градиент_14-123" x1="-489.5" y1="601.23" x2="-9.45" y2="205.19" xlink:href="#Безымянный_градиент_14"/><linearGradient id="Безымянный_градиент_14-124" x1="-550.52" y1="527.27" x2="-70.47" y2="131.23" xlink:href="#Безымянный_градиент_14"/><linearGradient id="Безымянный_градиент_14-125" x1="-513.05" y1="572.68" x2="-33" y2="176.64" xlink:href="#Безымянный_градиент_14"/><linearGradient id="Безымянный_градиент_14-126" x1="-540.48" y1="539.44" x2="-60.43" y2="143.4" xlink:href="#Безымянный_градиент_14"/><linearGradient id="Безымянный_градиент_14-127" x1="-364.55" y1="402.83" x2="-321.81" y2="367.57" gradientTransform="translate(71.9 691.57) rotate(84.73)" xlink:href="#Безымянный_градиент_14"/><linearGradient id="Безымянный_градиент_14-128" x1="-505.66" y1="581.64" x2="-25.61" y2="185.6" xlink:href="#Безымянный_градиент_14"/><linearGradient id="Безымянный_градиент_14-129" x1="-513.2" y1="572.5" x2="-33.15" y2="176.46" xlink:href="#Безымянный_градиент_14"/><linearGradient id="Безымянный_градиент_14-130" x1="-566.34" y1="508.09" x2="-86.29" y2="112.05" xlink:href="#Безымянный_градиент_14"/><linearGradient id="Безымянный_градиент_14-131" x1="-556.92" y1="519.5" x2="-76.88" y2="123.46" xlink:href="#Безымянный_градиент_14"/><linearGradient id="Безымянный_градиент_14-132" x1="-558.14" y1="518.03" x2="-78.09" y2="121.99" xlink:href="#Безымянный_градиент_14"/><linearGradient id="Безымянный_градиент_14-133" x1="-509.93" y1="576.46" x2="-29.88" y2="180.42" xlink:href="#Безымянный_градиент_14"/><linearGradient id="Безымянный_градиент_14-134" x1="-508.57" y1="578.11" x2="-28.52" y2="182.07" xlink:href="#Безымянный_градиент_14"/><linearGradient id="Безымянный_градиент_14-135" x1="-553.87" y1="523.2" x2="-73.82" y2="127.16" xlink:href="#Безымянный_градиент_14"/><linearGradient id="Безымянный_градиент_14-136" x1="-558.93" y1="517.07" x2="-78.88" y2="121.03" xlink:href="#Безымянный_градиент_14"/><linearGradient id="Безымянный_градиент_14-137" x1="-571.75" y1="501.53" x2="-91.7" y2="105.49" xlink:href="#Безымянный_градиент_14"/></defs><title>logo_gold_borodach</title><path class="cls-1" d="M-355,446.79l.56.62a7.85,7.85,0,0,1-1.42,3.3l-.6-.63Z" transform="translate(621.4 -17)"/><path class="cls-2" d="M-364.94,439.22c0,.39,0,.8-.48.93Z" transform="translate(621.4 -17)"/><path class="cls-3" d="M-365.43,440.15c0,.4.06.83-.48.95A.92.92,0,0,1-365.43,440.15Z" transform="translate(621.4 -17)"/><path class="cls-4" d="M-356.44,452c0-.39,0-.77.46-.92A.82.82,0,0,1-356.44,452Z" transform="translate(621.4 -17)"/><path class="cls-5" d="M-363.07,435.88c0,.41.08.86-.52.94A.93.93,0,0,1-363.07,435.88Z" transform="translate(621.4 -17)"/><path class="cls-6" d="M-363.57,436.79c0,.43.13.9-.52.94A.93.93,0,0,1-363.57,436.79Z" transform="translate(621.4 -17)"/><path class="cls-7" d="M-364.07,437.71l-.36.55Z" transform="translate(621.4 -17)"/><path class="cls-8" d="M-364.55,438.54a.51.51,0,0,1-.39.67Z" transform="translate(621.4 -17)"/><path class="cls-9" d="M-144.46,403.73c-2.52-.13-5-.27-7.56-.38q-7.8-.34-15.6-.64c-.79,0-1.58,0-2.37-.09-.46,0-.91-.14-1.43-.22-.92-2-1.82-4.06-2.73-6.06s-1.77-3.87-2.64-5.81-1.72-4.06-2.68-6a53.79,53.79,0,0,0-2.83-5.95c-1.4,1.25-29.51,35.63-30.63,37.47,1.52,1.49,3.49,2.5,5,4-71.33,65.88-182.35,66.21-254.13.33,1.68-1.66,3.82-2.75,5.56-4.49-.28-.36-.51-.65-.74-.94q-3.68-4.48-7.36-9l-21.84-26.76c-.24-.29-.46-.66-1-.47-.2.44-.44.93-.66,1.43q-4.59,10.24-9.18,20.48c-.28.63-.65,1.23-1,1.82-.52.06-.91.14-1.3.15l-13.24.57-13,.56a3.82,3.82,0,0,0-.67.21c9.34,12.18,18.74,24.22,28.09,36.42l-2.74,2.76L-504,446c-.89.89-1.8,1.78-2.68,2.68s-1.93,1.83-2.76,2.85c40,41.81,104.13,75.13,179.72,73.51,68.78-1.47,129.94-32.62,168.76-73.54l-10.6-10.61c1.89-2.59,3.81-5,5.68-7.41s3.75-4.88,5.63-7.31,3.87-5,5.8-7.48,3.77-4.86,5.63-7.31,3.86-4.73,5.64-7.5C-143.74,403.81-144.1,403.75-144.46,403.73Zm-362.1,15.1-.36-.19C-506.58,418.31-506.63,418.68-506.56,418.83ZM-494.39,437a49,49,0,0,1-2.85-4.69c-.94-1.45-1.81-2.94-2.71-4.41l-2.38-3.3a16,16,0,0,1-2.49-3.35c-.52-.51-1.06-1-1.53-1.56-.16-.19-.14-.53-.2-.81a6.83,6.83,0,0,1,2.34,2.37l2.33,2.86,2.43,3.28a79.77,79.77,0,0,1,6,8.81Zm4.65-6.2c-1.88-2.25-3.71-4.68-5.48-7.15a13.24,13.24,0,0,1-2.53-3.34,10.35,10.35,0,0,1-2-2.19c.55.06.73,0,.79.1.63.69,1.23,1.4,1.84,2.1l2.35,2.85c2.09,2.31,4.18,4.63,6.1,7C-488.83,430.71-489.17,430.81-489.74,430.76Zm4.46-3.87c-.22-.1-.41-.12-.49-.23q-2.13-2.94-4.23-5.9l-1.43-1.87a8.87,8.87,0,0,1-2-2.88,3.24,3.24,0,0,1-1.49-2.12c1,.79,1.63,1.13,1.63,2a4.78,4.78,0,0,1,1.89,2.24l1.84,2.15c1.74,1.88,3.35,3.88,5,5.9Zm5.19-5c-1.74-2.28-3.21-4.57-4.69-6.84l-1.43-1.89a10.41,10.41,0,0,1-2-2.86,4.14,4.14,0,0,1-1.39-1.59c1,.21,1,.21,2,1.59l1.88,2.37,1.45,1.88,5.23,6.45Zm0-13.94a12,12,0,0,1-2.36-3.82,1,1,0,0,1-.85-1.1c.8,0,.88.49.87,1.08,1.33.79,1.89,2.23,2.81,3.36l2.41,3.28,3.7,4.62-.94.83a28.62,28.62,0,0,1-3.31-4.89Zm10.79,49.29a89.82,89.82,0,0,1-7.76-5.72c.07-.87.82-1.16,1.1-1.94l8,6Zm24.41-1.82a31.92,31.92,0,0,0-4.51,7.44c1.68,1.51,3.91,2.2,5.85,3.65l-.79,1.69-6.06-3.39c-1.1,1.06-3.11,4.3-5.15,8.34l2.75,1.77-.44,1c-1.69-.45-5.38-2.55-8.64-4.89l.54-1.17,2.48,1.27c.18-.11.37-.15.44-.27,3.49-5.7,7-11.41,10.5-17.22l-2.14-1.53.56-1.16a45.2,45.2,0,0,1,4.92,2.85c1.59.87,3.14,1.79,4.72,2.68s3.28,1.81,5,2.75c-.33.7-.58,1.27-.87,1.83-.83,1.6-1.67,3.19-2.44,4.67-.68.27-1-.14-1.42-.33a8,8,0,0,1-1-.7l2.81-5.31Zm14.94,32.73a17.12,17.12,0,0,1-6-2.59A8.78,8.78,0,0,1-440,479a10.33,10.33,0,0,1,.44-3.73,23.38,23.38,0,0,1,4.28-8.35c.1-.12.2-.24.31-.36,2.69-2.88,5.72-4.27,10.49-2.71a15.06,15.06,0,0,1,3,1.38c3.19,1.9,4.78,4.5,4.63,8.18a19.84,19.84,0,0,1-4.72,12.09A8,8,0,0,1-429.92,488.18Zm29.18-2.29a3.64,3.64,0,0,1,1.77,3.39c-.07,1.41-.27,2.81-.41,4.22-.12,1.24-.47,2.51.5,3.71l1.72.76-.16,1.27c-2-.45-3.93-.79-5.36-2.28a12.8,12.8,0,0,1,.05-5.19,33.57,33.57,0,0,0,.28-3.52,2.65,2.65,0,0,0-1.47-2.51,15.37,15.37,0,0,0-2.12-1c-1.24-.47-2.52-.86-3.9-1.32a10.65,10.65,0,0,0-.6,1.21c-.93,2.65-1.84,5.32-2.81,8.11l2.67,1.16-.45,1.25a82.13,82.13,0,0,1-8.73-3.06l.42-1.15c1-.2,1.68.55,2.67.61a9.31,9.31,0,0,0,.57-1.12q3-8.08,5.9-16.16c.24-.66.45-1.32.7-2.07l-2.34-1,.56-1.26,1.66.57c2.22.78,4.45,1.54,6.67,2.34a23.86,23.86,0,0,1,2.61,1.07,5.47,5.47,0,0,1,3.43,4.84c-.35,4-2.13,5.62-5.39,6.13C-401.7,485.22-401.23,485.57-400.74,485.89Zm45.58-1.76h-2.57c-.83,6.83-1.51,13.53-2.14,20.1.83,1,2,.47,2.83,1v1a30.24,30.24,0,0,1-9.12-.9c-.05-.06-.15-.12-.15-.17,0-.3,0-.59.08-1h2.8c.5-2.08,2.35-16.8,2.2-19.09-.37.59-.66,1-.88,1.42-2.54,5.06-5.07,10.14-7.61,15.2-.49,1-1.06,1.91-1.63,2.92l-1.81-.11c-.16-.23-.3-.34-.32-.48-.45-2.16-.95-4.3-1.3-6.47-.7-4.35-1.33-8.71-2-13.07-.06-.39-.08-.78-.11-1.18l-.83.44c-1.15,5.85-2.38,11.69-3.46,17.66l2.64.73-.21,1.34a63.27,63.27,0,0,1-8-1.66l.38-1.25,2.72.33a4.33,4.33,0,0,0,.43-.9c1.32-6.37,2.62-12.75,3.94-19.21l-2.42-.7c-.39-.6,0-.87.13-1.39l7,1.39c.16.84.39,1.67.48,2.51.62,5.48,1.67,10.88,2.56,16.32a4.26,4.26,0,0,0,.55,1l8.9-17.72a38.12,38.12,0,0,1,6.76.67C-354.84,483.25-355,483.61-355.16,484.13Zm20.36,23.27a156.33,156.33,0,0,1-20.11-.7l.39-1.45,2.4.16.2-.26a.63.63,0,0,0,.11-.2,3.4,3.4,0,0,0,.06-.47c.44-6.51.88-13,1.33-19.69l-2.18-.3a.86.86,0,0,1,0-1.4l16.87.77c.4,1.62.46,3.64.19,7.28a3.18,3.18,0,0,1-2.28.12v-5.83a6.84,6.84,0,0,0-1.17-.25c-2.67-.07-5.34-.12-8-.18-.11.15-.27.27-.28.4-.16,2.67-.31,5.33-.47,8.14a58.72,58.72,0,0,0,6.75.6,3.31,3.31,0,0,1,.19.74,7.54,7.54,0,0,1-.15,1l-6.58-.3a45.46,45.46,0,0,0-.73,9.68c2.12.7,7.79,1,10.8.47l.12-7.06a5.24,5.24,0,0,1,2.51-.18A40.85,40.85,0,0,1-334.79,507.4Zm24-18.08c.17,1.88.45,3.75.66,5.63s.37,3.6.55,5.4.38,3.58.6,5.63l-2.63.49c-2.83-3.24-5.44-6.59-7.92-10s-4.78-6.8-7.13-10.16c-.2,0-.3,0-.34,0a.34.34,0,0,0,0,.23q.29,9.22.59,18.43a3.58,3.58,0,0,0,.26.8l2.47.18a.79.79,0,0,1,.14,1.22,32.69,32.69,0,0,1-7.79.08v-1.15l2.7-.22c0-.57,0-1,0-1.48q-.19-7-.4-13.95c0-1.1,0-2.21-.09-3.31,0-.61-.17-1.22-.26-1.89l-2.33-.15-.12-1.14c1.1-.49,2.22-.2,3.29-.29s2.19-.13,3.28-.19c.79.36,1.11,1.11,1.55,1.75q5,7.46,10.63,14.47c.28.35.62.67,1,1.09a154.44,154.44,0,0,0-1.5-16.41c-.69-.37-1.51,0-2.41-.2l-.22-1.26,7-.73.47,1.26-2.5.56A37.27,37.27,0,0,0-310.76,489.32Zm36.24,4.48a11.48,11.48,0,0,1-.29,1.62,7.59,7.59,0,0,1-3.95,5.33,14.21,14.21,0,0,1-9.1,1.85,8,8,0,0,1-6-4.15,14.62,14.62,0,0,1-1.33-3,21,21,0,0,1-1.13-7,13.16,13.16,0,0,1,.48-4.2,8,8,0,0,1,2.9-4.21,12.42,12.42,0,0,1,8.92-2.35,8.34,8.34,0,0,1,6.27,4.19A21,21,0,0,1-274.51,493.8Zm24-1.75c-5.19-3.6-10.22-7.4-15-11.48l-4.14-3.52-.61.6c.51,1.73,1,3.47,1.53,5.2,1.27,4.13,2.56,8.25,3.88,12.51l2.64-.7.56.85c-.12.22-.16.43-.27.47a61.72,61.72,0,0,1-7.49,2.36l-.39-1.26,2.5-1.06a43,43,0,0,0-1.81-6.54q-1-3.28-1.94-6.56l-2-6.68-2.19.47a.86.86,0,0,1-.44-1.35l6.37-1.94c1.8,1.51,3.63,3.12,5.54,4.62,3.47,2.73,7,5.39,10.49,8.07.24.19.53.32,1,.59a4.52,4.52,0,0,0-.1-1q-2.58-6.85-5.19-13.68a2.86,2.86,0,0,0-.35-.54c-.94-.53-1.64.58-2.64.22l-.28-1.06c2.17-1.1,4.45-1.69,6.42-2.62.7.31.9.68.67,1.3l-2.13,1.05,8,20.43A5.53,5.53,0,0,1-250.55,492.06Zm7.12-3-.42-1.09,2.43-1.25a12.16,12.16,0,0,0-.38-1.23q-3.66-8.58-7.34-17.14a3.31,3.31,0,0,0-.45-.6l-2.31.81-.46-1a42.12,42.12,0,0,1,8.24-3.74l.55,1-2.77,1.6L-238,485a37.86,37.86,0,0,0,8.4-3.8c.27-.61-.24-1-.45-1.49-.72-1.57-1.52-3.11-2.27-4.67a2.27,2.27,0,0,1-.1-.51,5.22,5.22,0,0,1,2.29-1.31c1.46,2.58,2.69,5.2,4,7.76C-228.19,482.66-240.08,488.22-243.43,489Zm21.78-10.15-.63-1.08c.89-1.11,2.47-1.26,3.46-2.35l-4.45-8-11.3-6.93-2.25,1-.82-1.05c2.53-1.63,5.23-2.7,7.78-4.34l.92,1.1c-.41.3-.7.54-1,.75s-.65.41-1.14.72a98.23,98.23,0,0,0,8.52,5.49,70.68,70.68,0,0,0-.36-10.21l-2.22,1.18-.76-1.14c2.1-1.53,4.35-2.64,6.47-4.11l.87,1.12-2.28,1.66c.08,2,.19,4.08.23,6.19s0,4.25,0,6.37l4.93,8.45,3.41-1.91a2.5,2.5,0,0,1,.55.44,3.12,3.12,0,0,1,.26.76C-214.71,475.15-218.05,477.05-221.64,478.9Zm40.94-70.49.19-.34C-180.23,408.4-180.55,408.36-180.71,408.41Zm-11.33,1a14.22,14.22,0,0,1,2.78-3.47c0-.87.61-1.23,1.2-1.67.11.17.2.26.18.29-.45.66-.91,1.32-1.36,2l-2.33,3.36L-196,416.8l-.91-.41C-196.5,414.91-196.08,414.31-192,409.41Zm-9,47.79-1.1-1.35c.08-.24.08-.44.18-.51,1.12-.85,2.25-1.68,3.38-2.53,1.31-1,2.61-2,3.95-3,.78.18,1,1,1.42,1.44A39.48,39.48,0,0,1-201,457.2Zm9.33-35.34c1.78-2.4,3.45-4.67,5.34-6.77l1.86-2.38,1.88-2.37a4.38,4.38,0,0,1,1.86-1.9c0,.94-.61,1.41-1.27,1.88a10,10,0,0,1-2,2.86l-1.85,2.44-4.49,6.74Zm6.31,5.59-.62-.56c.05-.25,0-.44.12-.54q2.57-3,5.17-6.06l1.83-2.14a4.54,4.54,0,0,1,1.92-2.24c-.06-.86.62-1.19,1.16-1.65,0,.73,0,.73-1.16,2.22l-1.87,2.41-1.44,1.86c-1.49,2.09-3,4.19-4.49,6.27A2.46,2.46,0,0,1-185.35,427.44Zm3.41,3.64c0-.25,0-.43.08-.52q2.21-2.56,4.44-5.09l1.95-2.34,2.35-2.84,1.91-2.28c.5.28.38.56.17.78-.47.51-1,1-1.47,1.48a12.8,12.8,0,0,1-2.51,3.36L-176.9,426l-4.08,5.57Zm18.49-11.82c-.65.66-1.31,1.3-2,2l-.61.48c0,.22,0,.5-.1.65-1,1.38-2.13,2.74-3.2,4.1-1.18,1.84-2.34,3.7-3.56,5.51s-2,3.72-3.33,5.45l-.71-.44c-.24-.81,3.83-7,7.15-11a17.14,17.14,0,0,1,3.73-4.3.59.59,0,0,1,.06-.43l2.36-2.78C-163.12,418.77-163.23,419-163.45,419.27Z" transform="translate(621.4 -17)"/><path class="cls-10" d="M-523.69,208.95q4.72.24,9.45.45l14.19.6c.62,0,1.24.09,1.87.13.38.77.74,1.47,1.06,2.18,3.05,6.83,6.09,13.67,9.17,20.48.19.43.18,1.15,1,1.18l30.07-36.79a2.74,2.74,0,0,0,.29-.65c-1.57-1.42-3.44-2.47-5.1-4a187.43,187.43,0,0,1,36.46-26.22,186.51,186.51,0,0,1,71.84-22.42,187,187,0,0,1,60.61,3.68,187.69,187.69,0,0,1,58.22,24c10.39,6.48,23.77,17,27,20.82l-5.37,4.08a2,2,0,0,0,.17.58q15,18.41,30.11,36.81a.4.4,0,0,0,.2.12c.06,0,.12,0,.31-.06,3.65-7.85,7.07-15.88,10.69-23.66a3.15,3.15,0,0,1,.63-.22c3.39-.17,6.77-.35,10.16-.5,5-.21,9.93-.4,14.89-.61a10.07,10.07,0,0,0,1.41-.13,8.21,8.21,0,0,0,1.14-.4l-27.94-36.17c.56-.58,1.08-1.16,1.63-1.72q4.18-4.19,8.36-8.38a15.24,15.24,0,0,0,1-1.26c-.64-.68-1.17-1.25-1.73-1.81a245.9,245.9,0,0,0-23.25-20.48,243.29,243.29,0,0,0-34.47-22.37,241.33,241.33,0,0,0-47.14-19.17,229.71,229.71,0,0,0-23.42-5.5q-4.77-.84-9.56-1.53c-3.19-.46-6.39-.89-9.6-1.24-2.58-.28-5.19-.37-7.78-.62-5.42-.51-10.87-.63-16.3-.69q-9.23-.09-18.43.7c-2.83.24-5.67.33-8.48.67-5.16.62-10.3,1.3-15.43,2.19-6.83,1.18-13.59,2.61-20.3,4.36a241.61,241.61,0,0,0-40.81,14.67A241.12,241.12,0,0,0-464,124.84a233,233,0,0,0-27.82,20.42c-3.94,3.4-7.79,6.91-11.62,10.44a55.59,55.59,0,0,0-5.22,5.3c.51.55,1,1.09,1.45,1.58l7.87,7.87c.44.44.83.92,1.26,1.4l-28.26,36.58A5,5,0,0,0-523.69,208.95Zm337.3.58.33.19C-186.39,210-186.32,209.66-186.39,209.53Zm6.14-5.7.38.22C-180.24,204.4-180.18,204-180.25,203.83Zm17.06-10.41.37.2C-163.18,194-163.13,193.6-163.19,193.43Zm-12.07-17.63c.27.14.46.18.53.29q2.47,4.14,4.92,8.3l2.38,3.31,1.87,2.4c.71.82,1.44,1.61,2.11,2.46a2.27,2.27,0,0,1,.24.84,5.45,5.45,0,0,1-2.39-2.63l-2.27-2.59-2.43-3.29a81.09,81.09,0,0,1-5.77-8.48Zm-4.67,5.69,5.37,7.18,1.9,2.36c.56.67,1.15,1.32,1.68,2a2.29,2.29,0,0,1,.21.83l.53.48c.69.27,1,.88,1.51,1.53-1-.2-1-.2-2-1.56a1.08,1.08,0,0,1,0-.44,4,4,0,0,1-1.94-2.14l-2.29-2.62c-2-2.16-4-4.38-5.9-6.74Zm-4.14,4.13a51.35,51.35,0,0,1,4.3,5.89l1.44,1.87a9.66,9.66,0,0,1,2,2.87,2.78,2.78,0,0,1,1.26,1.55c-.86-.24-.86-.24-1.84-1.56l-1.88-2.37-1.46-1.87-4.81-5.58Zm-5.43,5a36.46,36.46,0,0,1,3,4.2c1,1.4,2,2.83,2.94,4.25a9.16,9.16,0,0,1,2,2.83c.65.48,1.29,1,1.27,1.91a4.34,4.34,0,0,1-1.87-1.91l-1.87-2.39c-2.21-2.63-4.41-5.26-6.38-8.13Zm-5.69,5.64c1.3,1.15,2,2.7,2.92,4s1.71,2.64,2.56,4l2.35,3.33a2.19,2.19,0,0,1,.94,1.89,2.4,2.4,0,0,1-1.38-1.46l-2.36-3.3-5.88-7.57Zm-22.3-43.93c.25,0,.44-.12.54-.06a83.38,83.38,0,0,1,7.39,4.93,1.94,1.94,0,0,1-1.29,1.78l-7.49-5Zm-19.91-27.41c3.46,1.55,6.85,3.19,10.13,5a10.25,10.25,0,0,1,3.4,2.88,4.93,4.93,0,0,1,1,3.54,6.87,6.87,0,0,1-3.36,5.4c-1.6,1-3.36.73-5.05.3a17.33,17.33,0,0,1-2.83-1.16c-1.07-.49-2.11-1-3.15-1.52a39.32,39.32,0,0,0-4.15,8.28l2.32,1.31a.89.89,0,0,1-.49,1.35c-2.59-1.2-5.25-2.5-8-3.91l.63-1.24,2.12.9c1.19-1.39,5.18-9.5,9.07-18.44-.44-.9-1.69-.7-2.24-1.49C-238.14,125.6-237.8,125.29-237.39,124.95Zm-23.54-5.16a8,8,0,0,1,6.78-2,16,16,0,0,1,6,2.12,10.45,10.45,0,0,1,3.42,3.2,8.69,8.69,0,0,1,1.33,4.75c-.25,1.3-.41,2.64-.78,3.91a21.84,21.84,0,0,1-3.16,6.55c-.27.38-.54.77-.85,1.13-2.74,3.25-6.15,4.15-10.18,2.91a15.38,15.38,0,0,1-3.85-1.74c-3-2-4.15-4.88-4-8.29a22.06,22.06,0,0,1,2.7-9.2A12.24,12.24,0,0,1-260.93,119.79Zm-31.48,10.57,2.41.13c.7-1.78,3.87-15.68,4.55-20l-2.39-.69c-.36-.58,0-.88.18-1.35a75.61,75.61,0,0,1,8.62,1.94,6.54,6.54,0,0,1-.06.76,3.35,3.35,0,0,1-.27.58l-2.55-.45c-.89,2.72-1.43,5.56-2.11,8.53l10.48,2.76c.84-1.33,1.85-4.53,2.67-8.36l-2.56-1,.38-1c.15-.07.31-.2.43-.17a77,77,0,0,1,8.2,2.5l-.18,1.28-2.59-.53c-.17.2-.4.35-.46.54-1.95,6.31-3.88,12.62-5.84,19l2.4,1.05-.45,1.24-7.58-2.23v-1.27l2.41.28a44.83,44.83,0,0,0,2.7-9.48c-3.3-1.12-6.73-1.87-10.24-2.73a6,6,0,0,0-.56,1.13c-.65,2.75-1.27,5.5-1.93,8.39l2.29.9-.08,1c-1.55.11-3.79-.34-8-1.56Zm-18.39-9.57a2.86,2.86,0,0,1,.26-.68,3.62,3.62,0,0,1,2.3,0c0,.83,0,1.52,0,2.21-.18,3.73,1.69,5.52,5.39,6.2a10.29,10.29,0,0,0,1.41.09c3.59.16,5.13-3.12,4.6-6a3.76,3.76,0,0,0-2-2.55,19.33,19.33,0,0,0-2.36-1.08c-1.17-.47-2.36-.87-3.52-1.35a12.58,12.58,0,0,1-2.1-1.07c-4.61-3-2.79-8.8.42-10.36a9.37,9.37,0,0,1,9.63.74,10.48,10.48,0,0,1,1.2,1.06l.69-1,2.36.31-1.45,7.69a3.22,3.22,0,0,1-2.3-.25c0-.95,0-1.88,0-2.82a4.45,4.45,0,0,0-4.43-4.82c-1-.09-2,0-2.9,0-2.81,1.5-3.29,2.65-2.46,5.66a5.88,5.88,0,0,0,2.76,2.09c1.4.53,2.75,1.16,4.15,1.68a12.29,12.29,0,0,1,3.3,1.81,4.87,4.87,0,0,1,2,4.07,9.26,9.26,0,0,1-.53,3.48,6.68,6.68,0,0,1-6.34,4.47,9.46,9.46,0,0,1-7.87-3,5.92,5.92,0,0,0-.79-.61l-.36,2.09-1.66-.34a2.33,2.33,0,0,1-.17-.69Q-311.18,124.32-310.81,120.8Zm-23.74-17.08c.17-.09.31-.22.44-.23a73.77,73.77,0,0,1,11.33.43,11.48,11.48,0,0,1,3.14.93A4.29,4.29,0,0,1-317,109a13.85,13.85,0,0,1-.08,1.65,4.63,4.63,0,0,1-2.48,3.79c-.41.23-.84.42-1.39.68a10,10,0,0,0,1.27.64,4.27,4.27,0,0,1,3,4.12c.1,1.1.09,2.21.11,3.31a6.67,6.67,0,0,0,.78,3.25l1.68.57c.43.46.33.87-.08,1.39-1.43-.35-3.06,0-4.44-1.08a3.7,3.7,0,0,1-.92-2.35c-.11-1.41-.25-2.82-.37-4.24,0-.39,0-.79-.09-1.18-.31-2.08-1.24-3-3.36-3.35a20,20,0,0,0-5-.31,6.81,6.81,0,0,0-.44,3.16q-.07,1.65-.07,3.31a16.13,16.13,0,0,0,.07,3.31l2.23.48v1.29c-2.7.2-5.25-.25-7.69-.24a1,1,0,0,1-.11-1.34l2.09-.18a8.08,8.08,0,0,0,.32-3c.12-5.68.14-11.36.19-17a2.64,2.64,0,0,0-.17-.58l-2.36-.27C-334.76,104.44-334.6,104.06-334.54,103.71Zm-23.19.88a171.54,171.54,0,0,1,18.54-1.11,27.86,27.86,0,0,1,.22,7.72l-2.15.17c-.09-.63-.18-1.14-.22-1.66-.12-1.48.13-3-.34-4.43a51.79,51.79,0,0,0-9.94.45c-.27,2.81.4,5.57.46,8.47a12.13,12.13,0,0,0,3.34.06c1.1,0,2.19-.09,3.46-.15l.32,1.54c-2.25.61-4.46.43-6.77.65a58.42,58.42,0,0,0,.63,9.81,70.22,70.22,0,0,0,9.69-.39c.42-2.44-.13-4.87.15-7.19.15-.13.21-.22.27-.22l1.76-.14c.18.21.36.33.37.45.11,2.75.2,5.49.29,8.08-.37.68-.9.58-1.34.64a19.25,19.25,0,0,1-2.12.11c-4.33.06-8.66.23-13,.66-.47,0-.94,0-1.57,0l-.24-1.29,2.34-.29c.16-3.54-.48-6.95-.68-10.37s-.61-6.72-.94-10.31l-2.62.15-.36-1C-358,104.79-357.86,104.61-357.73,104.6Zm-22.05,3.15,10.23-1.74a9.51,9.51,0,0,1,4,.19,4.08,4.08,0,0,1,3,2.72c1.17,3.17.08,5.54-2.38,6.86-.39.21-.76.45-1.12.67,1.22.23,2.38.4,3.52.68a4.09,4.09,0,0,1,2.66,2.19,7.4,7.4,0,0,1,.53,6.17,5.61,5.61,0,0,1-3.94,3.45c-1.43.41-2.91.67-4.38.94-2.63.49-5.26.95-7.89,1.41a2.06,2.06,0,0,1-.59-.13l-.21-1.14,2.38-.78c-.2-2.25-.79-4.44-1.15-6.67s-.75-4.5-1.26-6.72-.61-4.5-1.44-6.8l-2.66.29-.2-1.23A5.36,5.36,0,0,1-379.78,107.75Zm-16.09,3.77c1.21-.31,2.47-.45,3.7-.68a6.43,6.43,0,0,1,3.25.35c1.93.65,2.77,2.26,3.09,4.13a5,5,0,0,1-1.83,5.28c-.25.19-.52.34-1,.67l3.25.18a5.33,5.33,0,0,1,2.93,3.23c.41,1,.71,2.08,1.13,3.1a5,5,0,0,0,1.57,2.5l2,.19.13,1.14c-1.83.34-3.54,1.29-5.27,0a12.59,12.59,0,0,1-1.85-3.54c-.33-.8-.64-1.61-.94-2.42a5.05,5.05,0,0,0-2.18-2.71c-2.6-.56-4.9.57-7.3,1.11a50.64,50.64,0,0,0,2.68,9.66l2.35-.47.27,1.23c-.36.15-.64.29-.93.38l-6.69,1.95-.66-1.25,2.27-.88c-.29-2-4.4-16-5.81-19.77l-2.74.51-.28-1.26C-401.76,113.11-398.83,112.27-395.87,111.52Zm-24,8c.62-.29,1.1-.54,1.61-.74.73-.28,1.48-.51,2.34-.8,5,6,9.41,12.24,13.92,18.6l2.17-.55c.66.21.78.62.63,1.28L-407,140l-.59-1.21,2.3-1.07a44.07,44.07,0,0,0-3.79-5.53,28,28,0,0,0-7.34,2.76c.08.72.17,1.49.24,2.25s.07,1.42.17,2.12.3,1.53.47,2.33l2.05-.67c.09,0,.19,0,.23.09.17.24.33.5.47.71-.11.23-.15.43-.25.48-2.07.91-4.15,1.8-6.31,2.74l-.69-1.14,2.36-1.37C-418.58,134.86-419.43,127.22-419.86,119.51Zm-26,12c2.44-1.28,4.87-2.57,7.34-3.79a9.32,9.32,0,0,1,4.54-1.11,4,4,0,0,1,2.21.72,5.45,5.45,0,0,1,1.48,7.32,8.79,8.79,0,0,1-.93,1.06c.1.56.62.37.95.5.63,0,1.26-.1,1.89-.13a4.66,4.66,0,0,1,3.91,1.84,7.91,7.91,0,0,1,1.69,3.6,5,5,0,0,1-1.48,5,14.22,14.22,0,0,1-2.64,2c-3.31,1.8-6.68,3.52-10,5.24-.64-.1-.84-.47-.88-1.06l2-1.39c-4.42-8.77-8.85-16.72-10.05-18l-2.2,1.09-.88-1.14C-447.77,132.54-446.84,132-445.87,131.47Zm-7.24,20.64c.27.32.52.58.74.87s.33.53.58.93l-7.82,5.26-1.23-1.79C-458.34,155.42-455.76,153.85-453.11,152.11Zm-45.14,42.15c-.31-.35,0-.32.22-.37Zm24.53,2c.12-.18.36-.27.58-.42l.76.7a47,47,0,0,1-3.84,5l-2.41,3.28-2.38,3.29-1.16,1.6c-.28-1,.13-1.33.71-1.56a11.78,11.78,0,0,1,2.38-3.8l2.34-3.37C-475.75,199.37-474.75,197.8-473.72,196.24Zm-5.22-6.2.93.85a77.24,77.24,0,0,1-4.91,6.29,25.2,25.2,0,0,1-3.72,4.45c-.17,1-1,1.45-1.69,2.19.05-.88.05-.88,1.67-2.83l3.24-4.35C-482,194.4-480.51,192.24-478.94,190Zm-4.56-4.5c-.06.28,0,.55-.15.7-1.63,1.93-3.28,3.83-4.93,5.75l-1.45,1.88-1.87,2.37c-.29.83-1,1.25-1.69,1.9.17-1,.17-1,1.16-1.86a8.49,8.49,0,0,1,2-2.87l1.44-1.87c1.4-2.18,3-4.24,4.54-6.34Zm-5.18-4.18c.08-.11.27-.14.45-.24l.7.66a12.28,12.28,0,0,1-2.07,2.56c-.64.8-1.32,1.56-2,2.33s-1.48,1.63-2.22,2.45a7.5,7.5,0,0,1-2.26,2.46.68.68,0,0,1-.1.39,4.38,4.38,0,0,1-1.86,1.91c-.05-.95.63-1.41,1.26-1.91l.55-.54a7.3,7.3,0,0,1,2-2.77Q-491.47,185-488.68,181.36ZM-503.85,191l.6-.5c0-.23,0-.51.13-.67.56-.74,1.17-1.45,1.77-2.16l3.73-5.31,4.12-7.15,1.25.42A55.75,55.75,0,0,1-497.1,183l-3.84,5.17a6.3,6.3,0,0,1-2.28,2.42.7.7,0,0,1-.06.42,8.16,8.16,0,0,1-2.78,2.86c.07-.29.06-.65.23-.84C-505.21,192.33-504.52,191.7-503.85,191Zm-2.25,2.86-.18.33C-506.57,193.91-506.26,194-506.1,193.91Z" transform="translate(621.4 -17)"/><path class="cls-11" d="M-334.49,186.25c.14-.61.27-1.23.36-1.85a7.58,7.58,0,0,1,1.92-4.48c1.45-1.44,3-2.8,4.49-4.19.4-.37.82-.71,1.34-1.17l-3.77-6.09a14.55,14.55,0,0,0-5.54-.94,60.09,60.09,0,0,0-13.42.76,65.23,65.23,0,0,0-10.42,3,5.8,5.8,0,0,0-3.52,3.58,19.86,19.86,0,0,0-1.5,7.59,7.64,7.64,0,0,0,.9,3.61c1.48,2.69,2.88,5.43,4.32,8.14q1.94,3.65,3.89,7.29c-.05.78-.05,1.58-.16,2.35-.56,4-1.14,8.08-1.72,12.12-.16,1.16-.32,2.33-.46,3.5a.69.69,0,0,0,.56.88c.76-.28.68-1,.76-1.56.46-3.42.94-6.84,1.38-10.27.22-1.71.35-3.43.52-5.14l.4-1.59,8.06-4.24c-.4-1-.78-1.8-1.13-2.66-.58-1.46-1.15-2.93-1.72-4.39a6.47,6.47,0,0,1,0-4.17,4.62,4.62,0,0,1,1.95-2.86,4,4,0,0,1,3.46-.75c1.87,1.14,3.09,3.18,4.85,4.49h3.92A9.68,9.68,0,0,0-334.49,186.25Z" transform="translate(621.4 -17)"/><path class="cls-12" d="M-349.31,167.12c2.64-.4,5.29-.87,8-1.07,5.28-.39,10.56.13,15.83.46.39,0,.77.17,1.16.23l4.6.69a59.6,59.6,0,0,0,5.66-4.79c-.44-1.13-.84-2.15-1.23-3.18a12.52,12.52,0,0,0-4.21-5.3,8.2,8.2,0,0,0-3.17-1.5,46.5,46.5,0,0,0-6.27-1,47,47,0,0,0-9.89,0,28.73,28.73,0,0,0-3.72.6,31.64,31.64,0,0,0-11,5.18,31.4,31.4,0,0,0-7.59,7.72,8.33,8.33,0,0,0-1.65,6A62.57,62.57,0,0,1-349.31,167.12Z" transform="translate(621.4 -17)"/><path class="cls-13" d="M-311.56,206.75l-5.28,3.23a11.26,11.26,0,0,1-2.53-4.27c2.41-1.42,5.08-2.4,7.45-4.06a12.18,12.18,0,0,0-.21-3.65l-9.56,5a13.68,13.68,0,0,0-4.43-3.26c-1.19-.61-2.44-1.09-3.68-1.59a20,20,0,0,1-4.84-2.52c0-1.53-.07-3-.15-4.51a8.22,8.22,0,0,0-.29-1.34,9.26,9.26,0,0,0-3.13.09c-.11,3-.1,5.94-.12,8.92s-.13,6.13,0,9l18.81,19.8a9.87,9.87,0,0,0,1.27.29c1,.09,2,.14,3.07.2l5.06-6.07c-.2-2.73-.27-5.25-.58-7.74S-310.69,209.24-311.56,206.75Z" transform="translate(621.4 -17)"/><path class="cls-14" d="M-394.37,191c-1.88,0-3.76.08-5.74-.07-.62-1.87-1.16-3.67-1.8-5.43s-.92-3.6-2-5.38c-1.42,3.71-2.25,7.38-3.7,10.89h-5.55c-.95,0-1.89,0-2.84,0a11,11,0,0,0-3,.2l9.17,6.72c-1,3.72-2.41,7.2-3.43,11.16.83-.56,1.39-.92,1.94-1.32,2-1.48,4.07-3,6.11-4.46.49-.35,1-.62,1.54-.91l9.38,6.76c-1-4-2.51-7.44-3.45-11.24,1.64-1.2,3.1-2.26,4.55-3.34a43.84,43.84,0,0,0,4.63-3.57C-390.74,191-392.56,191-394.37,191Z" transform="translate(621.4 -17)"/><path class="cls-15" d="M-263.36,190.89c-1.4-3.58-2.25-7.24-3.82-11l-3.65,11.06c-3.78.2-7.45-.08-11.3.17a4.4,4.4,0,0,0,1.31,1.26l6.69,4.85c.36.26.68.59,1,.84-1.05,3.66-2.44,7.07-3.39,11,3.35-2.28,6.24-4.52,9.41-6.74l8.75,6.24a.32.32,0,0,0,.23,0c.06,0,.1-.09.28-.25a41.41,41.41,0,0,0-1.54-5c-.53-1.79-1.21-3.53-1.68-5.36l3.12-2.3c1-.7,1.95-1.34,2.86-2.08a13.09,13.09,0,0,0,3-2.48C-256,190.84-259.7,191.16-263.36,190.89Z" transform="translate(621.4 -17)"/><path class="cls-16" d="M-323,181.26l.17,1.16c2.41.46,4.71.78,7.17,1,.06-.58.13-1,.14-1.48a11.31,11.31,0,0,0-.11-1.2C-318.2,180.31-320.51,181.19-323,181.26Z" transform="translate(621.4 -17)"/><path class="cls-17" d="M-169.33,426.45l-.45-.47a17.14,17.14,0,0,1,3.73-4.3l0,0c0,.22,0,.5-.1.65C-167.18,423.73-168.26,425.09-169.33,426.45Z" transform="translate(621.4 -17)"/><path class="cls-18" d="M-494.75,423.13l-.46.48a13.24,13.24,0,0,1-2.53-3.34h.63Z" transform="translate(621.4 -17)"/><path class="cls-19" d="M-479.59,407.5l-.47.48a12,12,0,0,1-2.36-3.82l0,0C-481.07,404.93-480.51,406.37-479.59,407.5Z" transform="translate(621.4 -17)"/><path class="cls-20" d="M-172.5,420.27a12.8,12.8,0,0,1-2.51,3.36l-.46-.5,2.35-2.84Z" transform="translate(621.4 -17)"/><path class="cls-21" d="M-191.57,409.89l-.46-.49a14.22,14.22,0,0,1,2.78-3.47l0,.6Z" transform="translate(621.4 -17)"/><path class="cls-22" d="M-501.89,424.09l-.44.48a16,16,0,0,1-2.49-3.35h.61Z" transform="translate(621.4 -17)"/><path class="cls-23" d="M-166,421.25l2.36-2.78c.51.29.4.57.19.8-.65.66-1.31,1.3-2,2Z" transform="translate(621.4 -17)"/><path class="cls-24" d="M-487.64,410.34l1.88,2.37-.45.48a10.41,10.41,0,0,1-2-2.86Z" transform="translate(621.4 -17)"/><path class="cls-25" d="M-184,413.18l-.45-.47,1.88-2.37.59,0A10,10,0,0,1-184,413.18Z" transform="translate(621.4 -17)"/><path class="cls-26" d="M-172.5,420.27l-.62,0,1.91-2.28c.5.28.38.56.17.78C-171.5,419.3-172,419.78-172.5,420.27Z" transform="translate(621.4 -17)"/><path class="cls-27" d="M-497.11,420.28h-.63a10.35,10.35,0,0,1-2-2.19c.55.06.73,0,.79.1C-498.33,418.87-497.72,419.58-497.11,420.28Z" transform="translate(621.4 -17)"/><path class="cls-28" d="M-178.85,418.14a4.54,4.54,0,0,1,1.92-2.24v.57l-1.87,2.41Z" transform="translate(621.4 -17)"/><path class="cls-29" d="M-493.27,415.89a4.78,4.78,0,0,1,1.89,2.24l-.06.76a8.87,8.87,0,0,1-2-2.88Z" transform="translate(621.4 -17)"/><path class="cls-30" d="M-504.21,421.23h-.61c-.52-.51-1.06-1-1.53-1.56-.16-.19-.14-.54-.2-.82h0A6.82,6.82,0,0,1-504.21,421.23Z" transform="translate(621.4 -17)"/><path class="cls-31" d="M-189.24,406.53l0-.6c0-.87.61-1.23,1.2-1.67.11.17.2.26.18.29C-188.33,405.22-188.79,405.88-189.24,406.53Z" transform="translate(621.4 -17)"/><path class="cls-32" d="M-182,410.32l-.59,0a4.38,4.38,0,0,1,1.88-1.9h0C-180.68,409.37-181.33,409.85-182,410.32Z" transform="translate(621.4 -17)"/><path class="cls-33" d="M-176.93,416.48v-.57c-.06-.86.62-1.19,1.16-1.65C-175.75,415-175.75,415-176.93,416.48Z" transform="translate(621.4 -17)"/><path class="cls-34" d="M-487.64,410.34h-.6a4.14,4.14,0,0,1-1.39-1.59C-488.61,409-488.61,409-487.64,410.34Z" transform="translate(621.4 -17)"/><path class="cls-35" d="M-493.4,416a3.24,3.24,0,0,1-1.49-2.12c1,.79,1.63,1.13,1.63,2Z" transform="translate(621.4 -17)"/><path class="cls-36" d="M-377.7,483.75a1.56,1.56,0,0,1,.67-1.83,1.5,1.5,0,0,1,.17,1.39Z" transform="translate(621.4 -17)"/><path class="cls-37" d="M-270.33,477.66c-.51-.39-.47-.85-.2-1.56l.81,1Z" transform="translate(621.4 -17)"/><path class="cls-38" d="M-482.43,404.16a1,1,0,0,1-.85-1.1c.8,0,.88.49.87,1.08Z" transform="translate(621.4 -17)"/><path class="cls-39" d="M-180.72,408.43l.2-.36c.3.35-.07.28-.21.35Z" transform="translate(621.4 -17)"/><path class="cls-40" d="M-166,421.25l.57,0-.61.48,0,0A.59.59,0,0,1-166,421.25Z" transform="translate(621.4 -17)"/><path class="cls-41" d="M-506.55,418.84l-.38-.2c.35-.35.29.06.37.2Z" transform="translate(621.4 -17)"/><path class="cls-42" d="M-362.11,437.78l-4.55,9.11c-.08-.58-.21-.85-.14-1.05a45.22,45.22,0,0,1,4.18-8.53Z" transform="translate(621.4 -17)"/><path class="cls-43" d="M-364.91,451.1c.16-.7.63-1,1.53-1l1.41,1.36a2.66,2.66,0,0,1-2.52,1C-364.53,452-364.22,451.38-364.91,451.1Z" transform="translate(621.4 -17)"/><path class="cls-44" d="M-365.92,454.87a3.47,3.47,0,0,1-1.77-3.89,19,19,0,0,0,1,2.22,15.22,15.22,0,0,0,1.34,1.63Z" transform="translate(621.4 -17)"/><path class="cls-45" d="M-365.92,454.87l.56,0a1,1,0,0,1,1.17.77A2.37,2.37,0,0,1-365.92,454.87Z" transform="translate(621.4 -17)"/><path class="cls-46" d="M-364.91,451.1c.68.28.38.87.41,1.35C-365.26,452.19-364.94,451.6-364.91,451.1Z" transform="translate(621.4 -17)"/><path class="cls-47" d="M-362.11,437.78l-.51-.47a2.09,2.09,0,0,0,0-.45,3.09,3.09,0,0,1,.47,0h0Z" transform="translate(621.4 -17)"/><path class="cls-48" d="M-362.11,436.84a3.09,3.09,0,0,0-.47,0l.43-.5Z" transform="translate(621.4 -17)"/><path class="cls-49" d="M-356.77,450.59l.33-.51Z" transform="translate(621.4 -17)"/><path class="cls-50" d="M-361.67,435.42l-.43.49Z" transform="translate(621.4 -17)"/><path class="cls-51" d="M-312.84,452.45c-.93.26-1.59-.29-2.34-.78a2.09,2.09,0,0,1,1.34-1.56,1.25,1.25,0,0,1,1.43,1C-313.11,451.37-312.8,452-312.84,452.45Z" transform="translate(621.4 -17)"/><path class="cls-52" d="M-309.59,451.35V453c-1.3,1.82-1.38,1.89-2.8,2.18C-311.25,454-310,453-309.59,451.35Z" transform="translate(621.4 -17)"/><path class="cls-53" d="M-311,445.37l1.16,1.66c-.35.23-.61.42-.88.56-.11.06-.28,0-.5,0a9.93,9.93,0,0,0,.21-1.05c0-.39,0-.78,0-1.18Z" transform="translate(621.4 -17)"/><path class="cls-54" d="M-312.86,441.58a2.26,2.26,0,0,1-.95-1.88v-.51a2.53,2.53,0,0,1,.94,2.37Z" transform="translate(621.4 -17)"/><path class="cls-55" d="M-311,445.36c-1-.31-1-1.07-.95-1.89h0a2.27,2.27,0,0,1,.94,1.9Z" transform="translate(621.4 -17)"/><path class="cls-56" d="M-313.79,439.2v.51a2.32,2.32,0,0,1-.94-1.91h0A1.31,1.31,0,0,1-313.79,439.2Z" transform="translate(621.4 -17)"/><path class="cls-57" d="M-312.84,452.45c0-.49-.27-1.08.42-1.36C-312.41,451.59-312.06,452.19-312.84,452.45Z" transform="translate(621.4 -17)"/><path class="cls-58" d="M-315.22,436.84c.54.13.47.56.47.95h0c-.53-.13-.48-.55-.48-.95Z" transform="translate(621.4 -17)"/><path class="cls-59" d="M-312.85,441.57c.54.13.47.56.47,1h0c-.53-.13-.47-.55-.48-.94Z" transform="translate(621.4 -17)"/><path class="cls-60" d="M-312.38,442.52c.54.13.46.56.47.95h0c-.53-.13-.47-.56-.47-.95Z" transform="translate(621.4 -17)"/><path class="cls-61" d="M-479.09,204.3l.46.46-2.38,3.29-.45,0A11.78,11.78,0,0,1-479.09,204.3Z" transform="translate(621.4 -17)"/><path class="cls-62" d="M-190.15,204.74l.44-.45,2.35,3.33-.43.42Z" transform="translate(621.4 -17)"/><path class="cls-63" d="M-503.28,191a8.17,8.17,0,0,1-2.81,2.87l0,0c.07-.3.06-.67.24-.87.62-.69,1.32-1.32,2-2Z" transform="translate(621.4 -17)"/><path class="cls-64" d="M-163.2,193.41a5.46,5.46,0,0,1-2.41-2.64l0-.67c.71.82,1.44,1.61,2.11,2.46a2.42,2.42,0,0,1,.25.86Z" transform="translate(621.4 -17)"/><path class="cls-65" d="M-494.25,188.66l.44.46a7.5,7.5,0,0,1-2.26,2.46l-.15-.14A7.3,7.3,0,0,1-494.25,188.66Z" transform="translate(621.4 -17)"/><path class="cls-66" d="M-165.56,190.1l0,.67-2.27-2.59.44-.48Z" transform="translate(621.4 -17)"/><path class="cls-67" d="M-501.36,187.71l.42.45a6.3,6.3,0,0,1-2.28,2.42l0,0c0-.23,0-.51.13-.67C-502.56,189.14-502,188.43-501.36,187.71Z" transform="translate(621.4 -17)"/><path class="cls-68" d="M-184,199.54l.42-.44a9.16,9.16,0,0,1,2,2.83h-.6Z" transform="translate(621.4 -17)"/><path class="cls-69" d="M-178.33,193.37a9.66,9.66,0,0,1,2,2.87h-.57l-1.88-2.37Z" transform="translate(621.4 -17)"/><path class="cls-70" d="M-490,193.86l-1.87,2.37-.54,0a8.49,8.49,0,0,1,2-2.87Z" transform="translate(621.4 -17)"/><path class="cls-71" d="M-172.72,191.75l.06-.72c.56.67,1.15,1.32,1.68,2a2.29,2.29,0,0,1,.21.83h0A4,4,0,0,1-172.72,191.75Z" transform="translate(621.4 -17)"/><path class="cls-72" d="M-486.66,201l0,.64c-.17,1-1,1.45-1.69,2.19C-488.29,202.93-488.29,202.93-486.66,201Z" transform="translate(621.4 -17)"/><path class="cls-73" d="M-182.12,201.93h.6c.65.48,1.29,1,1.27,1.91h0A4.34,4.34,0,0,1-182.12,201.93Z" transform="translate(621.4 -17)"/><path class="cls-74" d="M-176.9,196.23h.57a2.78,2.78,0,0,1,1.26,1.55C-175.91,197.55-175.91,197.55-176.9,196.23Z" transform="translate(621.4 -17)"/><path class="cls-75" d="M-492.44,196.26l.54,0c-.29.83-1,1.25-1.69,1.9C-493.43,197.11-493.43,197.12-492.44,196.26Z" transform="translate(621.4 -17)"/><path class="cls-76" d="M-170.24,194.36c.69.27,1,.88,1.51,1.53-1-.2-1-.2-2-1.56Z" transform="translate(621.4 -17)"/><path class="cls-77" d="M-496.17,192a4.38,4.38,0,0,1-1.86,1.91h0c-.05-.95.62-1.42,1.26-1.91Z" transform="translate(621.4 -17)"/><path class="cls-78" d="M-187.79,208l.43-.42a2.19,2.19,0,0,1,.94,1.9h0A2.4,2.4,0,0,1-187.79,208Z" transform="translate(621.4 -17)"/><path class="cls-79" d="M-430.27,136.17c-.53.7-1.25.44-1.93.4h0a1.12,1.12,0,0,1,1-.92C-431.12,136.23-430.61,136-430.27,136.17Z" transform="translate(621.4 -17)"/><path class="cls-80" d="M-481.47,208.1l.45,0-1.16,1.6C-482.46,208.64-482,208.33-481.47,208.1Z" transform="translate(621.4 -17)"/><path class="cls-81" d="M-498,193.89l-.22.38c-.32-.36,0-.32.22-.37Z" transform="translate(621.4 -17)"/><path class="cls-82" d="M-180.25,203.83l.38.22c-.37.35-.3-.05-.38-.22Z" transform="translate(621.4 -17)"/><path class="cls-83" d="M-170.24,194.36l-.51,0a1.08,1.08,0,0,1,0-.44h0Z" transform="translate(621.4 -17)"/><path class="cls-84" d="M-506.09,193.88l-.2.36c-.3-.35.08-.27.21-.34Z" transform="translate(621.4 -17)"/><path class="cls-85" d="M-163.21,193.42l.38.21c-.37.35-.3-.06-.37-.22Z" transform="translate(621.4 -17)"/><path class="cls-86" d="M-496.17,192h-.6l.55-.54.15.14A.68.68,0,0,1-496.17,192Z" transform="translate(621.4 -17)"/><path class="cls-87" d="M-503.28,191l-.57,0,.6-.5,0,0A.7.7,0,0,1-503.28,191Z" transform="translate(621.4 -17)"/><path class="cls-88" d="M-186.41,209.52l.35.2c-.34.31-.26-.09-.34-.2Z" transform="translate(621.4 -17)"/><path class="cls-89" d="M-79.78,294.74a31.47,31.47,0,0,0-2.47-8.84,35.73,35.73,0,0,0-10.41-14.14c-1-.83-2.11-1.61-3.15-2.4,0-4.07,0-8,0-12a13,13,0,0,0-.22-1.63h-2.5c-2.68,0-5.37,0-8.05,0a10,10,0,0,1-1.34-.19,13.26,13.26,0,0,1-.18-3.41c0-1.1,0-2.21,0-3.31a18,18,0,0,0-.13-3.35c-.51,0-.89,0-1.27,0l-451.75,0c-.13,0-.26.14-.56.3-.07,1.54,0,3.18,0,4.82a50,50,0,0,1-.11,5.09c-1.35.1-2.6,0-3.85.05s-2.68,0-4,0a32.55,32.55,0,0,0-3.84.1c0,.73-.1,1.34-.11,2,0,3.39,0,6.79,0,10.18,0,.54-.08,1.08-.11,1.53-4.48,3.28-6.36,5-8.81,8.35A38.78,38.78,0,0,0-590,296.12q0,.27,0,.55a8.61,8.61,0,0,1-.1,1.07,8.61,8.61,0,0,0,.1-1.07q0-.27,0-.55c-.14.25-.27.51-.42.76s-.29.49-.44.73V308.5l.9,1a45.28,45.28,0,0,0,3.42,10.77,34.42,34.42,0,0,0,9.06,12c1.16.94,2.36,1.83,3.63,2.82.19,4.47-.07,9,.14,13.68,1.38.13,2.63.06,3.88.07s2.68,0,4,0a31,31,0,0,1,3.88.09c0,.63.07,1.16.07,1.7,0,2.37,0,4.74,0,7.1a9.29,9.29,0,0,0,.26,1.46h449.65c.79,0,1.58,0,2.37,0a14.72,14.72,0,0,0,1.46-.21c0-1.75,0-3.4,0-5.05a20.62,20.62,0,0,1,.23-5c.67,0,1.29-.08,1.91-.08,2.92,0,5.84,0,8.76,0a9.64,9.64,0,0,0,1.39-.21c0-2.32,0-4.53,0-6.73s-.12-4.56.11-6.76a6.18,6.18,0,0,1,.61-.54,33.72,33.72,0,0,0,11.45-13,35.53,35.53,0,0,0,3.86-11.59l.41,0V294.76Zm-473.58,7.62a7,7,0,0,1-7.16,6.94,6.84,6.84,0,0,1-6.8-7,6.94,6.94,0,0,1,7-7A7,7,0,0,1-553.36,302.36Zm65,22.89a31.57,31.57,0,0,1-.87,4.39c-2.11,6.81-6.73,11.05-13.57,12.89a26.94,26.94,0,0,1-6.77.93c-5.6,0-11.21,0-16.81,0-.31,0-.62-.06-1-.1a33.87,33.87,0,0,1,.06-9.14,11.84,11.84,0,0,1,2.79-.12c.86,0,1.72,0,2.69,0a14.42,14.42,0,0,0,.16-1.47q0-27.58,0-55.16c0-.53-.06-1.07-.1-1.67-1.89-.33-3.71,0-5.5-.24-.66-1-.29-2-.35-3a30.08,30.08,0,0,1,0-3.08c0-1-.25-2.05.32-3.08.53,0,1.08-.08,1.62-.08,5.21,0,10.42,0,15.63,0a24.25,24.25,0,0,1,7,1c6.5,1.92,10.72,6.12,12.43,12.7a23.29,23.29,0,0,1-.23,13.06,18,18,0,0,1-1.91,4,10.93,10.93,0,0,1-6.24,4.78l-2.28.66c.56.21.92.36,1.3.47,5.24,1.58,8.58,5.18,10.46,10.15A23.4,23.4,0,0,1-488.38,325.25Zm47.11-4.21A50.14,50.14,0,0,1-444.05,333a24,24,0,0,1-3.74,6.8,12.73,12.73,0,0,1-9.8,4.9,13.32,13.32,0,0,1-12.34-6.46,29.38,29.38,0,0,1-3.89-9.57,73.54,73.54,0,0,1-2-14.48c-.09-2.68-.32-5.35-.31-8a119.45,119.45,0,0,1,1.36-19.3,45.12,45.12,0,0,1,3.8-12.6,19.24,19.24,0,0,1,4.48-6,12.39,12.39,0,0,1,14.7-1.39,15,15,0,0,1,4.52,4.43,31.41,31.41,0,0,1,4.58,10.8,73.63,73.63,0,0,1,2,14c.14,3.07.3,6.13.46,9.2A144.72,144.72,0,0,1-441.27,321Zm55.88,22.23c-1.34.44-2.76.15-4.15.2s-2.84,0-4.26,0h-4.32c-1.31-3.9-2.15-7.82-3.25-11.67s-2.15-7.89-3.21-11.84-2-7.75-3.11-11.78l-4.11.36a6.89,6.89,0,0,0-.17,1.08q0,11.72,0,23.44c0,.24,0,.47.06.83a9.33,9.33,0,0,0,1.31.21c1.34,0,2.67,0,4.08,0,.52,1.53.19,3,.25,4.49s0,3,0,4.58a5.73,5.73,0,0,1-1.19.28q-10.54,0-21.07,0a4,4,0,0,1-.78-.18c-.17-3-.08-5.94-.07-9,2.14-.36,4.19,0,6.32-.25a10.36,10.36,0,0,0,.18-1.35q0-27.58,0-55.16c0-.54-.08-1.07-.12-1.67-2.1-.37-4.15,0-6.27-.26-.27-3.06,0-6-.14-9.11.62-.06,1.06-.13,1.51-.13h18.23A22.51,22.51,0,0,1-400.9,268a18.26,18.26,0,0,1,11.33,13.84,26.9,26.9,0,0,1,0,11,19.09,19.09,0,0,1-7.21,11.59l-1.4,1.06,8.26,28.4c1.4.53,2.93,0,4.34.31A40.35,40.35,0,0,1-385.39,343.28Zm44.53-32.59a79.7,79.7,0,0,1-2.32,18.25,29.41,29.41,0,0,1-4.3,9.91,12.56,12.56,0,0,1-7.52,5.4c-5.65,1.23-10.54,0-14.25-4.56a26,26,0,0,1-4.64-9.75,71,71,0,0,1-2.06-12.09c-.41-4.17-.4-8.35-.5-12.87.05-2.41,0-5.18.19-7.94a70.73,70.73,0,0,1,3.26-18.8,25.94,25.94,0,0,1,4.42-8.3,12.75,12.75,0,0,1,8.89-4.86A12.24,12.24,0,0,1-349,269.51,27.05,27.05,0,0,1-343.65,280a73.86,73.86,0,0,1,2.47,14.41A144.4,144.4,0,0,1-340.85,310.68Zm52,1.29A58.48,58.48,0,0,1-291,325.7a33.84,33.84,0,0,1-3,7.19,19.84,19.84,0,0,1-15.29,10.26,42.66,42.66,0,0,1-5.89.34h-10.65c-.53,0-1.07-.05-1.71-.09-.25-3.08-.06-6-.13-9.09,1.83-.4,3.58,0,5.4-.28a22,22,0,0,0,.1-3.55c0-1.26,0-2.52,0-3.79s0-2.37,0-3.55V283.38q0-1.89,0-3.79v-3.65a9.43,9.43,0,0,0-1.39-.25c-1.25,0-2.5,0-3.75,0-.15-.32-.33-.52-.33-.72,0-2.76,0-5.52,0-8.38a5.71,5.71,0,0,1,1.12-.24c4.65,0,9.31,0,14,0a24.35,24.35,0,0,1,7.2,1.16A19.1,19.1,0,0,1-293.84,277a38.57,38.57,0,0,1,3.72,10.9A96.25,96.25,0,0,1-288.83,312Zm51.35,31.25a1,1,0,0,1-.17.15.5.5,0,0,1-.23.07l-18.46,0c-.39,0-.79,0-1.18-.07-.06,0-.12-.1-.32-.29-.12-2.82-.11-5.78,0-8.85,1.54-.31,3,0,4.34-.19a2.06,2.06,0,0,0,.32-.28.41.41,0,0,0,0-.22c0-.71,0-1.42-.11-2.13q-.74-7.05-1.52-14.1a1.36,1.36,0,0,0-.18-.43,2.24,2.24,0,0,0-.2-.27h-8.74a30,30,0,0,0-.79,5.8c-.2,1.88-.53,3.75-.68,5.63s-.45,3.86-.64,6l4.75.12c.22,3.1.08,6.07.11,9.12a46.19,46.19,0,0,1-6.7.17c-2.29,0-4.58,0-6.87,0h-6.66a7.1,7.1,0,0,1-.28-3.07c0-1,0-2.05,0-3.08a23.61,23.61,0,0,1,.09-3.14c1.57-.18,3.06,0,4.66-.16,2.88-19.39,5.64-38.7,8.47-58.17-1.82-.44-3.5.09-5.09-.38a4,4,0,0,1-.16-.75c0-2.68,0-5.36,0-8.15a5.51,5.51,0,0,1,1.12-.25q13.14,0,26.28,0a6.88,6.88,0,0,1,.86.1,40.66,40.66,0,0,1,0,9.08c-1.55.41-3.23-.05-5,.31.2,3.31.84,6.45,1.28,9.62s.94,6.55,1.41,9.82.89,6.4,1.35,9.59.94,6.39,1.41,9.58.92,6.55,1.4,9.82,1,6.37,1.47,9.66c1.51.47,3.11-.06,4.58.34A34.9,34.9,0,0,1-237.48,343.22Zm43.4-22.25a51.11,51.11,0,0,1-1.37,9.57,25.08,25.08,0,0,1-3.78,8.35,12.59,12.59,0,0,1-7.3,5.31c-5.75,1.36-11-.19-14.5-4.51a24.7,24.7,0,0,1-4.14-7.92,64.57,64.57,0,0,1-2.51-12.48,119.61,119.61,0,0,1-.65-12,134.25,134.25,0,0,1,.56-14.88c.27-3,.58-6,1.13-8.9a39,39,0,0,1,3.29-10.56,22.93,22.93,0,0,1,2.09-3.42,10.57,10.57,0,0,1,7.07-4.33,9.13,9.13,0,0,1,8.22,2.61,11.72,11.72,0,0,0,1.94,2l.11-3.39h8.56c.14,0,.27.14.41.21.25,2,.25,22.59,0,24.53a39.1,39.1,0,0,1-8.83.16A9.91,9.91,0,0,1-204,290a39.28,39.28,0,0,0-.87-7.5,21.44,21.44,0,0,0-1.06-3.37,6.2,6.2,0,0,0-3.79-3.78h-2.56a4.62,4.62,0,0,0-2.84,3.47,21.38,21.38,0,0,0-.59,3c-.22,2.27-.48,4.56-.49,6.84-.07,8.76-.1,17.52,0,26.28,0,3.39.26,6.78.54,10.16a27.78,27.78,0,0,0,.91,4.87,8.52,8.52,0,0,0,1.31,2.75,4.16,4.16,0,0,0,6.87.14,9.38,9.38,0,0,0,1.62-3.11,31.07,31.07,0,0,0,1-5.33c.25-2.43.29-4.88.43-7.32a10.24,10.24,0,0,1,.18-1l9.08,2.51A3.87,3.87,0,0,1-194.08,321Zm56.33,22.09a2.67,2.67,0,0,1-.29.3.42.42,0,0,1-.21.07l-19.17,0c-.14,0-.28-.11-.58-.24-.23-2.89-.07-5.85-.1-8.78,1.12-.66,2.3,0,3.29-.5.3-2.12.3-24.58,0-26.79-3.42-.16-6.86,0-10.21-.09l-.24.32c0,.06-.11.13-.11.2q0,12.54,0,25.09c0,.38,0,.76,0,1.11,1.14.67,2.3.07,3.33.46a32.82,32.82,0,0,1,.09,9c-1.87.25-16.67.32-19.9.08-.46-.92-.19-2-.23-2.95s0-2.05,0-3.08,0-2,.06-3.17l5.32-.09c.24-.18.32-.22.36-.28a.43.43,0,0,0,.05-.22q0-28.28,0-56.57a7.52,7.52,0,0,0-.08-.94c0-.06-.11-.11-.34-.33l-5.3-.13c-.24-3.07-.1-6-.08-9.2h20.22c.25,3,.07,6,.11,8.94-1.12.67-2.29,0-3.46.53a5,5,0,0,0-.19,1q0,9.82,0,19.65a7.29,7.29,0,0,0,.1.88,57.69,57.69,0,0,0,10.52.14,3.71,3.71,0,0,0,.18-.82q0-10.06,0-20.12a5.19,5.19,0,0,0-.15-.82c-1-.23-2,0-3.09-.18a3.48,3.48,0,0,1-.24-.86c0-2.68,0-5.36,0-8.15a5.22,5.22,0,0,1,1.1-.25q9.23,0,18.46,0a4.26,4.26,0,0,1,.6.1,5.15,5.15,0,0,1,.21,1c0,2.6,0,5.2,0,7.9a8.34,8.34,0,0,1-1.41.29c-1.41,0-2.83,0-4.19,0-.65.9-.37,1.8-.37,2.63q0,22,0,44,0,5,0,9.94c0,.53,0,1.07,0,1.68,2,.4,3.88,0,5.85.29C-137.62,337.27-137.72,340.23-137.75,343.06Zm41.43-40.59a6.32,6.32,0,0,1-6.48,6.13,6.2,6.2,0,0,1-6.28-6.34,6.22,6.22,0,0,1,6.49-6.41A6.32,6.32,0,0,1-96.32,302.46Z" transform="translate(621.4 -17)"/><path class="cls-90" d="M-111.34,366.23H-556.93c-.71,0-1.42,0-2.13,0a10.36,10.36,0,0,0-1.27.21v2.83c.16.14.22.23.28.23a11.3,11.3,0,0,0,1.17.09l447.23,0a.42.42,0,0,0,.21-.07,3,3,0,0,0,.31-.31A10,10,0,0,0-111.34,366.23Z" transform="translate(621.4 -17)"/><path class="cls-91" d="M-114.43,240.26c.63,0,1.26,0,1.89,0,.45,0,.89-.12,1.48-.21-.2-1.1.19-2.12-.36-3.19H-559.59a2.93,2.93,0,0,0-.74.23v3.11c1.06,0,2,.06,2.92.06Z" transform="translate(621.4 -17)"/><path class="cls-92" d="M-401.48,280.67a6.37,6.37,0,0,0-2.82-3.38,12.35,12.35,0,0,0-7.31-1.5c-.2.19-.3.24-.31.3a7.93,7.93,0,0,0-.07.94q0,10.75,0,21.51a.43.43,0,0,0,.05.22,2.36,2.36,0,0,0,.35.3c.28,0,.74,0,1.19,0a13.06,13.06,0,0,0,1.65-.12c4.59-.78,6.85-3,7.89-7.57a22,22,0,0,0,.14-7.75A13.09,13.09,0,0,0-401.48,280.67Z" transform="translate(621.4 -17)"/><path class="cls-93" d="M-501.38,311.84a7.31,7.31,0,0,0-5.19-3.72c-1.3-.2-2.63-.23-4.11-.35a8,8,0,0,0-.16,1q0,12.39,0,24.79a.47.47,0,0,0,.05.22,2.23,2.23,0,0,0,.26.29,13.34,13.34,0,0,0,2,0c4.46-.64,7.05-2.42,8.38-6.78.09-.3.15-.61.22-.91a26.25,26.25,0,0,0,.37-8.22A14,14,0,0,0-501.38,311.84Z" transform="translate(621.4 -17)"/><path class="cls-94" d="M-510.59,298.58c1.59-.21,3.09-.31,4.53-.63a4.79,4.79,0,0,0,3.34-2.43,14,14,0,0,0,1.28-3,23.64,23.64,0,0,0,.42-8,23.24,23.24,0,0,0-.9-4.38,5.48,5.48,0,0,0-3.43-3.67,11,11,0,0,0-5.37-.65,7.65,7.65,0,0,0-.13,1q0,10.29,0,20.58A6.82,6.82,0,0,0-510.59,298.58Z" transform="translate(621.4 -17)"/><path class="cls-95" d="M-256.91,293.4c-.22-2.27-.37-4.55-.59-6.82s-.49-4.54-.72-6.81A46.81,46.81,0,0,0-259,273l-1,.12c-.2,1.77-.42,3.47-.58,5.19-.38,4.08-.73,8.16-1.1,12.23-.18,2-.38,4.08-.57,6.11-.3,3.13-.6,6.27-.89,9.4a6.51,6.51,0,0,0,.11,1.15h7.52c-.22-2.45-.4-4.7-.62-7S-256.7,295.67-256.91,293.4Z" transform="translate(621.4 -17)"/><path class="cls-96" d="M-301.55,287.61a25.3,25.3,0,0,0-1.89-7,8.34,8.34,0,0,0-2.2-3,6.45,6.45,0,0,0-5.42-1.69,3.25,3.25,0,0,0-.19.73c0,19.08,0,38.15,0,57.51a12.29,12.29,0,0,0,1.9-.11,8.22,8.22,0,0,0,5.54-4.06,21.23,21.23,0,0,0,2.29-7.4,88.25,88.25,0,0,0,1-13.19c0-2.68,0-5.36,0-8A109.86,109.86,0,0,0-301.55,287.61Z" transform="translate(621.4 -17)"/><path class="cls-97" d="M-453.13,283.46a22.69,22.69,0,0,0-.94-4.37,5.5,5.5,0,0,0-3-3.73h-2.18a4.63,4.63,0,0,0-2.79,3,16.26,16.26,0,0,0-.95,3.39c-.39,3.28-.81,6.57-.92,9.86-.21,6.45-.41,12.91-.2,19.37.09,2.84,0,5.68.21,8.51.19,3,.52,6,.94,8.91a9.13,9.13,0,0,0,1.94,4.75c1.74,2,4.2,1.91,5.79-.27a9.87,9.87,0,0,0,1.66-4.37,66.33,66.33,0,0,0,.9-7.73c.23-6.22.35-12.44.39-18.66,0-3.54-.15-7.09-.31-10.63C-452.69,288.8-452.85,286.12-453.13,283.46Z" transform="translate(621.4 -17)"/><path class="cls-98" d="M-353.69,282.27a25.07,25.07,0,0,0-.87-3.43,5.48,5.48,0,0,0-2.88-3.48h-2.28a5.3,5.3,0,0,0-2.82,3.26,17.73,17.73,0,0,0-.94,3.65c-.38,3.37-.79,6.74-.87,10.12a301.59,301.59,0,0,0,.38,31.47,27.18,27.18,0,0,0,1.16,6.49,9.42,9.42,0,0,0,1.23,2.53,3.49,3.49,0,0,0,6.08-.17,7.32,7.32,0,0,0,.92-1.91,24.23,24.23,0,0,0,1-4.13c.37-3.53.74-7.06.84-10.6.28-9.78.24-19.57-.4-29.34C-353.28,285.24-353.44,283.74-353.69,282.27Z" transform="translate(621.4 -17)"/><path class="cls-99" d="M-409.46,482c1-2.95,1.88-5.83,3-8.66a11.43,11.43,0,0,1,3,.91,4.37,4.37,0,0,1,3.27,4.07c-.34,1.83-.59,3.91-3,4.85C-405.31,483.71-407.31,482.8-409.46,482Z" transform="translate(621.4 -17)"/><path class="cls-100" d="M-419.73,471.72c-.27,1.3-.45,2.63-.82,3.9a27.33,27.33,0,0,1-2.66,6.27,15.9,15.9,0,0,1-1.33,1.94c-3.48,4.35-7.88,2.83-10.54.48a5.85,5.85,0,0,1-1.72-5.84,24.57,24.57,0,0,1,5-10.56,7.54,7.54,0,0,1,3.74-2.75,6.53,6.53,0,0,1,8.19,5.57c0,.31,0,.63,0,.94Z" transform="translate(621.4 -17)"/><path class="cls-101" d="M-293.17,487.2c.21-1.31.32-2.65.65-3.93a5.23,5.23,0,0,1,3.89-3.77,6,6,0,0,1,7.51,2.83,23,23,0,0,1,2.84,7.71,16.87,16.87,0,0,1,.44,4.93,6.91,6.91,0,0,1-8.64,6.12,5.83,5.83,0,0,1-3.56-2.57,13,13,0,0,1-1.37-2.74A32,32,0,0,1-293.17,487.2Z" transform="translate(621.4 -17)"/><path class="cls-102" d="M-432.56,149.67c-1.22-1.44-2.63-4-5-9a6.7,6.7,0,0,1,1-.81c.9-.49,1.83-.91,2.75-1.35a4.22,4.22,0,0,1,.88-.34c3.45-.76,5.3-.05,6.75,3.4a10.91,10.91,0,0,1,.44,1.68,5.12,5.12,0,0,1-3,4.41C-430,148.33-431.28,149-432.56,149.67Z" transform="translate(621.4 -17)"/><path class="cls-103" d="M-442.32,131.38c2.33-1.21,4.38-2.91,7.26-2.34,1.84,1,2.4,2.75,2.7,4.61a4.52,4.52,0,0,1-2.62,3.72c-1,.57-2.07,1.11-3.22,1.72a6.34,6.34,0,0,1-.71-.89c-1-1.94-2-3.89-3.05-5.84A9.35,9.35,0,0,1-442.32,131.38Z" transform="translate(621.4 -17)"/><path class="cls-104" d="M-432.21,136.57l-.18.34c-.31-.34.1-.24.2-.33Z" transform="translate(621.4 -17)"/><path class="cls-105" d="M-372.53,118.37c1.47-.24,2.69-.53,3.93-.62a11.59,11.59,0,0,1,2.79.2,4.06,4.06,0,0,1,3.25,3,8.05,8.05,0,0,1,.26.9c.67,3.29-.66,5.21-3.64,6.08a19.37,19.37,0,0,1-2.54.49c-.69.1-1.39.14-2.21.22a7.5,7.5,0,0,1-.38-1.09q-.69-3.81-1.34-7.64C-372.48,119.51-372.48,119-372.53,118.37Z" transform="translate(621.4 -17)"/><path class="cls-106" d="M-374.39,108.39a23.78,23.78,0,0,1,5.1-.72c2.13.07,3.12.83,3.65,2.93a6.46,6.46,0,0,1,.19,1.39,3.81,3.81,0,0,1-3,4.18c-1.35.36-2.75.51-4.21.78C-373.59,114.11-373.77,111.3-374.39,108.39Z" transform="translate(621.4 -17)"/><path class="cls-107" d="M-389.21,119.22c-1.3,2.52-3.91,2.77-6.43,3.46a8.68,8.68,0,0,1-.55-1.19c-.58-1.95-1.13-3.9-1.68-5.86-.14-.52-.23-1-.36-1.65,1.48-1,3.15-1,4.82-1.4l1.91.37C-389.46,114.14-388.79,116-389.21,119.22Z" transform="translate(621.4 -17)"/><path class="cls-108" d="M-328.21,105.29a9.69,9.69,0,0,1,2.75,0,8.56,8.56,0,0,1,1.88.19,3.79,3.79,0,0,1,3.17,4.1,9.47,9.47,0,0,1-.06,1.42,3.79,3.79,0,0,1-3.4,3.4,25.21,25.21,0,0,1-4.42,0A38.16,38.16,0,0,1-328.21,105.29Z" transform="translate(621.4 -17)"/><path class="cls-109" d="M-263.27,134.34c.2-1.16.35-2.33.62-3.47a25.8,25.8,0,0,1,2.66-7,16.11,16.11,0,0,1,1.81-2.47,5.5,5.5,0,0,1,4.86-1.9c3.58.3,7.49,3,6.49,8.25a26.18,26.18,0,0,1-3.86,9.54,12.11,12.11,0,0,1-2,2.33,5.8,5.8,0,0,1-6.77,1,5.7,5.7,0,0,1-3.71-5.5c0-.24,0-.47,0-.71Z" transform="translate(621.4 -17)"/><path class="cls-110" d="M-416.53,132.68a101.6,101.6,0,0,1-1.06-11.05c1.26.89,3.23,3.33,7,8.59a3,3,0,0,1-.57.39C-412.88,131.27-414.57,131.92-416.53,132.68Z" transform="translate(621.4 -17)"/><path class="cls-111" d="M-232.36,129c1.46.79,2.71,1.42,3.92,2.13a4.6,4.6,0,0,1,2.55,3.59,7.25,7.25,0,0,1-1.29,3.63,4,4,0,0,1-5.13,1.67,15,15,0,0,1-4.41-2.25Z" transform="translate(621.4 -17)"/><path class="cls-112" d="M-364.1,437.73h0l0,0Z" transform="translate(621.4 -17)"/><path class="cls-113" d="M-363.59,436.81h0v0Z" transform="translate(621.4 -17)"/><polygon class="cls-114" points="255.97 423.15 255.97 423.15 255.97 423.15 255.97 423.15"/><polygon class="cls-115" points="264.95 433.08 264.95 433.08 264.95 433.08 264.95 433.08"/><path class="cls-116" d="M-308.83,447.79a34.12,34.12,0,0,0-4.05-9.78c-2.61-4.69-5.49-9.21-8.44-13.68-3.17-4.8-6.66-9.35-10.27-13.82l-.72.26c-.67,1-1.32,1.94-2,2.87s-1.58,1.95-2.37,2.93c.27.54.45,1,.7,1.37,5.84,9.56,10.67,19.65,15.47,29.75a24.12,24.12,0,0,0,3.73,6c.26.29.47.62.76,1l-.66.71a14.31,14.31,0,0,1-3.57-4.46c-.59-1-1.08-2.1-1.61-3.15-1.24-2.69-2.43-5.41-3.73-8.08-3.42-7-7-14-11.07-20.7-.22-.37-.3-.94-1-1l-.2.82c.91,1.36,1.92,2.66,2.7,4.09,2.1,3.85,4.17,7.71,6.13,11.63,2.09,4.2,4,8.48,6,12.72.23.48.48,1,.71,1.43a20,20,0,0,0,3.43,6.42,5.82,5.82,0,0,0,6.5,2.18c2.14-.53,4.59-2.92,4.19-5.78C-308.4,450.28-308.58,449-308.83,447.79Zm-2.13-2.42,1.16,1.66c-.35.23-.61.42-.88.56-.11.06-.28,0-.5,0a9.93,9.93,0,0,0,.21-1.05C-310.94,446.16-311,445.76-311,445.37Zm-4.27-8.53h0c.54.13.47.56.47.95a1.31,1.31,0,0,1,.95,1.41,2.53,2.53,0,0,1,.94,2.37c.54.13.47.56.47,1,.54.13.46.56.47.95a2.27,2.27,0,0,1,.94,1.89c-.95-.31-1-1.07-.95-1.89-.53-.13-.47-.56-.47-.95-.53-.13-.47-.55-.48-.94a2.26,2.26,0,0,1-.95-1.88,2.32,2.32,0,0,1-.94-1.91C-315.28,437.67-315.23,437.24-315.23,436.85Zm2.39,15.61c-.93.26-1.59-.29-2.34-.78a2.09,2.09,0,0,1,1.34-1.56,1.25,1.25,0,0,1,1.43,1C-312.41,451.59-312.06,452.19-312.84,452.45Zm3.25.51c-1.3,1.82-1.38,1.89-2.8,2.18,1.14-1.18,2.34-2.19,2.8-3.79Z" transform="translate(621.4 -17)"/><path class="cls-117" d="M-419,408.38a4.53,4.53,0,0,0-6.63,2.29,7.07,7.07,0,0,0,0,5.08,4,4,0,0,0,3.55,2.7c2.51.23,3.75-.58,4.88-3.26l-1.3-.19-1.77,1.9h-2.11a3.15,3.15,0,0,1-1.74-3.07c.43,0,.82-.12,1.2-.12,1.5,0,3,0,4.49,0a9.11,9.11,0,0,0,1.3-.2,13.18,13.18,0,0,0,0-2A4,4,0,0,0-419,408.38Zm-4.66,3.86c-.13,0-.25-.16-.43-.28a3.39,3.39,0,0,1,1.73-2.55h2a3,3,0,0,1,1.63,2.84C-420.52,412.25-422.08,412.26-423.65,412.24Z" transform="translate(621.4 -17)"/><path class="cls-118" d="M-407.64,412.49c-.6-.17-1.23-.26-1.82-.48s-1.43-.27-1.86-1.24l.38-1.17a3.15,3.15,0,0,1,3.34.07l.76,1.09h1.13c-.08-1.42-.21-1.83-.91-2.29-1.43-.94-3-.87-4.75-.33l-1.41,1.43v2.28a3.67,3.67,0,0,0,2.41,1.74c.67.22,1.39.3,2,.55A5.61,5.61,0,0,1-407,415c.15.12.17.42.27.72l-.95,1.17a5.27,5.27,0,0,1-3.2-.14L-412,415l-1.21.11a3,3,0,0,0,2.18,3.11,5.84,5.84,0,0,0,3.5.07,3,3,0,0,0,2.32-2.68,8.53,8.53,0,0,0-.09-1.63A3.91,3.91,0,0,0-407.64,412.49Z" transform="translate(621.4 -17)"/><path class="cls-119" d="M-269.44,407h-2.11a4.43,4.43,0,0,0-2.54,3.55,11.25,11.25,0,0,0,0,4.2,4.51,4.51,0,0,0,2.44,3.59h2.23a4.39,4.39,0,0,0,2.5-3.79,22.86,22.86,0,0,0,0-4A3.85,3.85,0,0,0-269.44,407Zm.73,8.58a2,2,0,0,1-1.62,1.55,1.84,1.84,0,0,1-2.06-1.51,10.85,10.85,0,0,1,.24-6.26,7.66,7.66,0,0,1,.67-1l2.11.1a6.86,6.86,0,0,1,.72,1.35A11,11,0,0,1-268.71,415.62Z" transform="translate(621.4 -17)"/><path class="cls-120" d="M-279.28,407.24a3.91,3.91,0,0,0-4.67,1.17,2.31,2.31,0,0,0-.34,2.47l.93,0c.47-.75.37-1.77,1.21-2.27a3.24,3.24,0,0,1,2.58.17l.69,1.32c-.53,1.84-.54,1.84-1.79,2.67a31.4,31.4,0,0,0-2.71,1.87,3.91,3.91,0,0,0-1.4,3.5,23.72,23.72,0,0,0,7.33-.11v-1c-.68,0-1.3-.07-1.91-.08s-1.26,0-1.89,0a3,3,0,0,1-1.87-.29,3.17,3.17,0,0,1,.5-.85c.61-.5,1.26-.93,1.9-1.38a23.53,23.53,0,0,0,2.3-1.63,3.54,3.54,0,0,0,1-1.57A3.29,3.29,0,0,0-279.28,407.24Z" transform="translate(621.4 -17)"/><path class="cls-121" d="M-253,411.14a3.23,3.23,0,0,1,.39-2.52l4.19-.17v-1.32a36.18,36.18,0,0,0-5.43.18c-.2,2-.93,3.83-.69,5.81a3.83,3.83,0,0,0,2.43-.81,2.33,2.33,0,0,1,2.68,1.24c.25,1.17.33,2.39-.84,3.3a2.72,2.72,0,0,1-2.79-.15l-1-1.31-1,.3a3,3,0,0,0,1.39,2.25,4.16,4.16,0,0,0,2.74.49c2.05-.19,2.93-1.27,3.35-4.11C-248.54,411.3-249.72,410.61-253,411.14Z" transform="translate(621.4 -17)"/><path class="cls-122" d="M-398.86,409.59l1.52-.39-.11-1c-.61-.37-1.2-.1-1.47-.66l-.15-2.18c-.58-.32-1-.39-1.47.09l-.12,2.21-1.15.49v1l1.14.38c.25,2.78-.19,5.45.26,8,1.33.88,1.33.89,2.84.58l.32-.87-1.67-.92A51.89,51.89,0,0,1-398.86,409.59Z" transform="translate(621.4 -17)"/><path class="cls-123" d="M-260.86,407l-1.25,1.72-1.92.56.08.87,2.28.3c.21,2.63-.1,5.14.2,7.71a7.22,7.22,0,0,0,1,.08c.13,0,.25-.16.37-.25a73.23,73.23,0,0,0,0-10.81Z" transform="translate(621.4 -17)"/><path class="cls-124" d="M-362.63,390.21l7.61,7.33,9.05,10.76.37,0v0l.47-.59,0-.61-2.7-2.92-6.7-7.19-7.1-7.1c-.4-.4-.83-.79-1.38-1.31l1.39-.15c1.11,1,2.26,2,3.32,3,4.54,4.47,8.95,9.07,13,14,.31.37.62.71,1.17.65l0,0,.42-.51h0l.43-.54,0,0,.58-.86v0l.42-.52h0l.45-.53,0,0,.46-.52,0,0,1.47-2.11L-340,400c-3.17-3.44-6.4-6.83-9.88-10,.17-.43.55-.47.93-.48a6.16,6.16,0,0,0,3-.84,4.51,4.51,0,0,0,2.89-1.46,3.06,3.06,0,0,0,1.81-1.36c.1-.64.29-1.27-.39-1.69a.76.76,0,0,0-1.17-.23,12.48,12.48,0,0,0-1.37,1.16,8.49,8.49,0,0,1-4.1,1.16l-.54.43-1.42-.15a5.36,5.36,0,0,1-2.68-.26,3.42,3.42,0,0,0-1.12-.09l-2.24-1.5a17.74,17.74,0,0,0-5.33-3.72c-1.5-1-3-1.75-5-1.31l-.68.83-.77,1.37h-1c-.76-.63-1.64-.4-2.49-.34h0l-5.64-.11v0c-.19-.12-.37-.34-.56-.35-2.19,0-4.39,0-6.58,0-4.57-.14-9.13-.3-13.7-.41q-15-.35-30-.65c-1.1,0-2.21-.07-3.31-.06-.61,0-1.28-.07-1.72.54a3.53,3.53,0,0,0-1.95,2.31c-.62.57-.41,1.3-.39,2h0a3.29,3.29,0,0,0-.39.85,17.23,17.23,0,0,1,0,2.25,8.92,8.92,0,0,0,0,2.57c0,.19.25.37.38.55l.5.46c.26.14.52.39.79.39,1.65,0,3.31,0,5,0h6.16l10.38.09h0c.26.14.51.39.77.4,2.12,0,4.25,0,6.37,0h17a3.84,3.84,0,0,0,0-.42h-10.44l0-.1-4.79.05a1.93,1.93,0,0,0,0-.43l-1.39-.06-6.18.07-11.81,0-1.84-.05-4.31.05a1.81,1.81,0,0,0,0,.21,1.81,1.81,0,0,1,0-.21l-5.26,0a.69.69,0,0,0,0-.45h3.36c1.32,0,2.65,0,4,0,.24,0,.48-.28.71-.43l-2.77-.05,1.28-.76c-.06-.56-.45-.55-.84-.61s-1.14.27-1.4-.48c.45-.1,1.08.29,1.28-.47l-1.81,0a1.34,1.34,0,0,0,0-.4l-3.69-.14,0,.57,0-.57v-2.2c.7,0,1.41,0,2.11-.05h5.4c.4,0,.78,0,.94-.5.47-.11,1.11.29,1.36-.47l-5.63,0a1.76,1.76,0,0,0,0-.41l-3.53,0a.66.66,0,0,1-.71-.47l10.41,0c-.15-.49-.55-.46-.94-.46l-6.8,0c-.45,0-.95.08-1.22-.43l1.83-.08,4.43.06c.33,0,.61-.06.68-.44l.09-.48-4.67,0c-.4,0-.78,0-1,.42-.48.13-1.14-.21-1.4.51l-.85,0,.88-1.27h0c.7-.06,1.41-.17,2.11-.16,2.91,0,5.82.13,8.72.2a15.81,15.81,0,0,1,5.26.18,8.44,8.44,0,0,0,1.37.12l13.72.08a5.68,5.68,0,0,1,.92.16,2.14,2.14,0,0,1,.68-.12c2.62.44,5.27.2,7.9.38h5.91l.37.89.35,0,.08-.51c.07-.37.35-.42.66-.44l1.58-.11.55.13,5.72-.06,4.66.11a.67.67,0,0,0,1,.21l3.29.39,1,1.21h0c0,.41-.07.85.48,1a2.2,2.2,0,0,0,1,1.87l.34.72a1.56,1.56,0,0,1-.53.2,66.65,66.65,0,0,1-9.45-.88,21.24,21.24,0,0,0-2.56-.12c.67-.75,1.66-.05,2.58-.65-.52-.1-.88-.19-1.24-.23s-.94-.05-1.41-.07l-5,.09c-.46,0-.93,0-1.23.41a.83.83,0,0,1-.33,0,2.09,2.09,0,0,1-.1-.38h0l.12-.46v0l.36,0c.12-.08.23-.18.35-.27l.18-.11-.18.11c-.12.09-.23.19-.35.27l6.2.05.26-.49-2.11-.11q-.05-.21-.12-.42l-1.34-1-.09-.49c-.27-.67-.91-.28-1.35-.47h-2.79l-.08.51-.35,0a1.68,1.68,0,0,0,0,.45c.74,1.06.39,2.24.26,3.34a16.71,16.71,0,0,1-.83,2.85l-1.87,2.4a3.84,3.84,0,0,1,0,.42,4.92,4.92,0,0,0,2.3-2.4l1.09-2.24.79-.59h4.42c1.7.17,3.4.24,5.11.47,3.46.47,7,.62,10.46.9Zm13.32,2.11h0l-.29-.28h0l.29.28Zm-1-3.27-.84-.12c.62-.78,1.38-.27,2.11-.08Zm1.46-2.05h0a8.72,8.72,0,0,0,1.11,0c.73-.11,1.46-.27,2.19-.4.18-.44.58-.4.95-.42l.53-.9.9-.05c.22-.7.78-.87,1.42-.91-.08.53.22,1.18-.43,1.55l-.28-.55-.71-.08a1.24,1.24,0,0,1-1.41,1l-.46.86-.49,0-.4.15a23.05,23.05,0,0,1-5.78.89,1.74,1.74,0,0,1-.39-.09l-.56-.38-.42-.51Zm-50.21,4.88q0,.1,0,.2,0-.1,0-.2Zm-35.51-2.41h0Zm1.82,0a1.2,1.2,0,0,1-1.72.06Zm-1.82-5a1.09,1.09,0,0,0,0,.23h0A1.09,1.09,0,0,1-434.57,384.5Zm77.21.72h0c.11,0,.23-.19.39-.46h0C-357.13,385-357.24,385.19-357.35,385.22Zm-3.77-2.39a2.35,2.35,0,0,1,.32-.35c.18-.14.29,0,.59.39h0c-.31-.4-.41-.53-.59-.39a2.35,2.35,0,0,0-.32.35c-.37-.25-.76-.47-1.15-.68C-361.89,382.36-361.5,382.58-361.13,382.83Zm-4.75,3.23a1.3,1.3,0,0,0-1-1.3c0-.39.09-.85-.47-1,0-.62.26-.9.88-.89h0l.49.45h0a13.92,13.92,0,0,0,3.36,4.23.64.64,0,0,1-.87.38,8.09,8.09,0,0,1-1-.4Z" transform="translate(621.4 -17)"/><path class="cls-125" d="M-241.4,387.86a12.59,12.59,0,0,1,0-2.25,3.15,3.15,0,0,0-.37-.86c0-.69.28-1.43-.37-2a3.81,3.81,0,0,0-2-2.32c-.68-.78-1.6-.55-2.43-.53-5.68.13-11.36.3-17,.44l-25.08.58-5.2.14-5.6-.06-1,.42-4.74.1-1-.14c-1.07,0-2.08.75-3,.42l-.8-1.33-.83-.86A5,5,0,0,0-314,380a16.32,16.32,0,0,0-4,2.39,8.74,8.74,0,0,0-3,2.25l.67.07a1.21,1.21,0,0,0,.33.44,1.21,1.21,0,0,1-.33-.44l-.67-.07-2.24,1.51a29.13,29.13,0,0,1-4.75.45c-1.71-.51-3.54-.61-5.11-1.56a11.65,11.65,0,0,0-1.37-1.16.75.75,0,0,0-1.17.26c-.7.43-.48,1.06-.37,1.75a3.66,3.66,0,0,0,1.82,1.32l0-.58-1.33-1-.09-1.4,1.19.45,1.17.5.94.92c.16.15.33.28.49.43.67.11,1.33.25,2,.34s1.19.09,1.79.13l3.12.15,0,.41a.72.72,0,0,1,.35,0l-1.11.57L-329,388v.51h2.1a.62.62,0,0,1,.7.46l-.4.09a16.68,16.68,0,0,1-1.76-.09c-.23,0-.43-.28-.64-.44h0V388a1.45,1.45,0,0,0,0-.41,1,1,0,0,0-.46.06l-1.38-.1,0-.05-.51-.36-.42-.12-1.48-.39h0l-.31-.3-.16.3-.48,0,0,.58a4.4,4.4,0,0,0,2.76,1.39l.63.32c1.12.2,2.23.4,3.34.62.11,0,.19.2.29.31l-.88.9a48.09,48.09,0,0,0-6.13,5.83c-1.43,1.55-2.83,3.13-4.25,4.7l-.44.51h0l-.46.52,0,0-.46.52,0,0-.24.81a1.9,1.9,0,0,1-.35,0l0,0-.42.5h0l-.45.52,0,0-.46.53,0,0a2,2,0,0,1-1,1.35h0l-.44.51h0l-.45.53,0,0-.59.8,0,.07-.4.47,0,0-.43.51h0l-.45.57c-.35.52-.68,1.05-1.06,1.55-1.68,2.19-3.42,4.33-5,6.56-1.39,1.9-2.65,3.89-4,5.84h0a3.1,3.1,0,0,0-.49.49q-2.86,4.46-5.69,8.94a7.14,7.14,0,0,0-.46,1.06h0l-.37.55v0l-.51.9h0l.17,0a.49.49,0,0,0,.22-.17.64.64,0,0,0,.09-.24.64.64,0,0,1-.09.24.49.49,0,0,1-.22.17l-.17,0c0,.41.08.84-.5.93,0,.42.12.88-.52.93l-.34.53a.25.25,0,0,0-.12.28.51.51,0,0,1-.39.67h0c0,.39,0,.8-.48.93,0,.4.06.83-.48.95-.06,0-.15.08-.19.14a27.12,27.12,0,0,0-3,10.55,5,5,0,0,0,.48,2.51c1.36,3.15,6.67,4.57,9.42,1.71a13,13,0,0,0,2.77-4c0-.39,0-.77.46-.92a.42.42,0,0,0,.13-.34l-.6-.63-.32.51c-1.11,1.69-2.08,3.5-3.8,4.76l-.54-.47c0-.19,0-.39.07-.48a30.2,30.2,0,0,0,4.69-7.58c4.16-8.9,8.53-17.7,13.45-26.21a92.49,92.49,0,0,1,9.43-13.53q6.94-8.22,14.62-15.74c1-1,2.1-1.9,3.15-2.84l1.38.13c-.47.48-.78.87-1.16,1.19a103,103,0,0,0-9.32,9.27c-.95,1-1.84,2.11-2.76,3.17s-1.93,2-2.84,3.08a102.3,102.3,0,0,0-7.55,9.53,11.39,11.39,0,0,0-.55,1,34.82,34.82,0,0,0-3.43,5.32c-4.35,7.47-8.18,15.21-12,23-.41.84-.73,1.73-1.09,2.6l.56.62c.43-.91.85-1.83,1.28-2.74,3.58-7.57,7.29-15.07,11.43-22.36.69-1.21,1.56-2.31,2.35-3.47l.43-.52h0l1-1.83c.67-.85,1.33-1.71,2-2.54,1-1.25,2.1-2.47,3.15-3.71.45-.63.88-1.29,1.36-1.9,1.46-1.84,2.94-3.67,4.41-5.5a14.22,14.22,0,0,0,1.16-1.14c3.93-4.8,8.62-8.85,13-13.23.68,0,1.41.29,2-.35l3.2-.1a6,6,0,0,0,3.44-.36l1.33-.13,5.18-.48h0c1.43,0,2.86,0,4.29,0,.2,0,.39-.19.59-.3l.15,0,.14,0v-.62l-.83,0h0a1,1,0,0,0-1-.42c-1.6,0-3.2-.05-4.79-.08l-2.5.13,0,.22,1.12.26c.7,0,1.41-.06,2.11,0,.26,0,.51.26.76.39l-2.86-.05a4.93,4.93,0,0,0-2.34.55l-2.34.06c-.7,0-1.4,0-2.1,0a2.49,2.49,0,0,0-.79.37h-3.76c.41-.64.85-1.27,1.23-1.94a3,3,0,0,0,.2-.85c.56-.13.49-.57.48-1h0l.8-1.06c.82-.49,1.79-.25,2.7-.39.59-.09,1.27.16,1.75-.41l4.17-.08,6.19,0,1-.07,1.14.07c.31,0,.6,0,.67.44h-2.79c-.44.19-1.07-.2-1.35.46l-.1.5-1.33,1a4.19,4.19,0,0,0-.13.43l-2.17.15.31.44,6.2-.06.38,0,.12.48a1.36,1.36,0,0,1-.09.38v.62l1.06,2.26a6.75,6.75,0,0,0,2.82,3.29h10.85c3.4,0,6.8,0,10.21,0,.26,0,.52-.26.78-.39l1.83-.05,9,0c1.81,0,3.62.06,5.43,0,1.65,0,3.29-.11,4.94-.18l2.92-.28c.4,0,.81.1,1-.39.14-.26.38-.52.4-.79A7.43,7.43,0,0,0-241.4,387.86Zm-92.27-1.21h.43l-.3.3Zm-28.42,49.26.43-.49-.43.49a3.92,3.92,0,0,1,0,.46A3.92,3.92,0,0,0-362.1,435.91Zm-4.7,9.93a45.22,45.22,0,0,1,4.18-8.53,2.09,2.09,0,0,0,0-.45l.43-.5,0,.48h0v.93l-4.55,9.11C-366.74,446.31-366.87,446-366.8,445.84Zm.88,9a3.47,3.47,0,0,1-1.77-3.89,19,19,0,0,0,1,2.22,15.22,15.22,0,0,0,1.34,1.63,1,1,0,0,1,1.17.77A2.37,2.37,0,0,1-365.92,454.87Zm1.43-2.42c-.77-.26-.45-.85-.41-1.35.16-.7.63-1,1.53-1l1.41,1.36A2.66,2.66,0,0,1-364.49,452.45Zm8.56-25.55h0l.83-1.23Zm36-41.68c.14,0,.29-.11.5-.47h0C-319.69,385.11-319.83,385.26-320,385.22Zm9.48-.47c-.13,0-.29.07-.37.16-.69.87-1.37,1.75-2,2.63a7.89,7.89,0,0,1-1,.43.63.63,0,0,1-.87-.38,13.41,13.41,0,0,0,3.36-4.22l.49-.46h0c.62,0,.94.25.88.89C-310.56,383.92-310.48,384.36-310.49,384.75Zm67.63,3.67-.3-.33.28.07A.42.42,0,0,1-242.87,388.42Zm-13.17,3-9,0h-4.72a.77.77,0,0,0,0,.4l-7.2,0-.9.07h-10.9l-2.32-3.38a12.87,12.87,0,0,1-.49-4.16,4.79,4.79,0,0,1,.36-1.06,1.68,1.68,0,0,0,0-.45l.25-.67c.12-.07.25-.21.38-.21,2,0,4.08,0,6.12,0l6.52-.06a4.08,4.08,0,0,1,1.08-.32c5-.06,10.1-.09,15.15-.12a32.64,32.64,0,0,1,5.95-.42c.38,0,.76.07,1.14.11a77.7,77.7,0,0,1,10.38,0l.91,1.29h-.87c-.27-.74-.95-.37-1.44-.52-.25-.14-.49-.4-.75-.4-1.63,0-3.26,0-4.89,0,0,.36-.13.79.44.88h5.24l1.36.06c-.26.52-.77.42-1.21.43l-6.79,0c-.38,0-.79,0-.94.45l10.43-.06,0,.06c-.22.17-.43.46-.66.48-.89.06-1.79,0-2.69.05a2.62,2.62,0,0,0,0,.44l-.45,0h-6.1c.25.76.89.35,1.36.46.15.46.53.5.93.5l7.51,0v2.22l-3.69.19c-.51,0-1.06-.29-1.43.34l.89.93v.5l4.29,0-4.29,0h-2.33a1.59,1.59,0,0,0,0,.47h2.83q0,.23,0,.46l-3.81-.06a1,1,0,0,0-.41.13c-.56.06-.46.53-.53.88Zm13.73-1-.42.48q0,.11,0,.22,0-.11,0-.22h0l.42-.48.16-.16Z" transform="translate(621.4 -17)"/><path class="cls-126" d="M-393.14,416.2v2h1.7c.06-.76.34-1.43-.32-2.07Z" transform="translate(621.4 -17)"/><circle class="cls-127" cx="-343.18" cy="385.2" transform="translate(-73.85 -8.9) rotate(-84.73)"/><path class="cls-128" d="M-261.74,381.84a2.44,2.44,0,0,0-.45.1l-8,0a9.37,9.37,0,0,0-3.64.23,14.62,14.62,0,0,0,3.64.13l6.63.13,1.35-.12H-258c1.25,0,2.5,0,3.75,0,.17,0,.33-.27.5-.41h-4.23Z" transform="translate(621.4 -17)"/><path class="cls-129" d="M-287.38,382.89l5.75-.08H-276c-.24-.13-.48-.37-.73-.39-.68,0-1.38,0-2.06,0l-2.84,0-2.81-.11H-290l.81.91A2.64,2.64,0,0,1-287.38,382.89Z" transform="translate(621.4 -17)"/><path class="cls-130" d="M-403.63,382h-4.44l-7.55-.11-2.31.08-5.28,0c.24.14.48.4.73.41,1.52,0,3,0,4.55,0l3.71.12,6.17-.12h0A11.24,11.24,0,0,0-403.63,382Z" transform="translate(621.4 -17)"/><path class="cls-131" d="M-388.3,389.51a5.37,5.37,0,0,0,.74-5,4.74,4.74,0,0,1-.15-1.14,2.45,2.45,0,0,0-.43,0l-.06,1.4-3.31.06-3.29-.09-8,.07-2.58,0a.65.65,0,0,0-.71.45l1.83.1,1.46-.1,8,.1,3.3-.1,3.3,0a3.57,3.57,0,0,1,0,.46l-4.28,0-2.34-.1-7.07.1h-2.37c.24.15.48.39.73.42a13.21,13.21,0,0,0,1.64,0l4.67.11,4.75-.09,4.26,0h0l-4.26,0-4.75.09q0,.22.07.44H-392l3.77,0v.48l-3.78,0a2.09,2.09,0,0,0,0-.42h-5.17a.61.61,0,0,0,.68.45l1.6,0,.56.44h6.07l-.39.49h-5.65l-.05.45,5.65,0c0-.09,0-.17,0-.26,0,.09,0,.17,0,.26l-.41.5-.08.48-.42.46-1.88-.06h-4.32a1.18,1.18,0,0,0,0-.4l-7.51,0c-.38,0-.79,0-1,.44l6.12.06a2.31,2.31,0,0,1,0,.43l-6.17-.06-2,.19v.26l1.08.15,6.15,0a2.61,2.61,0,0,1,0,.44h9.59l.29-.5-.48,0-3.7,0a1.61,1.61,0,0,1,0-.43h3.71a.58.58,0,0,1,0,.43l.48,0C-388.88,390.42-388.58,390-388.3,389.51Z" transform="translate(621.4 -17)"/><path class="cls-132" d="M-394.36,382.92l6.86-.18v-.25l-4.92-.17-4.69.09c-1,0-2-.05-3,0-.25,0-.49.27-.73.41h3.79Z" transform="translate(621.4 -17)"/><path class="cls-133" d="M-273.07,390.37l-6.17.08a1.38,1.38,0,0,0-.42,0,1.13,1.13,0,0,1,0-.41l6.59-.06c-.16-.49-.57-.44-1-.44l-7,.06-1-.08-.51,0-2.39,0a1.35,1.35,0,0,1,0,.42l-2.83.07-.4-.47,3.24,0,2.39,0c-.16-.44-.52-.48-.92-.48l-4.8,0-.4-.49,5.65,0a4.4,4.4,0,0,1-.05-.45l-5.66,0-.37-.5H-283l.55-.44-2.9-.07-3.76,0v-.48l3.75,0a2.28,2.28,0,0,0,0,.42l2.9.07,1.61,0a.57.57,0,0,0,.65-.48l.54-.42c1.84,0,3.68-.05,5.51-.12a4.14,4.14,0,0,0,1-.31l-10.36-.15q0-.19,0-.39l-2.34-.08,2.34.08,8.49-.1a.78.78,0,0,0,0-.19.78.78,0,0,1,0,.19l1.94.09a6.64,6.64,0,0,0,1.15-.08,2.7,2.7,0,0,0,.72-.43l-3.82,0-.91-.08-9.93.07a1.13,1.13,0,0,0,0,.21,1.13,1.13,0,0,1,0-.21l-3.26-.06h0a1.08,1.08,0,0,1,0-.39l3.74-.09,9.47.06a1.72,1.72,0,0,1,.41-.06,2.38,2.38,0,0,0,.06-.44l-9.93.06-3.77-.12a1.55,1.55,0,0,1,0-.41h-.45a4.28,4.28,0,0,1-.12.94c-1,2.73.05,4.86,2,6.74.13.36.42.38.75.38l8.24,0q0-.22,0-.44l6.63,0,1.12-.26,0-.19Zm-14.67.59v0Zm0-.05h0a.86.86,0,0,1,0-.44h4.17a1.65,1.65,0,0,1,0,.42Z" transform="translate(621.4 -17)"/><path class="cls-134" d="M-271.32,383.5a5.5,5.5,0,0,0-2.52,0c-.53.12-1.06.21-1.59.31a2.38,2.38,0,0,1-.06.44l4.3,0Z" transform="translate(621.4 -17)"/><path class="cls-135" d="M-394.1,389.17c.85.48,1.77.22,2.64.34l2.3,0,.08-.48A34.65,34.65,0,0,0-394.1,389.17Z" transform="translate(621.4 -17)"/><path class="cls-136" d="M-406.24,384.24h4.39l7.06.07c1.63,0,3.26,0,4.89-.09.26,0,.51-.23.76-.36l-9.88-.13-2.85.09a1.32,1.32,0,0,0,0,.21,1.32,1.32,0,0,1,0-.21c-.71,0-1.42-.07-2.13,0A3.28,3.28,0,0,0-406.24,384.24Z" transform="translate(621.4 -17)"/><path class="cls-137" d="M-333.46,592.89a286.15,286.15,0,0,1-112.08-22.63,288,288,0,0,1-48.91-26.55,290,290,0,0,1-42.61-35.16,290,290,0,0,1-35.16-42.61A288,288,0,0,1-598.77,417,286.15,286.15,0,0,1-621.4,304.95a286.15,286.15,0,0,1,22.63-112.08,288,288,0,0,1,26.55-48.91,290,290,0,0,1,35.16-42.61,290,290,0,0,1,42.61-35.16,288,288,0,0,1,48.91-26.55A286.15,286.15,0,0,1-333.46,17,286.15,286.15,0,0,1-221.37,39.63a288,288,0,0,1,48.91,26.55,290,290,0,0,1,42.61,35.16,290,290,0,0,1,35.16,42.61,288,288,0,0,1,26.55,48.91A286.15,286.15,0,0,1-45.51,304.94,286.15,286.15,0,0,1-68.14,417a288,288,0,0,1-26.55,48.91,290,290,0,0,1-35.16,42.61,290,290,0,0,1-42.61,35.16,288,288,0,0,1-48.91,26.55A286.15,286.15,0,0,1-333.46,592.89Zm0-561.68c-150.94,0-273.74,122.8-273.74,273.74s122.8,273.74,273.74,273.74h0c150.94,0,273.74-122.8,273.74-273.74S-182.52,31.21-333.46,31.21Z" transform="translate(621.4 -17)"/></svg>