<svg id="Слой_1" data-name="Слой 1" xmlns="http://www.w3.org/2000/svg" xmlns:xlink="http://www.w3.org/1999/xlink" viewBox="0 0 902.12 281.3"><defs><style>.cls-1{fill-rule:evenodd;fill:url(#Безымянный_градиент_20);}</style><linearGradient id="Безымянный_градиент_20" x1="2615.81" y1="454.67" x2="3487.81" y2="46.67" gradientUnits="userSpaceOnUse"><stop offset="0" stop-color="#cf9a50"/><stop offset="0.22" stop-color="#c9954c"/><stop offset="0.5" stop-color="#b98540"/><stop offset="0.82" stop-color="#9e6d2d"/><stop offset="1" stop-color="#8c5c20"/></linearGradient></defs><title>logo_gold_magnum</title><path class="cls-1" d="M2750.39,118.52h14.56c3.43,0,5.57,1.28,7.92,2.35,2.14,2.14,2.14,3.21,2.14,5.57a3.93,3.93,0,0,1-1.07,3.21c0,2.35-1.07,2.35-3.43,3.43a5.82,5.82,0,0,1,5.57,3.43c1.07,1.07,2.35,3.21,2.35,4.5a9.63,9.63,0,0,1-2.35,6.64c-2.14,2.14-5.57,3.43-10.06,3.43h-15.63V118.52Zm-79.21,249v6.85c-2.35-1.28-4.5-2.35-5.57-2.35a9.16,9.16,0,0,0-4.5-1.07c-2.14,0-3.43,0-3.43,1.07a3.74,3.74,0,0,0-2.14,1.07c0,1.28,2.14,3.43,4.5,4.5,4.5,1.28,6.64,2.35,7.71,3.43,3.43,1.07,4.5,4.5,4.5,7.71,0,3.43-1.07,5.78-3.43,6.85a12.68,12.68,0,0,1-8.78,3.21c-2.35,0-4.5-1.07-6.85-1.07-1.07-1.07-3.21-1.07-4.28-2.14v-7.92c2.14,2.35,3.21,3.43,5.57,3.43,1.07,1.07,3.21,1.07,5.57,1.07,2.14,0,4.5-1.07,4.5-2.14,0-2.35-1.28-3.43-4.5-4.5-4.5-1.07-6.85-2.35-7.92-3.43-3.21-2.14-4.5-4.5-4.5-7.71,0-3.43,1.28-5.57,3.43-6.85,2.14-2.14,5.57-2.14,9-2.14a23.11,23.11,0,0,1,11.13,2.14Zm59.09-2.14v32.33h-7.71V384.4h-16.7v13.27h-7.92V365.35h7.92v13.49h16.7V365.35Zm46.88,0,14.56,32.33h-9L2779.5,391h-14.56l-2.14,6.64h-7.92l12.2-32.33Zm0,20.12-4.28-12.42-5.78,12.42Zm69.36-20.12-15.63,33.4h-3.43l-15.63-33.4h9l7.71,19.05,9-19.05Zm46.88,26.76v5.57h-23.55V365.35h23.55v5.57h-15.63v6.64h14.56v6.85h-14.56v7.71Zm107-4.5v7.92c-2.14,1.07-4.28,1.07-6.64,2.14-2.14,0-3.21,1.07-6.64,1.07a18.54,18.54,0,0,1-13.49-5.57c-3.21-3.21-5.57-6.64-5.57-11.13s2.35-9,5.57-12.2c3.43-3.43,9-4.5,14.56-4.5,4.5,0,9,0,12.2,2.14v7.92a31.58,31.58,0,0,1-5.57-3.43h-5.57a14.86,14.86,0,0,0-8.78,2.35,9.65,9.65,0,0,0-3.43,7.71c0,2.35,1.07,4.5,3.43,6.64a9.37,9.37,0,0,0,7.71,3.43c2.35,0,4.5-1.07,6.64-1.07a13.8,13.8,0,0,1,5.57-3.43Zm50.31-22.26h9V384.4a14.53,14.53,0,0,1-5.57,11.13c-2.35,2.14-6.64,3.21-11.13,3.21-5.57,0-9-1.07-12.42-3.21-2.14-3.43-4.5-6.85-4.5-11.13V365.35h9V384.4c0,2.14,0,4.28,2.35,5.57a8.31,8.31,0,0,0,5.57,2.14,8.78,8.78,0,0,0,5.57-2.14c2.14-1.28,2.14-3.43,2.14-6.85V365.35Zm64.87,0v5.57h-11.13v26.76h-9V370.91h-11.13v-5.57Zm104.9,0v5.57h-12.2v26.76h-7.92V370.91h-12.2v-5.57Zm24.62,0h14.34a9.79,9.79,0,0,1,7.92,3.43,6.17,6.17,0,0,1,3.43,5.57c0,4.5-2.35,6.64-5.57,8.78,1.07,0,1.07,1.28,2.14,2.35s1.07,2.14,2.14,4.5c1.28,3.21,3.43,5.57,4.5,7.71h-8.78a27.27,27.27,0,0,1-4.5-9c-1.28-2.14-3.43-4.28-5.57-4.28h-2.35v13.27h-7.71V365.35Zm7.71,5.57v7.92h4.5a4.1,4.1,0,0,0,3.43-1.28c1.07,0,1.07-1.07,1.07-2.14,0-3.43-1.07-4.5-4.5-4.5Zm52.45-5.57v32.33h-7.71V365.35Zm45.81,12.2,10.06-12.2h7.92v32.33h-9V377.55l-9,10.06H3350l-9-10.06v20.12h-7.71V365.35H3340l11.13,12.2Zm-419.81-3.21a5.67,5.67,0,0,1,4.5,2.14c2.14,1.07,2.14,3.43,2.14,5.57,0,1.07,0,3.43-2.14,4.5a5.67,5.67,0,0,1-4.5,2.14,6,6,0,0,1-4.5-2.14c-2.14-1.07-2.14-3.43-2.14-4.5,0-2.14,0-4.5,2.14-5.57a6,6,0,0,1,4.5-2.14Zm221.14,0a9.53,9.53,0,0,1,4.5,2.14,6.94,6.94,0,0,1,0,10.06,9.53,9.53,0,0,1-4.5,2.14,8.31,8.31,0,0,1-5.57-2.14,7.7,7.7,0,0,1-2.35-4.5,7.88,7.88,0,0,1,2.35-5.57,8.31,8.31,0,0,1,5.57-2.14ZM2993.79,260.45a31.77,31.77,0,0,0-15.84,1.71,3.45,3.45,0,0,1-.86,1.5,32.42,32.42,0,0,0-3.43,14.56v10.06c0,1.07,0,3.43,1.28,4.5a10.38,10.38,0,0,0,1.07,5.57c0,1.07,1.07,3.43,1.07,4.5,1.07,1.07,1.07,3.43,2.14,4.5,0,1.07,1.28,3.21,2.35,4.5a5.56,5.56,0,0,0,2.14,4.28h0c1.07,2.35,2.35,4.5,1.07,6.85-1.07,2.14-2.14,4.5-4.28,5.57-1.28,1.07-3.43,1.07-5.57,0a6.33,6.33,0,0,1-5.78-3.43c-3.21-7.71-6.64-15.63-7.71-23.33,0-4.5-1.07-9-1.07-13.49v-2.57a84.7,84.7,0,0,0-2.35,11.56v4.5h0c-10.06,3.21-20.12,5.57-31.26,5.57-16.7,0-30.19-4.5-40-13.49-10.06-10.06-15.84-21.19-15.84-35.75a43.27,43.27,0,0,1,16.91-34.47c10.06-10.06,24.4-14.56,41.32-14.56,11.13,0,20.12,1.07,27.83,4.5l4.5-3.43h2.14V238c-11.13-5.57-22.26-8.78-32.33-8.78-11.13,0-19.05,2.14-25.69,7.71s-10.06,12.42-10.06,21.19c0,9,3.43,15.63,10.06,21.19s14.56,7.92,24.62,7.92c4.5,0,10.06,0,14.56-1.07,3.85-2.14,9.63-4.07,16.27-7.49a57.35,57.35,0,0,1,6-17.34,18.82,18.82,0,0,1-2.14,1.28c0,1.07-1.28,2.35-1.28,3.43h-50.09a2.38,2.38,0,0,1-2.35-2.35V250.39h43.67l6.64,7.71H2967a3,3,0,0,1,1.28.43,2.58,2.58,0,0,1,2.14-1.5,3.55,3.55,0,0,1,4.5,0h0a2.3,2.3,0,0,1,2.14,2.14c.21.21.21.43.43.64a2.06,2.06,0,0,0-.43-2.78L2976,256c4.5-1.07,8.78-2.35,14.56-2.35h3.21c1.07,0,2.35,1.28,3.43,3.43,0,1.07-2.35,3.43-3.43,3.43Zm258-50.31h27.83v2.14l-4.5,5.57v47.1c0,13.27-4.28,24.4-12.2,31.26-9,7.71-20.12,11.13-35.75,11.13s-26.76-3.43-35.75-11.13c-7.71-6.85-12.2-18-12.2-31.26v-47.1l-4.5-5.57v-2.14h33.61v2.14l-5.78,5.57v47.1a22.77,22.77,0,0,0,6.85,16.7c4.5,4.5,10.06,5.57,17.77,5.57a32,32,0,0,0,18-5.57c4.5-4.5,6.64-10.06,6.64-18v-45.6l-5.57-5.78v-2.14Zm-130.59,7.71v80.49l4.5,5.57v2.35h-33.61v-2.35l3.43-3.43-46.88-55.66v53.52l4.5,5.57v2.35h-33.61v-2.35l4.5-5.57V217.85l-4.5-5.57v-2.14h33.61v2.14l-2.35,3.43,46.88,53.52V217.85l-5.57-5.57v-2.14h33.61v2.14Zm-320.47-1.07,35.75,79.42h0l6.64,7.71v2.35h-35.75v-2.35l4.5-4.5-4.5-12.2h-43.46l-4.5,12.2,4.5,4.5v2.35h-34.68v-2.35l6.64-7.71,31.26-79.42-4.28-4.5v-2.14h42.39v2.14l-4.5,4.5Zm-1.07,53.73L2784,233.69l-13.49,36.82ZM2632,245.89l25.69-30.18-3.21-3.43v-2.14h33.4v2.14l-4.5,5.57v80.49l4.5,5.57v2.35h-33.4v-2.35l5.57-5.57V245.89l-26.76,30.18h-3.43l-25.69-30.18v52.45l4.5,5.57v2.35h-33.61v-2.35l5.57-5.57V217.85l-5.57-5.57v-2.14h33.61v2.14l-2.35,3.43Zm752.7,0,25.69-30.18-2.35-3.43v-2.14h33.61v2.14l-5.78,5.57v80.49l5.78,5.57v2.35H3408v-2.35l4.5-5.57V245.89l-25.69,30.18h-3.43l-26.76-30.18v52.45l5.57,5.57v2.35h-33.4v-2.35l4.5-5.57V217.85l-4.5-5.57v-2.14h33.4v2.14l-3.21,3.43ZM2557.29,324h404.18a8.69,8.69,0,0,0,2.14,4.5h0v1.07H2557.29V324Zm435.43,0h466.69v5.57H2989.3a5.25,5.25,0,0,0,2.35-4.5,1,1,0,0,1,1.07-1.07ZM2557.29,186.59h902.12v5.78H2557.29Zm201-62.51v6.85h4.5a3.54,3.54,0,0,0,3.21-1.28c1.07,0,1.07-1.07,1.07-2.14s0-1.07-1.07-2.14a3.54,3.54,0,0,0-3.21-1.28Zm0,13.49v7.92h4.5c2.14,0,4.28-1.28,5.57-1.28,0-1.07,1.07-2.14,1.07-3.21a3.84,3.84,0,0,0-1.07-2.35c-1.28-1.07-2.35-1.07-4.5-1.07ZM2823,118.52l14.56,32.54h-9l-2.14-6.85h-14.56l-3.43,6.85h-7.71l12.2-32.54Zm0,20.12-4.5-12.2-5.57,12.2Zm38.11-20.12h14.34c3.43,0,5.57,1.28,7.92,2.35,2.14,2.14,3.43,4.5,3.43,6.64a8.71,8.71,0,0,1-5.78,7.92c1.28,1.07,1.28,2.14,2.35,3.21,1.07,0,2.14,2.35,2.14,4.5,2.35,2.35,3.43,5.57,4.5,7.92h-9a34.34,34.34,0,0,1-4.28-9c-1.28-3.43-3.43-4.5-5.78-4.5h-2.14v13.49h-7.71V118.52Zm7.71,5.57V132h4.5a4.61,4.61,0,0,0,3.43-1.07c1.07-1.28,1.07-1.28,1.07-3.43s-1.07-3.43-4.5-3.43Zm44.74-5.57h14.34c3.43,0,5.78,1.28,7.92,2.35,2.14,2.14,2.14,3.21,2.14,5.57a3.93,3.93,0,0,1-1.07,3.21c0,2.35-1.07,2.35-3.21,3.43a6.24,6.24,0,0,1,5.57,3.43,8,8,0,0,1,2.14,4.5c0,3.21-1.07,5.57-2.14,6.64-2.35,2.14-5.57,3.43-10.06,3.43h-15.63V118.52Zm7.71,5.57v6.85h4.5a4.1,4.1,0,0,0,3.43-1.28c1.07,0,1.07-1.07,1.07-2.14s0-1.07-1.07-2.14a4.1,4.1,0,0,0-3.43-1.28Zm0,13.49v7.92h4.5c2.14,0,4.5-1.28,5.57-1.28,0-1.07,1.07-2.14,1.07-3.21a3.84,3.84,0,0,0-1.07-2.35c-1.07-1.07-2.14-1.07-4.5-1.07Zm69.36,7.92v5.57H2967V118.52h23.55v5.57H2975v6.85h14.34v6.64H2975v7.92Zm26.76-27h14.56c3.21,0,5.57,1.28,7.71,2.35,2.14,2.14,2.14,4.5,2.14,6.64,0,3.43-1.07,6.64-5.57,7.92,1.28,1.07,2.35,2.14,3.43,3.21,1.07,0,1.07,2.35,2.14,4.5,1.28,2.35,2.35,5.57,3.43,7.92h-9c-1.07-3.43-2.14-5.57-3.21-9-2.35-3.43-3.43-4.5-5.57-4.5H3025v13.49h-7.71V118.52Zm7.71,5.57V132h4.5a4.38,4.38,0,0,0,3.43-1.07c1.07-1.28,1.07-1.28,1.07-3.43s-1.07-3.43-4.5-3.43Zm65.94-3.21v5.57c-2.35-1.07-4.5-1.07-5.57-2.35h-7.92c-1.07,1.28-1.07,1.28-1.07,2.35s1.07,2.14,4.5,3.21c4.5,2.35,6.64,3.43,7.71,3.43,2.35,2.35,4.5,5.57,4.5,9a9.68,9.68,0,0,1-3.21,6.64c-2.35,2.35-5.57,2.35-10.06,2.35H3073c-1.07-1.28-2.14-1.28-4.28-2.35V141c2.14,2.14,4.28,3.21,5.57,3.21,2.14,1.28,3.21,1.28,5.57,1.28,3.21,0,4.5-1.28,4.5-3.43,0-1.07-1.28-2.35-4.5-3.43-4.5-1.07-6.85-2.14-7.92-3.21-2.14-2.35-4.5-4.5-4.5-7.92s1.28-5.57,3.43-6.64c2.14-2.35,5.57-3.43,9-3.43a18.1,18.1,0,0,1,11.13,3.43Zm60.37-2.35v32.54h-9V137.57h-15.63v13.49h-7.92V118.52h7.92V132h15.63V118.52Zm62.51,15.63a17.81,17.81,0,0,1-4.5,12.42c-3.43,3.21-7.92,4.5-13.49,4.5-6.64,0-11.13-1.28-14.56-4.5-3.21-3.43-4.28-7.92-4.28-12.42a16.68,16.68,0,0,1,4.28-11.13,20.16,20.16,0,0,1,14.56-5.57,19.43,19.43,0,0,1,13.49,5.57,17,17,0,0,1,4.5,11.13Zm-7.92,0c0-2.14-1.07-4.5-3.43-6.64-1.07-2.14-4.28-3.43-6.64-3.43a10.36,10.36,0,0,0-7.71,3.43c-2.35,2.14-3.43,4.5-3.43,6.64a10.08,10.08,0,0,0,3.43,7.92,16.35,16.35,0,0,0,7.71,2.14c2.35,0,5.57-1.07,6.64-2.14a10.08,10.08,0,0,0,3.43-7.92Zm34.68-15.63h14.56a10.36,10.36,0,0,1,7.71,3.43c2.35,1.07,2.35,3.43,2.35,5.57,0,3.43,0,5.57-2.35,6.64a9.65,9.65,0,0,1-7.71,3.43h-6.85v13.49h-7.71V118.52Zm7.71,5.57V132h3.43c2.14,0,3.43,0,4.5-1.07,1.07,0,1.07-1.28,1.07-2.35,0-2.14,0-3.21-1.07-3.21-1.07-1.28-2.35-1.28-4.5-1.28Z" transform="translate(-2557.29 -117.45)"/></svg>