<svg id="Слой_1" data-name="Слой 1" xmlns="http://www.w3.org/2000/svg" xmlns:xlink="http://www.w3.org/1999/xlink" viewBox="0 0 763.19 409.33"><defs><style>.cls-1{fill-rule:evenodd;fill:url(#Безымянный_градиент_20);}</style><linearGradient id="Безымянный_градиент_20" x1="1586.44" y1="458.61" x2="2313.9" y2="52.13" gradientUnits="userSpaceOnUse"><stop offset="0" stop-color="#cf9a50"/><stop offset="0.22" stop-color="#c9954c"/><stop offset="0.5" stop-color="#b98540"/><stop offset="0.82" stop-color="#9e6d2d"/><stop offset="1" stop-color="#8c5c20"/></linearGradient></defs><title>logo_gold_oldboy</title><path class="cls-1" d="M2063.41,325.72c7.28,14.13,51.38,12.2,61.23,12.2L2134.91,351l-7.71,13.27c-30.61,0-49.24-10.7-77.07-15.2-16.91-2.57-140.44,76.64-163.56,89.48-41.53,22.69-189.89,103.61-240.41,102.33a21.32,21.32,0,0,1-10.28-2.35c-24.4-11.35-20.12-38.53-7.71-51.59,3.64-3.85,5.78-4.5,10.7-6.21l173.83-63.8c25.9-10.49,151.57-60.58,171-86.49l-95.48-10.06-.43,41.1-287.93-39,2.35-71.29L2043.5,318l-13.06,3c14.77,30.4-3.85-4.5,33,4.71Zm35.75-165.91c2.57-1.93,3.64-3.85,3.64-6.64,0-5.57-4.07-9.21-10.49-9.21H2079v15.84a41.59,41.59,0,0,1,5.35,16.48h8.78c6,0,10.06-3.64,10.06-9.42a7.6,7.6,0,0,0-4.07-7.06Zm-12.2-3.43v-5.14h4.92c1.93,0,2.78.86,2.78,2.57s-.86,2.57-2.78,2.57Zm0,12.84v-5.78h5.35a2.81,2.81,0,0,1,3,3,2.76,2.76,0,0,1-3,2.78Zm47.74,7.06L2122.93,144h-6l-11.77,32.33h8.35l1.5-4.71h10.06l1.28,4.71ZM2122.93,165h-5.78l3-8.56Zm40.46,11.35-7.06-13.49a12,12,0,0,0,3-2.14,9.33,9.33,0,0,0,2.35-6.21c0-6-4.71-10.49-11.13-10.49H2137.7V176.3h8.13v-12h2.57l5.78,12Zm-17.55-18.62v-6.42h4.28c2.14,0,3.64,1.28,3.64,3.21s-1.5,3.21-3.64,3.21Zm41.53,2.14c2.35-1.93,3.43-3.85,3.43-6.64,0-5.57-4.07-9.21-10.28-9.21H2167V176.3h14.13c6.21,0,10.06-3.64,10.06-9.42a7.42,7.42,0,0,0-3.85-7.06Zm-12.2-3.43v-5.14h4.92c1.71,0,2.78.86,2.78,2.57s-1.07,2.57-2.78,2.57Zm0,12.84v-5.78h5.35c1.71,0,2.78,1.07,2.78,3a2.59,2.59,0,0,1-2.78,2.78Zm43.24,7.06v-7.06h-13.92v-5.57h12V156.6h-12V151h13.92V144h-21.84V176.3Zm31,0-7.06-13.49a12,12,0,0,0,3-2.14,9.33,9.33,0,0,0,2.35-6.21c0-6-4.71-10.49-11.13-10.49H2224V176.3h7.92v-12h2.57l5.78,12Zm-17.55-18.62v-6.42h4.5a3.22,3.22,0,1,1,0,6.42Zm37.46-5.14,5.14-4.92a12.64,12.64,0,0,0-4.07-2.57,16.38,16.38,0,0,0-6.42-1.28c-7.71,0-12.2,4.07-12.2,10.28,0,5.35,2.78,8.56,8.56,9.21l4.07.64a2.53,2.53,0,0,1,2.57,2.78c0,1.93-1.5,2.78-4.5,2.78a13,13,0,0,1-5.14-.86,5.7,5.7,0,0,1-2.14-1.28l-5.14,5.14a17.77,17.77,0,0,0,4.28,2.78,20.29,20.29,0,0,0,7.49,1.5c8.13,0,13.06-4.07,13.06-10.49,0-5.78-2.78-8.78-8.78-9.63l-3.85-.43c-1.93-.21-3-1.07-3-2.57,0-1.71,1.71-3,4.5-3a9.23,9.23,0,0,1,3.64.64c.64.43,1.07.64,1.93,1.28Zm34.89,23.76V144h-7.92v12.42h-8.56V144h-7.92V176.3h7.92V163.45h8.56V176.3ZM2334,160.24v-3c0-4.5-.86-7.49-3.21-9.85a12.26,12.26,0,0,0-9-3.64,11.6,11.6,0,0,0-9,3.64c-2.57,2.57-3.43,5.35-3.43,11.77v1.93c0,4.07,0,8.35,3.43,12a11.92,11.92,0,0,0,9,3.64,12.26,12.26,0,0,0,9-3.64c3.43-3.64,3.21-8.13,3.21-12.84Zm-15.41-7.92a3.6,3.6,0,0,1,3.21-1.5,3.85,3.85,0,0,1,3.21,1.5c.86,1.07,1.07,3.43,1.07,6.42v2.35c0,4.07-.21,6-1.07,7.06a4.36,4.36,0,0,1-3.21,1.28,4,4,0,0,1-3.21-1.28c-.86-1.07-1.28-3-1.28-7.06v-2.35c0-3,.43-5.35,1.28-6.42Zm20.77-8.35V176.3h7.92V164.74H2352c6.64,0,11.13-4.28,11.13-10.28S2358.41,144,2352,144Zm7.92,13.7v-6.42h4.5a3.22,3.22,0,1,1,0,6.42Zm-744.13,67.65V224l.21-6c1.28-21.84,7.92-40.46,20.12-55.66,13.7-17.13,32.11-25.69,54.8-25.26,25.26.21,44.53,8.14,57.8,24,13.27,15.63,19.91,37.68,19.91,65.72a130.4,130.4,0,0,1-4.28,34.25L1720,256.36a112.05,112.05,0,0,0,3.64-29.76c0-41.1-15.2-61.65-45.38-61.87-13.7-.21-24.4,5.14-31.9,16.27-6.21,9.21-9.85,21.41-10.7,36.18-.43,7.06-1.5,19.91-.64,26.12l-32.33-4.71.43-12.42v-.86Zm573.09-39.82A79.27,79.27,0,0,0,2160,184a71.06,71.06,0,0,0-15.41,1.5,55.22,55.22,0,0,0-29.33,16.91q-16.7,18.3-16.7,47.53c0,20.12,5.35,36.39,16.06,48.6,10.92,12,25.9,18.2,45.38,18.2,18.84,0,33.82-6,45-18.2,10.92-12,16.27-28.26,16.27-48.6s-5.35-36.61-16.06-48.38a52.4,52.4,0,0,0-28.9-16.06Zm-398-46.67,29.76-7.28V269.63h-.43l-29.33-4.5Zm54.16,132.3a102.63,102.63,0,0,1-1.71-18.84c0-20.12,5.78-36.61,17.55-49.24,11.77-12.84,26.55-19.05,44.1-19.05a57,57,0,0,1,26.55,6V138.83l30-7.28V291l-30-4.5V217q-9.63-7.71-19.91-7.71-18,0-27.62,10.92t-9.63,31.47c0,9.21,1.5,16.91,4.71,22.91a21.6,21.6,0,0,0,3.21,4.5h-.21l-36.39-5.57ZM1969,294l2.57-154.78c23.55-1.07,40.25-1.5,49.67-1.5,18.2,0,32.33,3.85,42.6,11.56s15.41,18.84,15.41,33.4c0,13.92-7.49,24.83-22,32.75,21.62,7.71,32.54,23.33,32.54,46.88q0,23.76-18,37.89c-2.57,1.93-6.85,5.57-10.28,7.92l-7.92-1.28-66.36-10.06h0L1969,294Zm33.61-129.73v41.75c4.92.43,9.85.64,15,.64,20.34,0,30.4-7.71,30.4-22.91,0-13.49-9.21-20.12-27.62-20.12-4.71,0-10.7.21-17.77.64Zm0,66.15v57.8c6.21.43,11.35.86,15.2.86q20.87,0,30.19-7.06c6.21-4.71,9.42-12.63,9.42-23.33,0-10.06-3-17.34-8.78-21.84s-15.84-6.85-30.4-6.85c-3,0-8.13.21-15.63.43Zm126.95,19.48c0,28.26,10.06,42.17,30.4,42.17A26.32,26.32,0,0,0,2182,281.19c5.35-7.28,8.13-17.77,8.13-31.26,0-27.62-10.06-41.53-30.19-41.53-9.42,0-16.7,3.64-22.26,10.92s-8.13,17.55-8.13,30.61Zm106,114.32h0L2224.18,351l11.35-13.06c2.78,0,5.35,0,7.92-.21a71.64,71.64,0,0,0,10.7-1.5,27.9,27.9,0,0,0,11.13-6.42,18,18,0,0,0,3.85-6c.86-2.35,1.07-2.78.86-5.35-.64-7.49-3.64-18.41-9.63-33l-40-99.12h31l35.11,88.41,31.68-88.41h31l-57.37,151.57-.43.64V339s-12.84,26.76-55.87,25.48ZM2006.9,331.72a10.69,10.69,0,0,1,10.49,10.7,10.51,10.51,0,0,1-10.49,10.49,10.84,10.84,0,0,1-10.49-10.7,10.51,10.51,0,0,1,10.49-10.49ZM1656.24,498.06a10.51,10.51,0,0,1,10.49,10.49A10.37,10.37,0,0,1,1656.24,519a10.6,10.6,0,0,1-10.7-10.7,10.25,10.25,0,0,1,10.7-10.28Z" transform="translate(-1599.93 -131.55)"/></svg>