<svg id="Слой_1" data-name="Слой 1" xmlns="http://www.w3.org/2000/svg" xmlns:xlink="http://www.w3.org/1999/xlink" viewBox="0 0 567.56 566.06"><defs><style>.cls-1{fill:url(#Безымянный_градиент_14);}.cls-2{fill:url(#Безымянный_градиент_14-2);}.cls-3{fill:url(#Безымянный_градиент_14-3);}.cls-4{fill:url(#Безымянный_градиент_14-4);}.cls-5{fill:url(#Безымянный_градиент_14-5);}.cls-6{fill:url(#Безымянный_градиент_14-6);}.cls-7{fill:url(#Безымянный_градиент_14-7);}.cls-8{fill:url(#Безымянный_градиент_14-8);}.cls-9{fill:url(#Безымянный_градиент_14-9);}.cls-10{fill:url(#Безымянный_градиент_14-10);}.cls-11{fill:url(#Безымянный_градиент_14-11);}.cls-12{fill:url(#Безымянный_градиент_14-12);}.cls-13{fill:url(#Безымянный_градиент_14-13);}.cls-14{fill:url(#Безымянный_градиент_14-14);}.cls-15{fill:url(#Безымянный_градиент_14-15);}.cls-16{fill:url(#Безымянный_градиент_14-16);}.cls-17{fill:url(#Безымянный_градиент_14-17);}.cls-18{fill:url(#Безымянный_градиент_14-18);}.cls-19{fill:url(#Безымянный_градиент_14-19);}.cls-20{fill:url(#Безымянный_градиент_14-20);}.cls-21{fill:url(#Безымянный_градиент_14-21);}.cls-22{fill:url(#Безымянный_градиент_14-22);}.cls-23{fill:url(#Безымянный_градиент_14-23);}.cls-24{fill:url(#Безымянный_градиент_14-24);}.cls-25{fill:url(#Безымянный_градиент_14-25);}.cls-26{fill:url(#Безымянный_градиент_14-26);}.cls-27{fill:url(#Безымянный_градиент_14-27);}.cls-28{fill:url(#Безымянный_градиент_14-28);}.cls-29{fill:url(#Безымянный_градиент_14-29);}.cls-30{fill:url(#Безымянный_градиент_14-30);}.cls-31{fill:url(#Безымянный_градиент_14-31);}.cls-32{fill:url(#Безымянный_градиент_14-32);}.cls-33{fill:url(#Безымянный_градиент_14-33);}.cls-34{fill:url(#Безымянный_градиент_14-34);}.cls-35{fill:url(#Безымянный_градиент_14-35);}.cls-36{fill:url(#Безымянный_градиент_14-36);}.cls-37{fill:url(#Безымянный_градиент_14-37);}.cls-38{fill:url(#Безымянный_градиент_14-38);}.cls-39{fill:url(#Безымянный_градиент_14-39);}.cls-40{fill:url(#Безымянный_градиент_14-40);}.cls-41{fill:url(#Безымянный_градиент_14-41);}.cls-42{fill:url(#Безымянный_градиент_14-42);}.cls-43{fill:url(#Безымянный_градиент_14-43);}</style><linearGradient id="Безымянный_градиент_14" x1="126.63" y1="563.43" x2="606.61" y2="231.94" gradientUnits="userSpaceOnUse"><stop offset="0" stop-color="#cf9a50"/><stop offset="0.24" stop-color="#cb964d"/><stop offset="0.49" stop-color="#be8b44"/><stop offset="0.74" stop-color="#aa7735"/><stop offset="0.99" stop-color="#8d5d21"/><stop offset="1" stop-color="#8c5c20"/></linearGradient><linearGradient id="Безымянный_градиент_14-2" x1="205.77" y1="678.01" x2="685.75" y2="346.53" xlink:href="#Безымянный_градиент_14"/><linearGradient id="Безымянный_градиент_14-3" x1="206.12" y1="678.51" x2="686.09" y2="347.03" xlink:href="#Безымянный_градиент_14"/><linearGradient id="Безымянный_градиент_14-4" x1="203.21" y1="674.31" x2="683.19" y2="342.83" xlink:href="#Безымянный_градиент_14"/><linearGradient id="Безымянный_градиент_14-5" x1="58.51" y1="464.79" x2="538.49" y2="133.3" xlink:href="#Безымянный_градиент_14"/><linearGradient id="Безымянный_градиент_14-6" x1="58.54" y1="464.83" x2="538.51" y2="133.34" xlink:href="#Безымянный_градиент_14"/><linearGradient id="Безымянный_градиент_14-7" x1="-23.17" y1="346.52" x2="456.81" y2="15.03" xlink:href="#Безымянный_градиент_14"/><linearGradient id="Безымянный_градиент_14-8" x1="126.35" y1="563.02" x2="606.33" y2="231.54" xlink:href="#Безымянный_градиент_14"/><linearGradient id="Безымянный_градиент_14-9" x1="205.86" y1="678.15" x2="685.84" y2="346.67" xlink:href="#Безымянный_градиент_14"/><linearGradient id="Безымянный_градиент_14-10" x1="-1.94" y1="377.25" x2="478.03" y2="45.77" xlink:href="#Безымянный_градиент_14"/><linearGradient id="Безымянный_градиент_14-11" x1="-42.57" y1="318.43" x2="437.41" y2="-13.05" xlink:href="#Безымянный_градиент_14"/><linearGradient id="Безымянный_градиент_14-12" x1="-90.29" y1="249.33" x2="389.69" y2="-82.15" xlink:href="#Безымянный_градиент_14"/><linearGradient id="Безымянный_градиент_14-13" x1="-81.08" y1="262.66" x2="398.9" y2="-68.82" xlink:href="#Безымянный_градиент_14"/><linearGradient id="Безымянный_градиент_14-14" x1="-89.59" y1="250.34" x2="390.38" y2="-81.15" xlink:href="#Безымянный_градиент_14"/><linearGradient id="Безымянный_градиент_14-15" x1="20.47" y1="409.71" x2="500.45" y2="78.23" xlink:href="#Безымянный_градиент_14"/><linearGradient id="Безымянный_градиент_14-16" x1="94.13" y1="516.36" x2="574.1" y2="184.87" xlink:href="#Безымянный_градиент_14"/><linearGradient id="Безымянный_градиент_14-17" x1="-58.54" y1="295.3" x2="421.43" y2="-36.19" xlink:href="#Безымянный_градиент_14"/><linearGradient id="Безымянный_градиент_14-18" x1="-87.28" y1="253.69" x2="392.7" y2="-77.79" xlink:href="#Безымянный_градиент_14"/><linearGradient id="Безымянный_градиент_14-19" x1="205.89" y1="678.19" x2="685.87" y2="346.7" xlink:href="#Безымянный_градиент_14"/><linearGradient id="Безымянный_градиент_14-20" x1="204.55" y1="676.25" x2="684.53" y2="344.76" xlink:href="#Безымянный_градиент_14"/><linearGradient id="Безымянный_градиент_14-21" x1="164.76" y1="618.64" x2="644.74" y2="287.15" xlink:href="#Безымянный_градиент_14"/><linearGradient id="Безымянный_градиент_14-22" x1="203.38" y1="674.55" x2="683.36" y2="343.07" xlink:href="#Безымянный_градиент_14"/><linearGradient id="Безымянный_градиент_14-23" x1="206.14" y1="678.55" x2="686.11" y2="347.06" xlink:href="#Безымянный_градиент_14"/><linearGradient id="Безымянный_градиент_14-24" x1="153.68" y1="602.58" x2="633.65" y2="271.1" xlink:href="#Безымянный_градиент_14"/><linearGradient id="Безымянный_градиент_14-25" x1="109.68" y1="538.88" x2="589.66" y2="207.4" xlink:href="#Безымянный_градиент_14"/><linearGradient id="Безымянный_градиент_14-26" x1="-71.05" y1="277.19" x2="408.93" y2="-54.29" xlink:href="#Безымянный_градиент_14"/><linearGradient id="Безымянный_градиент_14-27" x1="198.91" y1="668.09" x2="678.89" y2="336.6" xlink:href="#Безымянный_градиент_14"/><linearGradient id="Безымянный_градиент_14-28" x1="141.33" y1="584.71" x2="621.31" y2="253.22" xlink:href="#Безымянный_градиент_14"/><linearGradient id="Безымянный_градиент_14-29" x1="188.48" y1="652.98" x2="668.46" y2="321.49" xlink:href="#Безымянный_градиент_14"/><linearGradient id="Безымянный_градиент_14-30" x1="174.39" y1="632.58" x2="654.37" y2="301.09" xlink:href="#Безымянный_градиент_14"/><linearGradient id="Безымянный_градиент_14-31" x1="194.14" y1="661.18" x2="674.12" y2="329.7" xlink:href="#Безымянный_градиент_14"/><linearGradient id="Безымянный_градиент_14-32" x1="151.59" y1="599.56" x2="631.57" y2="268.08" xlink:href="#Безымянный_градиент_14"/><linearGradient id="Безымянный_градиент_14-33" x1="62.48" y1="470.54" x2="542.46" y2="139.05" xlink:href="#Безымянный_градиент_14"/><linearGradient id="Безымянный_градиент_14-34" x1="7.71" y1="391.24" x2="487.69" y2="59.75" xlink:href="#Безымянный_градиент_14"/><linearGradient id="Безымянный_градиент_14-35" x1="77.7" y1="492.58" x2="557.68" y2="161.09" xlink:href="#Безымянный_градиент_14"/><linearGradient id="Безымянный_градиент_14-36" x1="105.81" y1="533.28" x2="585.79" y2="201.8" xlink:href="#Безымянный_градиент_14"/><linearGradient id="Безымянный_градиент_14-37" x1="37.39" y1="434.21" x2="517.37" y2="102.73" xlink:href="#Безымянный_градиент_14"/><linearGradient id="Безымянный_градиент_14-38" x1="140.21" y1="583.09" x2="620.19" y2="251.61" xlink:href="#Безымянный_градиент_14"/><linearGradient id="Безымянный_градиент_14-39" x1="53.15" y1="457.02" x2="533.13" y2="125.54" xlink:href="#Безымянный_градиент_14"/><linearGradient id="Безымянный_градиент_14-40" x1="118.74" y1="552" x2="598.72" y2="220.52" xlink:href="#Безымянный_градиент_14"/><linearGradient id="Безымянный_градиент_14-41" x1="102.27" y1="528.15" x2="582.25" y2="196.67" xlink:href="#Безымянный_градиент_14"/><linearGradient id="Безымянный_градиент_14-42" x1="16.48" y1="403.93" x2="496.46" y2="72.44" xlink:href="#Безымянный_градиент_14"/><linearGradient id="Безымянный_градиент_14-43" x1="10.32" y1="395.01" x2="490.3" y2="63.53" xlink:href="#Безымянный_градиент_14"/></defs><title>logo_gold_topgun</title><path class="cls-1" d="M177.16,528.44l.15.15a1.66,1.66,0,0,1,.3-.31.21.21,0,0,0-.07-.17Z" transform="translate(-11.84 -18.11)"/><path class="cls-2" d="M472.59,493.66h.47v-.16h-.47Z" transform="translate(-11.84 -18.11)"/><path class="cls-3" d="M469.74,497.05a2.21,2.21,0,0,0-.18-.84l-.3,0,.18.91Z" transform="translate(-11.84 -18.11)"/><path class="cls-4" d="M418.76,525.76l.15-.15a2.64,2.64,0,0,0-.41-.3l-.07.07Z" transform="translate(-11.84 -18.11)"/><path class="cls-5" d="M579.38,299.51a43.94,43.94,0,0,0-.38-7.11c-.39-2.12,0-4.38-.1-6.57s-.33-4.26-.5-6.39l.17,0A48.75,48.75,0,0,1,578,274c0-2.16-.87-4.22-.51-6.39,0-.08,0-.19,0-.23-.77-.77-.35-1.75-.47-2.63a20.57,20.57,0,0,1-.44-2.86c0-1.61-.85-3.11-.5-4.75-.92-2.14-.79-4.49-1.34-6.72-.64-2.58-1-5.25-1.48-7.87-.13-.65-.33-1.28-.46-1.92a48.62,48.62,0,0,0-1.1-5.43c-1-3.13-1.65-6.35-2.56-9.51s-1.79-6.18-2.63-9.28c-1.14-4.19-2.77-8.25-4.26-12.34-.94-2.59-1.85-5.19-2.93-7.73-.48-1.14-1.12-2.22-1.5-3.37a61,61,0,0,0-2.82-6.6c-1-2.22-1.81-4.58-2.91-6.79-1.89-3.77-4-7.45-5.76-11.26-1.66-3.5-3.68-6.8-5.6-10.13-2.2-3.81-4.5-7.58-7-11.24-2-2.94-3.75-6.05-6-8.8-2.74-3.39-5.13-7-7.85-10.44-2.15-2.69-4.36-5.35-6.46-8.1-1.89-2.48-4.17-4.66-6.11-7.13-.58-.73-1.35-1.31-2-2s-.93-1.76-1.52-1.86c-1.24-.22-1.13-1.34-1.76-1.92-4.36-4-8.18-8.55-12.78-12.32-2.2-1.8-4-4-6.3-5.81-1.81-1.43-3.35-3.2-5.18-4.59-1-.79-1.89-1.82-3-2.51-3.34-2.17-6.21-4.93-9.45-7.23-2.31-1.63-4.57-3.34-6.9-4.95-2.08-1.43-4.13-2.9-6.21-4.32a65.34,65.34,0,0,0-7.41-4.85c-3.22-1.59-6.11-3.72-9.27-5.4-2.44-1.29-4.83-2.77-7.29-4-4.84-2.47-9.6-5.14-14.68-7.14-2.22-.87-4.33-2-6.5-3a24.72,24.72,0,0,0-2.81-1.15c-2.77-.89-5.38-2.15-8.1-3.18q-3.36-1.27-6.74-2.48c-1.37-.49-2.76-.91-4.12-1.42s-2.93-.86-4.37-1.37a71.52,71.52,0,0,0-7.51-2.28c-3.37-.77-6.62-2-10-2.51-1.44-.22-2.85-.69-4.31-1s-2.81-.91-4.33-.87c-.71-.85-1.74-.27-2.58-.58a46.4,46.4,0,0,0-5.82-1.28c-1.39-.31-2.93-.09-4.25-.56-2.35-.83-4.83-.68-7.21-1.29A33.38,33.38,0,0,0,329.3,20c-.23,0-.54.09-.69,0-.89-.67-1.91-.37-2.87-.47s-1.91-.37-2.87-.44c-1.82-.13-3.68.26-5.45-.49-3.41.36-6.75-.54-10.16-.5-7.06.09-14.11,0-21.17.05-2.21,0-4.41-.28-6.65.37-1.37.4-3,0-4.45.09s-2.85.42-4.28.43c-2.46,0-4.86.84-7.33.5-.08,0-.18,0-.23,0-1.39.93-3.05.39-4.58.85a26.77,26.77,0,0,1-5.43.55c-.16,0-.4-.06-.46,0-.88,1.09-2.18.08-3.25.73s-2.4-.05-3.47.67c-2.21-.13-4.26.8-6.42,1a26.69,26.69,0,0,0-3.86.83c-1.35.37-2.71.65-4.08,1-1.66.36-3.36.57-5,1.09-2.57.83-5.21,1.45-7.81,2.13-3.6,1-7.13,2.14-10.69,3.2-4.45,1.32-8.79,3-13.13,4.64-2.5.95-5,2.06-7.46,3-4.09,1.53-8,3.32-12,5.15q-8.8,4.09-17.29,8.8a14.13,14.13,0,0,0-1.76.85c-3.24,2.45-6.93,4.15-10.34,6.34s-6.49,4.3-9.82,6.32c-2.35,1.43-4.5,3.17-6.73,4.79-1.81,1.32-3.6,2.67-5.41,4s-3.4,2.8-5.16,4.08c-1.95,1.41-3.79,2.95-5.63,4.47-2.41,2-4.74,4.09-7.12,6.12s-4.86,4.32-7.13,6.65c-3.91,4-8.16,7.68-11.69,12.08-1.44,1.8-3.19,3.32-4.69,5.1-2,2.33-4.05,4.56-5.95,7-1,1.32-2.22,2.53-3.31,3.81a22.3,22.3,0,0,0-2.29,2.82c-1,1.73-2.39,3.23-3.55,4.88-1.46,2.07-3,4.1-4.48,6.14a14.21,14.21,0,0,0-1.39,1.78c-1.11,2.18-2.74,4-4,6.12-1,1.66-2.19,3.16-3.1,4.84-1.53,2.83-3.28,5.55-5,8.27-2.31,3.74-4.16,7.71-6.32,11.52a113,113,0,0,0-5.7,11.75c-1,2.27-2.25,4.4-3.15,6.69-.77,2-1.57,3.89-2.43,5.82s-1.41,4-2.24,5.89-1.4,3.81-2,5.74q-2.1,6.31-4.14,12.64c-.53,1.66-1,3.36-1.44,5-.31,1.13-.75,2.22-1,3.36s-.62,2.27-.84,3.41c-.3,1.52-.83,3-1.07,4.51-.3,2-.86,3.87-1.31,5.81a72.63,72.63,0,0,0-1.44,7.15c-.3,2.38-.85,4.72-1.11,7.12a20,20,0,0,1-.46,3.55,12.51,12.51,0,0,0-.4,2.18c-.1.8-.37,1.59-.44,2.4-.2,2-.33,4.1-.48,6.16,0,.16.06.36,0,.46-.73,1-.52,2.07-.43,3.1a17.83,17.83,0,0,1-.49,3.1c-.17,2.13-.1,4.25-.38,6.4-.48,3.65,0,7.38-.5,11.09a46,46,0,0,0-.05,7.75,44.71,44.71,0,0,0,.37,7.59,24.69,24.69,0,0,1,0,6.57c-.17,2.26.7,4.4.5,6.63-.22,2.47.84,4.86.48,7.33a.39.39,0,0,0,0,.23c1.08,1.7.19,3.68.84,5.53.59,1.66.26,3.63.61,5.41a18.74,18.74,0,0,0,.52,3.3,10.19,10.19,0,0,1,.37,2.44c.15.8.33,1.59.46,2.39a25.16,25.16,0,0,0,.59,3.76c.62,1.91.8,3.89,1.27,5.82s.87,3.87,1.34,5.8c.55,2.21.91,4.47,1.55,6.66.47,1.61.74,3.26,1.33,4.85a30.08,30.08,0,0,1,1.38,4.82c.39,2,1.53,3.87,1.6,6,.92.81.69,2.06,1.14,3.06s.73,2.21,1.1,3.31a59,59,0,0,0,2.12,5.94c1.63,3.48,2.39,7.33,4.46,10.62.2,1.86,1.26,3.42,2,5.06a46.15,46.15,0,0,0,2.28,5.17c1.11,1.88,1.86,3.94,2.89,5.87.76,1.41,1.36,2.88,2.21,4.27,1.78,2.91,3.18,6,4.78,9.06.68,1.29,1.41,2.56,2.17,3.8,1.61,2.63,3.26,5.24,4.87,7.86a38.89,38.89,0,0,0,2.65,4.3c1.14,1.4,1.93,3,3,4.42,2.24,3,4.2,6.16,6.6,9a47.14,47.14,0,0,1,3.27,4.29c2,3,4.47,5.68,6.74,8.49,1.2,1.49,2.68,2.78,3.76,4.34a33.31,33.31,0,0,0,2.54,2.94c.85,1,1.59,2.05,2.51,2.95,7.75,7.53,15,15.58,23.35,22.52,2.92,2.43,5.78,4.92,8.75,7.3,2.11,1.69,4.27,3.33,6.4,5,3.93,3.09,8,5.94,12.13,8.79q3.36,2.34,6.86,4.46c2.38,1.44,4.68,3,7.12,4.38a42.56,42.56,0,0,0,4.19,2.39,11.19,11.19,0,0,1,1.34.74c1.7,1,3.34,2.13,5.11,3,6.11,3,12.14,6.24,18.4,9a12.27,12.27,0,0,0,1.74.91,42.29,42.29,0,0,1,6.85,2.78c3.19,1.4,6.49,2.52,9.73,3.76,4.33,1.67,8.84,2.89,13.28,4.3,2.29.73,4.59,1.41,6.9,2.1,3.3,1,6.64,1.76,10,2.58,1.64.4,3.34.72,5,1.14s3.44.85,5.13,1.15c2.13.37,4.2,1.25,6.42,1,2.11,1.06,4.55.58,6.71,1.41,1.18-.32,2.19.5,3.33.48a15,15,0,0,1,3.35.4,47.68,47.68,0,0,0,5.91.54c.16,0,.36-.06.46,0,1.11.82,2.39.32,3.58.46s2.38.35,3.57.46c1.74.16,3.47-.09,5.24.4,1.38.38,3,0,4.45.09s3,.39,4.51.43c2.66.07,5.33,0,8,0s5.49-.07,8.23,0,5.17-.61,7.81-.55c3.54.08,7.08-.25,10.63-.41.16,0,.37.07.46,0,1-.75,2.07-.34,3.11-.47s2.22-.35,3.34-.46a52.26,52.26,0,0,0,5.67-.55,7,7,0,0,1,2.64-.36c1,.18,1.72-.48,2.63-.53,1.43-.07,3,0,4.23-.54s2.48-.13,3.7-.76,2.71-.21,4-.62c1.06-.34,2.16-.38,3.23-.7a41.68,41.68,0,0,1,6.88-1.53c1.79-.22,3.43-.88,5.17-1.22,2-.38,3.91-1.18,5.9-1.64,2.64-.6,5.21-1.44,7.81-2.18,3.14-.9,6.24-2,9.33-3,4-1.37,7.94-2.76,11.81-4.43,2-.86,4-1.68,6-2.53,1.72-.74,3.46-1.5,5.22-2.16s3.56-1.62,5.33-2.46c5.24-2.52,10.44-5.13,15.52-8,.88-.5,1.86-.83,2.73-1.35,2.71-1.62,5.38-3.3,8.06-5,2.31-1.44,4.62-2.86,6.9-4.35s4.8-3.19,7.18-4.82c2.14-1.47,4.33-2.89,6.36-4.51,2.29-1.84,4.71-3.52,7-5.4,1.89-1.57,3.84-3.11,5.83-4.58,2.26-1.68,4.16-3.8,6.44-5.48.81-.6,1.43-1.45,2.19-2.13s1.82-1.08,2.22-1.88c.49-1,1.42-1.23,2.08-1.9,4.87-5,9.84-9.9,14.77-14.84.33-.33.81-.61,1-1,.54-1.38,1.82-2.06,2.69-3.12s1.76-2.1,2.66-3.13c1.32-1.5,2.72-2.93,4-4.48,2.32-2.86,4.57-5.78,6.83-8.7,1.14-1.48,2.24-3,3.32-4.51,1.25-1.75,2.42-3.55,3.69-5.29.76-1,2-1.88,2.34-3,.42-1.3,1.41-2.08,2-3.15,1.27-2.14,2.57-4.3,4-6.35,2-2.86,3.51-5.94,5.35-8.86.92-1.47,1.44-3.23,2.47-4.6a39.37,39.37,0,0,0,2.93-5.39c1-1.86,2-3.71,2.89-5.62,1.53-3.29,3.17-6.52,4.63-9.85a33.05,33.05,0,0,0,2.08-4.54c.33-1.25,1.1-2.23,1.48-3.4,1.33-4.15,3.27-8.07,4.43-12.28.73-2.66,1.91-5.17,2.74-7.81A16.83,16.83,0,0,1,567,384a18.17,18.17,0,0,0,1.1-3.77c.48-1.53,1-3.07,1.32-4.61.47-2.24,1.45-4.36,1.49-6.69.92-.67.27-1.83.87-2.72.49-.73.35-1.87.55-2.81a16.28,16.28,0,0,1,.75-2.75,22.29,22.29,0,0,0,.53-2.82,16.2,16.2,0,0,0,.61-2.83,10.6,10.6,0,0,1,.5-3.08c.39-1,.16-2,.48-2.86.44-1.21.12-2.48.5-3.56.3-.84.2-1.64.41-2.42a10.86,10.86,0,0,0,.47-2.63c0-.8.35-1.59.43-2.39.2-2,.33-4.1.48-6.16,0-.16-.06-.37,0-.46.75-1,.52-2.08.42-3.1s.46-2.05.51-3.1a42.43,42.43,0,0,1,.39-6.41,22.45,22.45,0,0,0,0-6.1c-.16-2,.53-3.93.51-5.92C579.37,304.37,579.43,301.94,579.38,299.51Zm-4.32,14.32c-.2,2.61-.05,5.24-.45,7.8-.29,1.83-.08,3.7-.48,5.44a30.46,30.46,0,0,0-.4,4.29c-.08.88-.35,1.75-.44,2.63s.18,1.84-.47,2.63c-.08.09,0,.31,0,.46a9.87,9.87,0,0,1-.4,3.36c-.42,1-.06,2.18-.47,3.33a21.47,21.47,0,0,0-.56,4.25c-.08.57-.33,1.12-.45,1.69s.25,1.27-.42,1.71a13.24,13.24,0,0,1-.54,3.78c-.42,1.86-.77,3.74-1.22,5.6-.39,1.64-.7,3.31-1.12,5-.75,2.9-1.44,5.82-2.22,8.72-.44,1.63-1.08,3.19-1.46,4.8s-1.07,3.06-1.38,4.61c-.93,4.68-3.05,8.95-4.44,13.47-.74,2.39-1.79,4.74-2.75,7.09-1.56,3.83-3.32,7.57-4.93,11.37-1.22,2.88-2.74,5.6-4,8.44s-2.67,5.66-4.24,8.36q-3.9,6.75-7.84,13.47c-2.72,4.64-5.75,9.06-8.68,13.54-1.75,2.67-3.73,5.23-5.68,7.8-2.28,3-4.63,5.93-7,8.85s-4.85,5.84-7.28,8.76c-1.64,2-3.58,3.64-5.19,5.6a139.09,139.09,0,0,1-11.34,11.69,68.49,68.49,0,0,1-7.68,6.85,10.77,10.77,0,0,0-1.34,1.32,47.58,47.58,0,0,1-5.58,4.68c-1.09.81-2.06,1.8-3.12,2.67-3.26,2.66-6.67,5.1-10,7.66-4.72,3.64-9.67,6.93-14.59,10.25-2.31,1.55-4.75,2.9-7.13,4.34s-5,3.1-7.54,4.52c-3.24,1.8-6.55,3.48-9.84,5.19-2.77,1.44-5.5,3-8.38,4.18-2.15.89-4.17,2.07-6.35,2.84s-4,2.1-6.3,2.4c-3.08,1.83-6.63,2.54-9.82,4.12a36.27,36.27,0,0,1-4.54,1.53c-1.58.53-3.15,1.11-4.73,1.62-1.8.58-3.62,1.12-5.43,1.66-.7.21-1.47.24-2.15.49a76.07,76.07,0,0,1-10.12,2.82c-2.13.49-4.2,1.27-6.35,1.68-1.74.34-3.46.73-5.19,1.13a23.4,23.4,0,0,0-3.87.87c-.53.22-1.24,0-1.85.08s-1.12.32-1.69.45c-2.46.55-5,.69-7.43,1.36-1.13.31-2.36.17-3.57.45a45.35,45.35,0,0,1-5.67.55c-1,.1-1.91.3-2.86.46s-2-.43-2.88.45c-.11.12-.45,0-.69,0-3.31.15-6.65.05-9.91.53-4.81.71-9.6.28-14.4.39s-9.72,0-14.58,0c-3.24,0-6.43-.81-9.68-.47-1.69-.74-3.59,0-5.18-.57-1.85-.63-3.71-.11-5.56-.75s-3.76-.38-5.65-.58c-.81-.08-1.6-.3-2.39-.46s-1.64.28-2.45-.37c-.39-.31-1.21,0-1.82-.12a12.61,12.61,0,0,0-1.69-.43c-2.28,0-4.38-.92-6.66-1.06a20.94,20.94,0,0,1-4.76-1c-1.45-.44-3.09-.35-4.39-1.3-3.16,0-6.06-1.31-9.08-2-2.47-.52-4.87-1.55-7.33-2.11-3-.68-5.75-2.26-8.85-2.52a16.75,16.75,0,0,0-4-1.58c-4.69-1.73-9.41-3.37-14-5.39-2-.87-4-1.64-6-2.47-6.37-2.64-12.54-5.73-18.63-9-2.45-1.29-4.85-2.73-7.28-4-3.15-1.7-6.17-3.62-9.28-5.38-3.46-2-6.71-4.29-10-6.53-4.13-2.81-8.18-5.72-12.13-8.79-1.42-1.11-2.83-2.26-4.29-3.29-2.22-1.57-4.11-3.53-6.35-5.06a31.23,31.23,0,0,1-3.31-2.81c-2.23-2-4.34-4.19-6.65-6.13A197.46,197.46,0,0,1,91.89,492a38.38,38.38,0,0,1-5.38-6.21,3.11,3.11,0,0,0-.49-.5c-2.07-2-3.73-4.44-5.71-6.55-1.78-1.9-3.27-4-4.88-6-2.14-2.66-4.11-5.48-6.15-8.22-2.75-3.71-5.28-7.55-7.87-11.36-1.49-2.19-2.87-4.45-4.26-6.7-1.66-2.68-3.27-5.38-4.89-8.09-.37-.62-.67-1.29-1-1.94-3.16-6.14-6.45-12.22-9.42-18.45-1.46-3.06-2.82-6.19-4-9.38-.78-2-1.72-4-2.5-6-1-2.64-2.11-5.25-3.06-7.9-.86-2.39-1.58-4.84-2.37-7.25-.61-1.86-1.34-3.69-1.85-5.58s-1-3.84-1.54-5.73c-.62-2.25-1.12-4.54-1.82-6.76s-.84-4.46-1.83-6.53c.22-1.92-.7-3.65-1-5.47a31.81,31.81,0,0,0-1.26-5.81c-.37-1-.07-2-.47-3.1a19.78,19.78,0,0,1-.56-4.24c-.11-.8-.34-1.59-.45-2.4s.19-1.54-.47-2.17c-.08-.07,0-.3,0-.46a41.42,41.42,0,0,0-.53-5.91c-.36-1.6-.1-3.24-.48-4.74-.43-1.69-.07-3.39-.46-5-.61-2.53,0-5.12-.49-7.57-.61-3-.28-6-.37-9s0-6.27,0-9.41a71.4,71.4,0,0,1,.09-9.16c.33-2.54.07-5.09.45-7.57.28-1.83.12-3.69.47-5.45.33-1.6.15-3.21.46-4.75a31.47,31.47,0,0,0,.43-3.82c.1-1.27.32-2.55.54-3.79a25,25,0,0,1,.44-3.33c.37-1.13.09-2.34.49-3.32s0-2.05.54-2.82c.63-1-.14-2.1.49-2.85s-.28-2.08.77-2.75c-.12-2.06.62-4,1-5.95A61.85,61.85,0,0,1,24,234.94c.43-1.32.73-2.69,1-4,.42-1.87,1-3.67,1.5-5.51.72-2.67,1.45-5.35,2.36-8,1.35-3.91,2.58-7.85,4-11.74,1.33-3.6,2.82-7.15,4-10.81.39-1.21,1.09-2.36,1.59-3.57.79-1.94,1.73-3.83,2.59-5.75A127.3,127.3,0,0,1,46.8,174c1.6-2.78,3-5.68,4.61-8.46,1.47-2.5,2.83-5.1,4.33-7.6,2-3.28,4-6.5,6.08-9.71,1.36-2.11,2.82-4.17,4.26-6.24s2.9-4.14,4.39-6.18c1.67-2.29,3.44-4.5,5-6.84.9-1.31,2.1-2.41,3.09-3.67,2-2.49,4.22-4.75,6-7.39a2.91,2.91,0,0,1,.33-.34Q89,113.31,93.09,109c.81-.85,2-1.53,2.39-2.53s1.71-1.12,1.92-2.23c.16-.85,1.59-.58,1.61-1.64,2.73-1.72,4.51-4.48,7-6.45,2.15-1.71,3.94-3.81,6.21-5.39a55.1,55.1,0,0,0,4.16-3.62,60.32,60.32,0,0,1,6-4.92c1.14-.74,2.08-1.7,3.16-2.49,1.75-1.26,3.55-2.48,5.25-3.8s3.74-2.75,5.63-4.08c3.38-2.39,6.74-4.85,10.3-7,3.84-2.27,7.6-4.65,11.52-6.79,6.07-3.31,12.18-6.54,18.4-9.55a58.16,58.16,0,0,1,5.33-2.46c1.77-.65,3.55-1.36,5.22-2.16,2.7-1.29,5.51-2.22,8.26-3.36,3.62-1.5,7.3-2.84,11-4.07s7.46-2.44,11.22-3.58c2-.62,4.11-1,6.16-1.61,2.82-.79,5.68-1.39,8.49-2.2,1.62-.47,3.3-.75,5-1.07,1.1-.21,2.42,0,3.28-.56,1.05-.67,2.17-.16,3.24-.77s2.49-.38,3.75-.57c.73-.11,1.44-.32,2.16-.46s1.27.05,2-.35c.86-.49,2.12.2,3-.59,1.71.36,3.28-.57,5-.51a16.21,16.21,0,0,0,3.1-.44c1-.16,2.18.42,3.1-.46,0,0,.15,0,.23,0,2.48.35,4.87-.68,7.73-.44,1.42-.14,3.23-.39,5-.49s3.67.28,5.4-.09c2.93-.62,5.84-.31,8.76-.39s5.83,0,8.74,0a17.41,17.41,0,0,1,4.15.22,18.73,18.73,0,0,0,3.89.23c1.41.08,2.89-.26,4.22.08,2.07.53,4.16.1,6.16.48,1.6.3,3.21.15,4.74.47,1.28.27,2.59.15,3.8.46s2.59.17,3.8.48,2.29.15,3.33.47,2.38.05,3.32.49c1.28.59,2.64.14,3.92.78.92.45,2.19.11,3.31.51s2.41,0,3.27.6c1.05.67,2.35-.16,3.19.86,2-.23,3.78.79,5.72,1A48.18,48.18,0,0,1,365,30.71c2.13.55,4.31.92,6.4,1.59,1.6.51,3.24.88,4.83,1.39q5.71,1.82,11.38,3.76c2.33.8,4.59,1.8,6.93,2.56,1.8.59,3.48,1.47,5.25,2.08s3.56,1.32,5.27,2c2,.84,4,1.81,5.94,2.69,4.92,2.18,9.73,4.56,14.46,7.11,2.44,1.32,4.91,2.57,7.3,4,2,1.19,4.06,2.3,6.06,3.51q5.27,3.2,10.46,6.54c2.12,1.36,4.17,2.83,6.23,4.27s4.12,2.92,6.19,4.37c1.71,1.2,3.24,2.62,5,3.69a31,31,0,0,1,3,2.46c2.38,1.86,4.66,3.84,7.05,5.68,1.33,1,2.53,2.22,3.81,3.31,4.15,3.54,7.94,7.45,11.76,11.34.71.72,1.62,1.15,2.21,2.08A16.15,16.15,0,0,0,497,107.7L499.3,110c.78.78,1.58,1.52,2.32,2.34s1.57,1.85,2.34,2.79,1.82,1.43,2.19,2.62c.08.26.42.45.64.67,1.9,1.88,3.45,4.06,5.2,6.05a77.18,77.18,0,0,1,4.89,6c2.33,3.27,4.8,6.44,7.12,9.72s4.35,6.38,6.54,9.56c2,2.9,3.68,6,5.57,9,1.61,2.53,2.81,5.31,4.58,7.76a23.69,23.69,0,0,1,1.2,2.55c2,3.57,4,7.11,5.64,10.84.62,1.39,1.2,2.8,1.84,4.18s1.35,2.71,1.91,4.15c.67,1.74,1.53,3.44,2.28,5.17,1.71,3.93,3.19,7.93,4.7,11.93,1.75,4.63,3.27,9.32,4.75,14,.83,2.65,1.65,5.29,2.27,8,.44,1.92,1.15,3.77,1.58,5.7s1,3.54,1.27,5.36c.28,1.67.73,3.31,1.1,5a26.17,26.17,0,0,0,.69,3.23c.42,1.17.06,2.7.66,3.72s-.26,2.52.81,3.44c-.34,1.4.49,2.66.5,4a14,14,0,0,0,.44,2.39c.15.8-.37,1.72.46,2.4.08.06,0,.3,0,.46a38.07,38.07,0,0,0,.53,5.44c.37,1.6.11,3.23.48,4.74.45,1.84.07,3.7.46,5.45.56,2.54,0,5.1.47,7.57.79,4.57.27,9.13.39,13.69A134,134,0,0,1,575.05,313.82Z" transform="translate(-11.84 -18.11)"/><path class="cls-6" d="M538.46,278.17c0-.16.07-.38,0-.46-.85-.85-.31-1.92-.46-2.87s-.36-1.9-.46-2.86c-.19-1.89-.32-3.79-.48-5.68,0-.15,0-.38,0-.44-.72-.53-.3-1.3-.43-1.95s-.36-1.28-.46-1.92c-.34-2.22-.5-4.48-1-6.65a19.12,19.12,0,0,0-.47-2.62,35.29,35.29,0,0,1-.87-3.87c-.36-1.27-.55-2.59-1-3.83a34.56,34.56,0,0,1-.81-3.64c-.3-1.29-.75-2.54-1.05-3.82a57.14,57.14,0,0,0-1.59-6.16c-2.32-6.41-4.15-13-6.81-19.29-1.69-4-3.11-8.13-5.13-12a8,8,0,0,1-1-1.94c-.4-2-1.69-3.54-2.41-5.36a43.05,43.05,0,0,0-2.69-5.23c-1.17-2.1-2.2-4.28-3.42-6.36-2.07-3.54-4.12-7.1-6.38-10.51-3.73-5.64-7.43-11.31-11.68-16.61-2-2.5-3.94-5.09-5.94-7.61-1.84-2.32-3.84-4.54-5.79-6.79-1.56-1.8-3.21-3.55-4.86-5.25-3.79-3.9-7.43-8-11.7-11.4-1.92-1.54-3.6-3.36-5.44-5-2.71-2.45-5.57-4.7-8.42-7-2.64-2.1-5.24-4.25-8-6.15-2.53-1.72-4.87-3.73-7.4-5.44-3.1-2.1-6.31-4.05-9.49-6-2-1.23-4-2.47-6.07-3.51-1.77-.87-3.31-2.22-5.09-3-3.1-1.44-6.05-3.15-9.16-4.58s-5.94-3.1-9.06-4.25-6-2.59-9.09-3.65c-2.87-1-5.68-2.18-8.59-3.11-3.6-1.15-7.13-2.51-10.79-3.48-2-.54-4-1.23-6.12-1.69-1.49-.33-2.93-.9-4.41-1.26-1.72-.42-3.47-.7-5.2-1.08s-3.41-.87-5.13-1.25a19.74,19.74,0,0,0-3.51-.59c-1.37-.05-2.63-.84-4-.5-2.13-1-4.51-.74-6.72-1.36-1.2-.33-2.52-.11-3.81-.46s-2.52-.24-3.8-.46c-1.78-.32-3.62-.13-5.45-.48s-4,.23-5.91-.53c-3.86,0-7.71-.09-11.57-.38-3.19-.24-6.49-.54-9.68.38-4.9-.28-9.77.35-14.65.47-.47,0-1.06-.18-1.39,0-.93.62-1.92.34-2.89.45s-2.06.35-3.1.45c-1.89.19-3.79.32-5.69.48-.08,0-.2,0-.23,0-.6.74-1.43.36-2.16.47s-1.59.35-2.39.45a26.07,26.07,0,0,0-4.26.53c-2.06.64-4.23.6-6.26,1.33-1,.35-2.23.07-3,.57-1,.64-2.33-.07-3.18.87-2,.27-3.86.9-5.79,1.33-3.3.73-6.47,1.87-9.77,2.6-2.11.47-4,1.68-6.16,2.12a51.45,51.45,0,0,0-6.45,2.07c-2.58.9-5.09,2.12-7.65,3.1-3.8,1.46-7.54,3-11.2,4.77-3.27,1.57-6.55,3.11-9.81,4.71-3,1.48-5.93,3.12-8.83,4.77-2,1.12-3.88,2.45-5.83,3.6q-5.14,3-10,6.41c-2.27,1.56-4.43,3.28-6.73,4.79a50.69,50.69,0,0,0-5,3.72c-1.91,1.63-4,3-5.85,4.73-1.64,1.54-3.61,2.75-5.21,4.38a5.54,5.54,0,0,1-1.18,1.14,9.61,9.61,0,0,0-2.29,1.85c-.77.77-1.56,1.51-2.37,2.23s-1.44,1.1-2.05,1.74c-3.74,4-7.92,7.48-11.35,11.75-1.64,2-3.74,3.66-5.32,5.8-1.18,1.6-2.84,2.87-3.9,4.52-.91,1.42-2.28,2.37-3.11,3.87a22.62,22.62,0,0,1-3.13,4.11c-1,1.07-1.66,2.3-2.51,3.43s-1.79,2.39-2.64,3.62c-2.82,4.07-5.51,8.21-8.19,12.36-2.82,4.38-5.24,9-7.77,13.5-2.87,5.14-5.28,10.51-7.78,15.84a29.31,29.31,0,0,0-1.57,3.58c-1,3.2-2.37,6.24-3.54,9.36-1.45,3.88-2.57,7.86-4.05,11.73-1,2.6-1.55,5.32-2.35,8a17,17,0,0,0-.9,2.67c-.3,2.43-1.53,4.67-1.44,7.17-.93.67-.33,1.82-.84,2.72a11.66,11.66,0,0,0-.55,2.58,12.57,12.57,0,0,1-.54,2.83c-.57,1.1-.19,2.25-.54,3.31a32,32,0,0,0-1.22,6.53c-.2,1.73-.89,3.42-.54,5.21-.64,1-.2,2.28-.54,3.31a7.77,7.77,0,0,0-.38,3.12,15.81,15.81,0,0,1-.47,3.1c-.19,1.81.06,3.62-.41,5.47-.4,1.55,0,3.28-.1,4.92s-.4,3.32-.43,5c-.07,3.45.09,6.9-.05,10.35s.41,6.77.51,10.16.3,6.61.46,9.92c0,.16-.07.38,0,.46a2.88,2.88,0,0,1,.42,2.63c-.15,1.06.45,1.9.52,2.87.13,1.82.31,3.63.46,5.45,0,.15-.05.38,0,.45.8.69.31,1.61.45,2.41a16.23,16.23,0,0,1,.44,2.39c0,1.37.82,2.64.5,4,.92.87.32,2.13.86,3.18s.34,2.35.56,3.53.57,2.12.83,3.18c.36,1.5.71,3,1,4.51.45,2.16.91,4.34,1.55,6.43,1.06,3.48,2,7,3.16,10.44a71.69,71.69,0,0,0,2.47,7.44c1.14,2.51,2.06,5.11,3.1,7.66,1.5,3.69,3,7.4,4.68,11,3.27,6.9,6.63,13.76,10.46,20.37,1.32,2.28,2.56,4.61,4,6.8,3,4.51,6.05,9,9.14,13.39,1.46,2.09,3.06,4.08,4.6,6.11,1.69,2.22,3.41,4.4,5.2,6.53a33.46,33.46,0,0,1,3.1,3.67A24.08,24.08,0,0,0,113,462c.89,1,1.73,2.13,2.67,3.12,1.29,1.37,2.65,2.67,4,4a54.4,54.4,0,0,1,4,4c1.15,1.41,2.6,2.47,3.86,3.74,1.78,1.81,3.58,3.6,5.55,5.25,2.57,2.16,5,4.49,7.64,6.6,2.23,1.8,4.49,3.56,6.72,5.34,3.91,3.12,8,6,12.14,8.78,2.09,1.4,4.11,2.91,6.3,4.12,2.82,1.56,5.55,3.28,8.27,5,3.37,2.07,7.11,3.49,10.28,5.89,1.88.22,3.34,1.41,5,2.17,3.29,1.52,6.54,3.14,9.84,4.63,2.38,1.07,4.84,1.93,7.24,3,2.12.9,4.35,1.61,6.51,2.45,1.28.5,2.61.87,3.89,1.39s2.55.66,3.8,1,2.58,1,3.92,1.31,2.69.78,4,1.11c1.76.44,3.56.84,5.27,1.45s3.64.69,5.34,1.3,3.57.81,5.33,1.31,3.84.55,5.7,1c1,.25,2.14.07,2.81.53,1.13.78,2.52-.25,3.44.83,1.25-.28,2.37.36,3.57.47,1.89.17,3.79.32,5.69.47.16,0,.39-.07.46,0,.68.83,1.63.52,2.4.41,1-.14,1.72.52,2.63.53,1.82,0,3.69-.3,5.45.45,3.33-.35,6.6.57,9.92.48,8.56-.22,17.13.45,25.68-.48.86,0,1.73.06,2.59,0a16.51,16.51,0,0,1,2.39-.42c2.48.16,4.86-.86,7.34-.51.15,0,.39.06.45,0,.61-.77,1.45-.32,2.17-.45s1.59-.36,2.39-.46a26.31,26.31,0,0,0,5-.57c1.13-.36,2.26-.13,3.3-.52a23.59,23.59,0,0,1,3.67-.78,30.72,30.72,0,0,0,3.77-.57c2.45-.85,5-1,7.48-1.83,1.34-.45,2.77-.42,4.09-.91a25.3,25.3,0,0,1,2.9-.93c2.71-.63,5.35-1.44,8-2.28,1.67-.53,3.36-1,5-1.51q3.3-1.11,6.55-2.35c2.37-.91,4.73-1.85,7.09-2.75q6-2.29,11.78-5.07c6.55-3.15,13.1-6.32,19.39-10,2.78-1.63,5.6-3.21,8.26-5,4.81-3.21,9.71-6.31,14.28-9.88,3.68-2.87,7.44-5.63,11-8.64,1.23-1,2.34-2.23,3.62-3.17a76.74,76.74,0,0,0,6-5.18c1.63-1.47,3.1-3.11,4.68-4.63.65-.62,1.47-1.06,2.11-1.69s1-1.61,1.69-2,1.08-1.33,1.75-1.88,1.46-1.42,2.18-2.14l2.16-2.16c.22-.22.53-.4.65-.67.57-1.32,1.77-2.1,2.67-3.13s1.88-2.2,2.83-3.29c1.16-1.33,2.39-2.59,3.48-4,2-2.53,3.89-5.13,5.84-7.69,1.58-2.09,3.34-4.07,4.72-6.29,3.29-5.3,7-10.32,10-15.83,1.84-3.39,4-6.63,5.72-10.11,2.66-5.4,5.67-10.64,7.83-16.28.29-.74.59-1.48.95-2.2s.68-1.61,1-2.41c.86-2.08,1.58-4.21,2.42-6.29,1.53-3.77,2.93-7.58,4.1-11.48.8-2.65,1.58-5.31,2.39-8,.71-2.31,1.3-4.64,1.87-7,.52-2.15.92-4.34,1.51-6.44.68-2.41.76-4.95,1.75-7.26-.22-2.3,1-4.39,1-6.67a16,16,0,0,1,.43-1.69c.08-.7-.23-1.55.07-2.09.62-1.12,0-2.39.49-3.33.58-1.16.24-2.26.39-3.37,0-.31-.13-.75,0-.92.8-.88.3-1.93.45-2.88s.37-1.9.46-2.86a31.62,31.62,0,0,1,.4-5.23c.39-1.55,0-3.28.1-4.92s.4-3.32.43-5c.07-3.37-.12-6.75.06-10.11s-.54-6.76-.54-10.16C538.89,284.62,538.61,281.39,538.46,278.17Zm-6.66,40.69c-.35,1.76-.13,3.53-.47,5.22-.27,1.36-.22,2.72-.45,4s-.18,2.75-.5,4c-.59,2.38-.32,4.91-1.34,7.2.22,1.24-.28,2.38-.46,3.57s0,2.7-.57,3.76-.14,2.19-.78,3.23c-.51.81-.32,2-.55,3.05-.47,2.07-1,4.13-1.52,6.19-.4,1.55-.92,3.08-1.25,4.65-.11.52-.35,1-.47,1.45-1.42,5.58-3.36,11-5.27,16.41-1,2.72-2,5.43-3.17,8.09a65.79,65.79,0,0,0-2.91,7.27,15.78,15.78,0,0,1-1.06,2.15,25.93,25.93,0,0,0-1.89,4.16c-.3,1.09-1.23,2-1.72,3-1,2.19-2.28,4.22-3.3,6.4a51.89,51.89,0,0,1-3.06,5.32c-1.26,2-2.29,4.24-3.56,6.28-2.16,3.44-4.31,6.88-6.71,10.18-1.74,2.38-3.47,4.79-5.08,7.28-1.19,1.83-2.75,3.41-4.11,5.13-1.68,2.12-3.3,4.29-5,6.39-1.16,1.43-2.43,2.76-3.65,4.14-4.42,5-9.24,9.7-14,14.44a34.06,34.06,0,0,1-4.11,3.69c-1.42,1-2.44,2.51-4,3.51a39.05,39.05,0,0,0-4,3.45,20.44,20.44,0,0,1-3.33,2.77c-1.22.66-1.84,2-3.24,2.39-1.86,1.89-4.16,3.21-6.24,4.81-.94.72-2,1.33-2.93,2-2.07,1.44-4.1,2.93-6.22,4.31-2.34,1.52-4.79,2.86-7.11,4.4s-5.1,2.9-7.53,4.57a27.44,27.44,0,0,1-3.87,2,44,44,0,0,0-5.22,2.76c-1.24.8-2.78,1.18-4.15,1.89a88,88,0,0,1-8.69,4c-3.18,1.23-6.31,2.56-9.54,3.69-2.65.93-5.24,2.14-7.93,3-4,1.24-8,2.62-12.17,3.61-2.48.59-5,1.24-7.41,2-1.7.52-3.46.64-5.14,1.21a32,32,0,0,1-6.24,1.32c-2.39.3-4.67,1.22-7.12,1.09a7.44,7.44,0,0,0-1.92.44c-.65.15-1.41-.33-2,.36-.07.09-.27.1-.42.11-2,.16-3.95.29-5.92.48-1.12.11-2.22.33-3.34.46s-2.23-.14-3.36.41c-.7.34-1.69.06-2.79.06-9.73.95-19.71.23-29.68.51-1.34,0-2.51-.56-3.81-.52a13.37,13.37,0,0,1-4-.07,20.81,20.81,0,0,0-4.29-.41c-1-.08-1.91-.34-2.87-.45s-2,.24-2.86-.48c-1.63.34-3.17-.32-4.74-.53a36.19,36.19,0,0,1-7.23-1.24c-1.05-.36-2.2,0-3.31-.52s-2.25-.22-3.29-.58-2.09-.15-2.92-.9c-3.17,0-6.05-1.32-9.09-1.95-3.34-.69-6.57-1.9-9.85-2.89a27.8,27.8,0,0,0-3.71-1.21c-1.27-.19-2.21-1.41-3.6-1-2.47-1.44-5.31-1.93-7.9-3.08-2.18-1-4.42-1.83-6.69-2.6a48.11,48.11,0,0,1-4.72-2.23c-2.76-1.29-5.55-2.51-8.28-3.87-1.37-.68-2.71-1.43-4-2.22-1-.61-2.27-1-3.33-1.58-4.79-2.84-9.66-5.54-14.33-8.59-2.29-1.49-4.57-3-6.84-4.49-2-1.36-4-2.84-6-4.21-2.31-1.56-4.37-3.45-6.61-5.1-2-1.47-3.82-3.13-5.84-4.58-1.35-1-2.49-2.25-3.8-3.32-4.28-3.5-8.06-7.55-12-11.44-1.56-1.55-3.23-3-4.63-4.68-1.78-2.15-3.79-4.07-5.67-6.12-1.59-1.73-3-3.58-4.5-5.42-2-2.5-4.09-4.88-5.92-7.44-1.71-2.4-3.46-4.8-5.15-7.23-1.48-2.13-3-4.27-4.39-6.44-1.53-2.33-2.87-4.78-4.42-7.1-1.84-2.75-3.2-5.76-5-8.51a33.72,33.72,0,0,1-1.7-3.52c-.57-1.1-1.21-2.17-1.82-3.25s-.63-2.31-1.66-3.07c-.63-3-2.6-5.33-3.58-8.17-.79-2.3-1.93-4.52-2.9-6.79q-2.49-5.8-4.4-11.82c-.82-2.56-1.74-5.09-2.48-7.69-.39-1.38-.77-2.8-1.27-4.17a18.57,18.57,0,0,1-1-4.06,27.67,27.67,0,0,0-1.11-3.76c-.16-.57-.14-1.19-.27-1.77a10.57,10.57,0,0,0-.46-1.45c-.49-1.32-.39-2.76-.92-4.09s-.44-2.58-.9-3.86a19.85,19.85,0,0,1-.54-3.78c-.11-.73-.32-1.44-.46-2.16a6.26,6.26,0,0,0-.38-2c-.44-.87-.19-2-.49-3.07a32.25,32.25,0,0,1-.56-5.19c-.11-1-.32-2.06-.46-3.1s.32-2-.47-2.87c0,0,0-.15,0-.23,0-1.91.19-3.83-.47-5.69-.07-6.45-.74-12.87-.49-19.33.09-2.35,0-4.71,0-7.06,0-1.51.35-3,.43-4.51s-.27-3.05.09-4.45a20,20,0,0,0,.38-4.76c0-1.06.66-2,.53-3.1s-.39-2.15.4-3.11c.12-.14,0-.46,0-.69a10.09,10.09,0,0,1,.41-3.35c.35-.94.07-2,.45-3.1.47-1.31.23-2.86.58-4.24.5-1.92.67-3.91,1.24-5.82.29-1,.38-2,.59-3.05.54-2.59,1.2-5.16,1.73-7.74.45-2.17,1.16-4.25,1.64-6.4.36-1.62.87-3.24,1.36-4.83,1-3.33,2.1-6.65,3.3-9.92s2.3-6.57,3.7-9.77a50.13,50.13,0,0,0,2.91-7.26c.14-.54.65-1,.89-1.51,1.9-4.32,3.84-8.62,6.15-12.74,1.78-3.19,3.36-6.48,5.37-9.55,1.08-1.64,2-3.42,3.05-5.08,2-3,3.85-6.11,5.89-9.1s4.32-5.47,5.91-8.59c1.78-1.48,2.86-3.53,4.29-5.29a80.55,80.55,0,0,0,5.69-7,2.73,2.73,0,0,1,.33-.34c1.89-2,3.72-4.14,5.67-6.11,1.42-1.43,2.77-2.92,4.18-4.36,1.2-1.23,2.49-2.37,3.64-3.62,1.8-1.95,3.89-3.58,5.68-5.52a41.23,41.23,0,0,1,6.23-5.36,40.6,40.6,0,0,0,4-3.48c1.26-1.2,2.72-2.12,4.08-3.19s2.57-2.06,3.94-3c2.15-1.49,4.14-3.23,6.27-4.76,2.47-1.76,5-3.48,7.54-5.07,3.17-2,6.47-3.71,9.63-5.68s6.5-3.62,9.75-5.43c1.59-.89,3.24-1.66,4.84-2.53a29.21,29.21,0,0,1,4.91-2.32c2-.64,3.81-1.76,5.81-2.46s3.93-1.52,5.84-2.36a166.15,166.15,0,0,1,17-6.13c1.38-.43,2.79-.79,4.17-1.28a38.51,38.51,0,0,1,4-1.06c1.77-.42,3.55-.9,5.29-1.41s3.6-.65,5.33-1.3a26.37,26.37,0,0,1,4.3-1c1.45-.27,2.89-.51,4.33-.9a32.26,32.26,0,0,1,4.26-.53c.8-.11,1.59-.34,2.4-.45a11.43,11.43,0,0,0,2.18-.4c1.1-.36,2.35-.2,3.56-.48,1.91-.44,3.95-.27,5.9-.58a35.17,35.17,0,0,1,6.63-.44c1.35-.84,2.85-.38,4.27-.46,3.23-.19,6.45-.38,9.68-.46s6.44.1,9.64-.06c1.87-.1,3.61.59,5.45.53a24,24,0,0,1,5.4.06c1.76.35,3.53.11,5.21.47s3.21.15,4.75.47c1.28.27,2.59.15,3.8.47s2.44.16,3.57.46c1.9.49,3.87.44,5.73.93,2.07.54,4.22.58,6.28,1.27a24.4,24.4,0,0,0,3.06.57q3.8.72,7.54,1.67c2.13.54,4.28,1,6.38,1.65,1.68.51,3.4.9,5.05,1.44,1.86.61,3.78,1,5.6,1.8s3.71,1.27,5.56,1.91c1.58.54,3.15,1.09,4.71,1.68s3.11,1.21,4.65,1.83a25.89,25.89,0,0,0,4.48,1.7c.54.11,1,.65,1.5.9,1.64.77,3.28,1.56,5,2.2s3.14,1.5,4.75,2.15a29,29,0,0,1,5,2.69c1.58,1,3.34,1.82,5,2.73,2.3,1.27,4.6,2.52,6.84,3.89,3.51,2.14,7,4.28,10.46,6.54q6.26,4.11,12.14,8.77l6.73,5.33c2.27,1.81,4.39,3.79,6.63,5.62s4.41,4.12,6.56,6.23q5.64,5.5,11.15,11.14a68,68,0,0,1,5.14,5.64c2,2.56,4.2,5,6.15,7.57s4.07,5.51,6.11,8.25c3,4.06,5.73,8.31,8.5,12.51a66.63,66.63,0,0,1,5.25,8.86c.88,1.92,2.11,3.67,3.12,5.53q1.81,3.36,3.49,6.78c1.47,3,3,6,4.3,9,.83,1.93,1.63,3.87,2.5,5.79s1.64,3.74,2.28,5.63c1.38,4.06,3.12,8,4.15,12.15.78,3.13,2.37,6,2.55,9.31,1.14,2.4,1.34,5.07,2.17,7.57.33,1,.27,2,.61,3a31.25,31.25,0,0,1,1,4.3c.27,1.45.51,2.89.9,4.33a32.65,32.65,0,0,1,.53,4.26c.1.73.35,1.43.45,2.16a16.59,16.59,0,0,0,.4,1.94,28.28,28.28,0,0,1,.46,3.79,36.25,36.25,0,0,1,.62,6.15c-.06,1.07.45,2.18.43,3.33a15.72,15.72,0,0,0,.34,3.35c.37,1.89-.2,4,.17,5.85.63,3.24.31,6.47.39,9.7s-.06,6.43,0,9.64c.06,1.78-.4,3.48-.48,5.22S532.14,317.12,531.79,318.85Z" transform="translate(-11.84 -18.11)"/><path class="cls-7" d="M391.45,60.51a2.72,2.72,0,0,1,2.61.89c-.68,3.34-2.75,6.23-3.42,9.83,2.48.91,4.78,2.35,7.32,2.44l8.7-22.29V49.9l-6.72-2.64C398.3,50,397.82,53.2,396.13,56l-2.25-.82c.41-3.28,2.44-5.91,3-9a37.21,37.21,0,0,0-7.32-2.62l-9.3,23.87c2.66.62,4.85,2.24,7.45,2.58Z" transform="translate(-11.84 -18.11)"/><path class="cls-8" d="M184.52,522.53c-2.31,1.94-4.57,3.84-6.91,5.75a1.66,1.66,0,0,0-.3.31l-.15-.15.38-.33a.21.21,0,0,1,.07.17c0-.51,0-.9,0-1.06.4-.69.71-1.19,1-1.71a18,18,0,0,1,1.71-3,2.16,2.16,0,0,0,.48-2.17l-3.79-1.8c-2,2.22-2.64,5.07-4.72,7.45l1.47-9.35a10.35,10.35,0,0,0-1.21-.78c-1.07-.51-2-1.56-3.26-1.27-.91,3.65-.74,7.3-1.65,10.7-1.13.26-2.15.46-3.14.73-1.6.43-3.09,1-3.41,2.93,0,.06-.12.1-.16.17-1.58,2.29-2.7,4.84-4.18,7.26a14.77,14.77,0,0,0,4.68,2.29l4.81-8.51h2.73c.72.6.89,1.16.36,1.86a8.5,8.5,0,0,0-1,1.47c-.57,1.2-1.31,2.31-1.91,3.45s-1.91,2.54-1.41,4.38c1.4.12,2.36,1.65,4.13,1.42l5.29-9.47,2.25,1.69c-.07,1,.14,1.89-.49,2.61-1.4,1.63-1.78,3.88-3.27,5.48-.36.39-.39,1.08-.6,1.74a6,6,0,0,0,4.54,2.22l5-9.18-1.58-5.69,8.13-6.7,0-.74Z" transform="translate(-11.84 -18.11)"/><path class="cls-9" d="M428.57,522.48c-.06,0-.11-.11,0,0l-.47-1-1.28-9.75c-2.07-.49-2.89,1.68-4.67,2a37.36,37.36,0,0,1,.9,4.65c.24,1.48,1,3,.49,4.66L419,515.67l-4.37,2.44c1.18,2.33,2.88,4.24,3.49,6.94,0,0,.18.13.36.26a2.64,2.64,0,0,1,.41.3l-.15.15-.33-.38.07-.07c-.18-.13-.33-.29-.36-.26-2.66-1.36-4.34-3.75-6.67-4.91-1.09.53-2,.94-2.9,1.45a7.63,7.63,0,0,0-1.2,1.12l8.49,6.73c-.31,1.16-.61,2.29-.92,3.43a4.57,4.57,0,0,0,.23,3.71c1.17,2,2.28,4.07,3.47,6.08a27.55,27.55,0,0,0,1.73,2.31c1-1.6,3.1-1.5,3.81-3.25l-4.77-8.26c.45-1.46.85-2.83,2.57-2.91.87,1.61,1.63,3.28,2.63,4.79s1.59,3.5,3.31,4.76l4-2.34-5.64-9.84,1.94-1.16,1.81.61c1.93,2.84,3.13,5.93,5.31,8.47l4-2.38c-1.52-3.56-3.81-6.62-5.34-9.83Z" transform="translate(-11.84 -18.11)"/><path class="cls-10" d="M422.93,86.85l5.62,3.36,7.71-1.12c1.74-1.76,2.59-4.17,3.9-6.29L444.35,76a6.56,6.56,0,0,0-.89-3.58,33.09,33.09,0,0,1-1.59-4.39l-5.7-3.41-8,1.07c-.74,1.19-1.41,2.32-2.13,3.42-1,1.47-1.62,3.1-2.61,4.56s-1.76,3.34-2.71,5a2.16,2.16,0,0,0,0,2.27C421.61,82.85,422.22,84.87,422.93,86.85Zm11.39-16c1.14-.29,1.92.86,3.15,1.2l-7.12,12.09-3.08-1.28Z" transform="translate(-11.84 -18.11)"/><path class="cls-11" d="M345,57.9l8.31,1.69,5.12-2.32.64-.64,1.56-7.54-4-4.68c-2-1.06-4.06-.64-5.43-2.09l.66-2.9h2.65c.24,1.15-1,2.05-.21,3.19,2.28-.26,4.41,1.24,6.73.88.5-1.74,1.28-3.29,1-4.77l-4.07-4.53-8-1.55-5.5,2.73c-.21,2.61-1.41,5.17-1.24,7.85l4.19,4.85,4.7,1.25c.09,1.26.25,2.53-.61,3.53h-2.2V50.34l-.66-.66c-2.24.17-4.37-1.17-6.79-.92-.18.79-.31,1.51-.53,2.2a3,3,0,0,0-.16,2.72Z" transform="translate(-11.84 -18.11)"/><path class="cls-12" d="M147.46,85.8c1.53,2.49,2.94,5,4.44,7.56.42.7,1,1.32,1.41,1.93h1.26l4.21-2.64c-.55-2.12-2.81-3.33-2.85-5.52l3.9-2.28,3,4.81c1.33,0,2-.89,2.89-1.37a5.89,5.89,0,0,0,2.46-1.75c-2.2-3.58-4.36-7.15-6.56-10.7s-4.52-7.18-6.89-10.94C152.89,66,151.26,67,149.65,68s-3.23,2-4.34,2.7c-1.87,2-1.67,3.94-2.45,5.61a3.73,3.73,0,0,0,.7,3.63C144.94,81.81,146.23,83.8,147.46,85.8Zm1.42-11.89,3-1.85a103.33,103.33,0,0,1,5.67,9.17l-4.06,2.41c-2-2.22-3.12-5.13-5.18-7.58Z" transform="translate(-11.84 -18.11)"/><path class="cls-13" d="M220.38,40c0,1.51.78,2.85.93,4.3.25,2.52,1.3,4.82,1.75,7.28.39,2.15,1,4.26,1.58,6.38.37,1.48.73,3,1.15,4.66l12-3,3.38-4.35-1.67-7.58-3.62-1.55,2-2.64-1.5-6.38-5-2.48-11.46,2.89C220.06,38.43,219.57,39.33,220.38,40ZM235.1,55.67l-4.78.77c0-2.33-1.3-4.12-.92-6.16l4-1.07Zm-4-15.86c.36,1.79,1.31,3.5,1.06,5.45-1.33.5-2.54,1.28-4.11,1.08l-1.24-5.39A6.8,6.8,0,0,1,231.07,39.81Z" transform="translate(-11.84 -18.11)"/><path class="cls-14" d="M115.1,111.62a47.41,47.41,0,0,1,3.92,4.5,26.43,26.43,0,0,0,2.9,3.24,2.9,2.9,0,0,0,1.06.49l8.79-7.61,1.17-5.47L128.07,101c-.85,0-1.48,0-2.11,0s-1.35,0-2-.07l.58-3.23L120,92.49l-5.67.66c-2.08,1.85-4.41,3.94-6.76,6-.26.23-.72.27-.94.52a8.11,8.11,0,0,0-.8,1.3,63.46,63.46,0,0,1,4.23,4.77C111.63,107.84,113.42,109.67,115.1,111.62Zm7.7-6.42h.93l3.61,4.54-2.75,2.51c-1.27.27-1.67-.92-2.38-1.54a6.15,6.15,0,0,1-2.11-3.35C121.34,106.95,121.93,105.89,122.8,105.2Zm-6.07-7.53c-.17,0,.27-.12.43,0q1.55,1.67,3,3.45c.16.19,0,.6.07,1l-3,2.62-3.54-4.18Z" transform="translate(-11.84 -18.11)"/><path class="cls-15" d="M460.37,109.94c1.15-1.49,2.37-2.92,3.56-4.38,1.65.55,2.56,1.82,3.72,2.92a12.65,12.65,0,0,1,3.41.07,8.19,8.19,0,0,0,3.29.34l6.22-7.34C481,99.32,479,97.4,479.16,95l-9.32-7.73H469c-1.41,1.59-2.88,3.07-4.14,4.71a52.49,52.49,0,0,1-4.68,5.58,4.65,4.65,0,0,0-.66.67,78,78,0,0,1-6,7.39c-.28.33-.55.68-.76,1l5.62,4.71C459.37,111.53,459.8,110.68,460.37,109.94Zm10.87-13.22c1.52.17,1.52.17,1.82,1.52l-2.92,3.61a2.47,2.47,0,0,1-2.43-.91Z" transform="translate(-11.84 -18.11)"/><path class="cls-16" d="M139.61,493c-.4-1.95-2.6-2-3.18-3.36-2,.32-3.36,1.48-5.1,1.9s-3.23,1.42-5.08,1.8c1-3.67,2.38-7,3-10.63l-3.56-2.75c-.89,1.11-1.65,2.13-2.49,3.09-.62.71-1.33,1.33-2,2s-1.43,1.17-1.67,2.13c-1.25,0-1.19,1.22-1.78,1.82-2.76,2.82-5.43,5.71-8.15,8.56a2.11,2.11,0,0,1-.71.42v1.37l3.4,2.7,9.49-10.14.32.15-1.59,7.4c2.84.08,5-1.7,8.08-1.93-1.83,2-3.34,3.55-4.82,5.17s-3,3.32-4.52,5v1.05c.45.41.95,1.2,1.62,1.39s.82,1.57,2,1l4.26-4.72c1.44-1.6,3.05-3,4.38-4.75a84.33,84.33,0,0,1,5.77-6.33C138,494.55,138.78,493.81,139.61,493Z" transform="translate(-11.84 -18.11)"/><path class="cls-17" d="M307,53.3c-.37-2.73.72-5.4.46-8.18-.09-1,0-2,0-3.16,1.58.67,3.1.77,4.23,1.95,0,2.7,0,5.51,0,8.33a1.6,1.6,0,0,0,.68,1.61h5.39c.27-3.4-.38-6.8.64-10.05l-3.48-3.16,2.77-2c.21-1.16.49-2.25.58-3.36s0-2.5,0-3.86l-4-3.33c-2-.18-3.93-.43-5.9-.52s-4,0-5.91,0a10.54,10.54,0,0,0-.64,2.75c.26,4.34-.57,8.63-.51,13,0,1.33.33,2.77-.07,4-.64,1.92-.19,3.77-.43,5.59C302.93,53.23,304.85,53.73,307,53.3Zm1-21h4l.66.66c0,.7,0,1.4,0,2.09a13,13,0,0,1-.14,1.81c-.11.64-.32,1.26-.49,1.93l-4-.56Z" transform="translate(-11.84 -18.11)"/><path class="cls-18" d="M182.72,61.26c1.35,4.46,3.66,8.52,5.25,12.88.25.7.39,1.64,1.4,1.88l5.23-2.19-4.39-10.29c1.83-.64,3.57-1.32,4.89.1l3.37,8.14h1.13l4.16-1.88c.51-1.07,0-1.87-.39-2.66a40.74,40.74,0,0,1-2.27-5.41,2.93,2.93,0,0,0-2.67-2.31,12.15,12.15,0,0,1-2.12-.59l1.49-3.53-2.56-6.06L190,47.82c-1.63.65-3.16,1.32-4.72,1.88s-2.94,1.58-4.63,1.9c-.64.12-1.18.78-1.79,1.2a40.53,40.53,0,0,1,2.36,5.08C181.62,59.09,182.37,60.1,182.72,61.26Zm7.82-8.53,2.28,5.61-4.19,1.72-2.16-5.35C187.49,53.36,189.17,53.51,190.54,52.73Z" transform="translate(-11.84 -18.11)"/><path class="cls-19" d="M469.25,496.18h0l.3,0S469.39,496.17,469.25,496.18Z" transform="translate(-11.84 -18.11)"/><path class="cls-20" d="M474,488.38c-.44-.44-.92-.86-1.32-1.34s-.63-1-1-1.41c-2-2.09-4-4.08-6.26-6.32-.59.71-1,1.25-1.48,1.78s-.9,1-1.51,1.67c1.63.41,1.38,2.39,2.93,2.6A16.53,16.53,0,0,1,467,488.9c.35,1.17,1,2.27,1.34,3.43s.72,2.53,1.22,3.88a2.21,2.21,0,0,1,.18.84l-.3,0-.18-.91a1.63,1.63,0,0,1-.82-.2,10.54,10.54,0,0,1-1.17-1.15l-8.1-8.65c-1.77.21-2.3,1.86-3.47,2.6.71.92,1.33,1.87,2.09,2.68,3.52,3.73,7.08,7.42,10.63,11.12.54.57,1.12,1.09,1.66,1.67s1,1.22,1.57,1.8,1,1,1.54,1.48l3.3-2.67c-.62-1.9-1.22-3.62-1.73-5.36s-1.65-3.23-1.72-5.5c2.33,2.52,4.71,4.43,6.66,7a5.83,5.83,0,0,0,3.28-3c-1.61-1.82-3.11-3.58-4.68-5.26C476.9,491.23,475.42,489.82,474,488.38Zm-.92,5.27h-.47v-.16h.47Z" transform="translate(-11.84 -18.11)"/><path class="cls-21" d="M256.14,547.2a8.22,8.22,0,0,1-1,5c-1.8,3-3.9,5.86-6.06,9,0-1-.23-1.74.05-2.18a4.09,4.09,0,0,0,.43-2A11.66,11.66,0,0,0,250,555c-.06-.82.47-1.41.52-2.16a9.3,9.3,0,0,1,.37-2.42,21.53,21.53,0,0,0,.57-4.58c-1.11-1.52-2.95,0-4-1.45-1.25,4.38-1.68,8.67-2.44,12.86s-1.68,8.43-2,12.6a8.44,8.44,0,0,0,4.4.6l6.27-9.14c.52,1.69-.54,3-.42,4.38-.91.85,0,2-.58,3.06-.45.84-.2,2.06-.25,3l4.19.63L261,547.09l-3.89-.65Z" transform="translate(-11.84 -18.11)"/><path class="cls-22" d="M397.19,527.73a6.1,6.1,0,0,0-4.18,1.86,7.26,7.26,0,0,0,.37,1,12.09,12.09,0,0,1,1.61,6.64c-.14,2.42,0,4.86,0,7.29,0,.51-.05,1-.1,1.82-1.19-2.77-2.21-5.25-3.32-7.68s-1.84-5-3.44-7.37l-3.62,1.34c.14.64.21,1.16.36,1.66.37,1.26,1.18,2.38,1.56,3.58.51,1.62,1.36,3.05,1.94,4.62s1.26,3.25,2,4.82,1.28,2.92,1.82,4.42,1.27,2.77,1.89,4.07c1.67.72,2.64-1.1,4.2-.78,0-1.85-.06-3.56,0-5.27s.3-3.48.45-5.22c0-.43.06-.87.11-1.65A32.29,32.29,0,0,0,401,548c.87,1.48,1,3.37,2.28,4.65l3.47-1.69a1.89,1.89,0,0,0,0-.65C403.79,542.69,400.21,535.32,397.19,527.73Z" transform="translate(-11.84 -18.11)"/><path class="cls-23" d="M455.8,507.87l-5.91-.59-3-10.86-4,2.86c0,.4-.17,1,0,1.32a26.43,26.43,0,0,1,1.59,4.51c.34,1,1.09,2,.54,3.37-1.9-2.31-3.25-4.86-5.6-7-.71,1.59-2.59,1.7-3.22,3.23.58,2.17,2.35,3.48,3.42,5.24a62.83,62.83,0,0,0,3.89,5c1.31,1.72,2.43,3.6,3.86,5.19s2.23,3.56,4,4.89l4-2.9-6.83-9.21,1.68-1.14h1.88l6.19,8.09,4-3a18,18,0,0,0-3.32-4.49C457.84,511,456.89,509.43,455.8,507.87Z" transform="translate(-11.84 -18.11)"/><path class="cls-24" d="M229.44,543.33a22.92,22.92,0,0,1-2,2.46c-.62.64-.63,1.85-1.93,2,.34-1.38.59-2.75,1-4.06s1.25-2.68.85-4l-4.48-1.23c-.39,1.36-.83,2.59-1.19,3.85-.48,1.67-1,3.36-1.42,5s-.87,3.43-1.43,5.06c-1.17,3.44-1.79,7-3.34,10.58l5.14,1.53,3.2-11.05,1.81.57,1.24,1.72c-.59,3.39-2.33,6.44-2.31,9.92l4.52,1.15,3.11-10.75-3-4.95a36.22,36.22,0,0,0,3.41-4.42c1-1.69,3-2.58,3.36-4.68L231,540.83C230.47,541.73,230,542.56,229.44,543.33Zm-3.87,5.37h-.47v-.16h.47Z" transform="translate(-11.84 -18.11)"/><path class="cls-25" d="M155.88,504.94c-2.62,2.48-4.11,5.67-6.43,8.29l-2.62-1.89c1.11-1.5,2.12-2.88,3.13-4.26a18,18,0,0,0,2.83-4.42l-4-2.81-6.57,9,1.05,5.54,3.42,2.44c-.93,1.72-2.22,3.21-3.35,4.92l-2.58-1.89,1.7-2.68-4.13-2.89-1.8,2.47.67,5.67c1,1.59,1,1.59,4.09,3.48a9.85,9.85,0,0,1,2.84-.5c1.14.11,2-.67,3.21-.53,2.1-2.76,4.38-5.47,6.33-8.41s4.29-5.66,6.2-8.72Z" transform="translate(-11.84 -18.11)"/><path class="cls-26" d="M263.16,38.41c.35,1.61,0,3.3.46,5a28,28,0,0,1,.43,4.73c.16,2.2.58,4.37.68,6.72a16.78,16.78,0,0,1,1.81,0c.72.08,1.34-.48,1.92-.43,2.56.21,5-.6,7.57-.53.59,0,1.18-.05,1.76-.08V50.53l-.69-1.33c-1.16,0-2.33,0-3.5,0s-2.11,1-3.24.32l-.65-6.25,5.64-.75V38.26l-5.95.65-.67-5.53,7.3-.76L275.3,28a11.67,11.67,0,0,0-1.65,0c-.57.08-1.12.39-1.69.44-2.52.2-5,.34-7.57.48-.52,0-1.05,0-1.41,0l-.67.67a13.68,13.68,0,0,0,.36,3.32C263,34.74,262.76,36.58,263.16,38.41Z" transform="translate(-11.84 -18.11)"/><path class="cls-27" d="M376.24,546.38c-.59-2-1.16-3.91-1.82-6.12l-5-2.22-9,2.77c.2.86.29,1.44.46,2,.51,1.67,1.1,3.31,1.57,5,.89,3.15,2,6.23,2.85,9.39.74,2.73,1.67,5.41,2.56,8.27,1.54-1,3.48-.81,4.91-1.73l-2.46-7.92c.37-.32.65-.79.93-.79a4.52,4.52,0,0,0,4.67-3.35,3.65,3.65,0,0,1,.83-1.29,1.52,1.52,0,0,0,.28-1.52C376.87,548,376.5,547.21,376.24,546.38Zm-7.29,5-2.35-7.49,3.21-1.2,2.24,7.51Z" transform="translate(-11.84 -18.11)"/><path class="cls-28" d="M207.24,532.88c-1.44-.68-2.91-1.29-4.29-1.89l-5.88,2.46-6.24,15.42,2.33,5.73c1,.51,1.78.89,2.54,1.31a4.83,4.83,0,0,0,3.31.42,13.25,13.25,0,0,0,2.58-1.12c.73-.32,1.47-.61,2.32-1l1.58-3.84c-1.87-.24-3.24-1.85-5-1.54l-1.4,3.23c-1.09-.68-2.5-.51-3.21-1.86l6-14.58,3.26,1.28-1.2,3.64,4.74,1.81,1.52-3.64a46.25,46.25,0,0,1-2-5A1.74,1.74,0,0,0,207.24,532.88Z" transform="translate(-11.84 -18.11)"/><path class="cls-29" d="M323.89,569H320.8l-.56-.56q-.28-4.11-.56-8.22c0-.23.1-.56,0-.69-.82-1-.32-2.07-.46-3.11s-.3-2.17-.45-3.22l3.61-.49.81,3.77,5-.73-.67-4-4.87-3.91-5,.67-4.2,5.23a13.63,13.63,0,0,1,.57,2.11c.2,2.52.33,5,.49,7.55,0,.16-.06.36,0,.46.73,1,.34,2.06.47,3.1s.35,2.2.49,3.07l4.63,3.67h5l3.86-4.73v-4.15h-5.11Z" transform="translate(-11.84 -18.11)"/><path class="cls-30" d="M272.63,548.35c0,1.09.06,2,0,2.8s-.36,1.75-.44,2.63c-.2,2,.4,4.16-.48,6.15.34,3.48-.64,6.91-.49,10.39a3.49,3.49,0,0,1-.39,2.43c-.2.28.28,1,.47,1.66,3.73-.67,7.2.73,10.69.26V570c-1.92-.07-3.85.26-5.71-.84l.69-5.83h4.45l.59-.59v-3.62H277.4v-5.61c1.07,0,2.08.08,3.07,0s1.91,1.19,2.82.38l.56-4.18c-1.9-1.07-3.75-.8-5.57-.9S274.55,548.52,272.63,548.35Z" transform="translate(-11.84 -18.11)"/><path class="cls-31" d="M346.94,549l3.35-.82c-.21-.75.16-1.48-.31-2.26a6.49,6.49,0,0,1-.32-2.36c-4.29.76-8.49,1.5-12.69,2.61l1.13,4.6,3.59-1a19,19,0,0,0,.63,3.74c.33.9.1,1.89.48,2.61a18.85,18.85,0,0,1,1.26,5.1c.56,2.75,1.05,5.53,1.52,8.31.06.38.47.7.62.9l4.61-1.09c-.43-3.42-1.38-6.76-1.92-10.18S347.08,552.48,346.94,549Z" transform="translate(-11.84 -18.11)"/><path class="cls-32" d="M225.11,548.71h.47v-.16h-.47Z" transform="translate(-11.84 -18.11)"/><path class="cls-33" d="M368.61,468.63a16,16,0,0,0-1.38-5.78,39.12,39.12,0,0,0-2.36-5.61,24.14,24.14,0,0,0-3.45-5.13c-1.45-1.52-2.53-3.34-4.38-4.57-1.66-1.11-3.13-2.54-4.86-3.63a30.16,30.16,0,0,0-5.46-2.74c-1.9-.72-3.91-1.15-5.76-1.67a22.65,22.65,0,0,0-.6-2.65,40.8,40.8,0,0,1-1.27-5.34c-.36-1.73-1.16-3.4-1.07-5.22-.75-.93-.4-2.14-.78-3.2a27.5,27.5,0,0,1-1.51-6.18c-.22-1.94-1.21-3.71-1-5.7-1.37-3.74-1.81-7.71-2.77-11.55-.41-1.64-.65-3.36-1.13-5-.86-2.89-1.47-5.84-2.06-8.76-.51-2.53-1.66-5-1.52-7.62-.74-1.17-.68-2.55-1-3.81s-.33-2.73-.92-3.84.1-2.33-.86-3.18c.11-1.75-.81-3.3-1-5s-.88-3.41-1.15-5.15-1-3.37-1.21-5.17-.82-3.42-1.13-5.16-1-3.38-1.21-5.16a46.35,46.35,0,0,0-1.15-5.16,29.64,29.64,0,0,1-1.12-4.46,45.61,45.61,0,0,0-1.15-5.68,55.44,55.44,0,0,0-1.78-7.48c-.4-1.12-.45-2.29-.79-3.42a18.57,18.57,0,0,1-1-4.05c-.17-2.63-1.17-5.05-1.62-7.61a45.58,45.58,0,0,0-1.77-7.47,26,26,0,0,1-.7-3.22c-.39-1.72-1-3.4-1.2-5.18a29.2,29.2,0,0,0-1.1-4.95c-.59-1.85-.48-3.82-1.2-5.61a75,75,0,0,0-.47-10.15c-.14-1.9.16-3.79-.4-5.71-.38-1.3,0-2.8-.09-4.21s-.33-2.69-.45-4c-.2-2.28.2-4.57-.41-6.88a13.58,13.58,0,0,1,0-4.68c.16-1.64-.46-3.15-.52-4.75a48.6,48.6,0,0,0-.35-7.12c-.48-2.61,0-5.34-.51-8s.08-5.34-.44-8c-.49-2.53,0-5.18-.49-7.8s.05-5.18-.46-7.81c-.48-2.46,0-5-.47-7.57-.5-2.77.07-5.65-.47-8.51-.47-2.46,0-5-.47-7.57s0-5.34-.48-8c-.47-2.54.17-5.2-.48-7.8a12.15,12.15,0,0,1,0-4.22c.17-1.49-.43-2.84-.51-4.28a66.37,66.37,0,0,0-.36-6.88c-.46-2.85,0-5.82-.52-8.73-.39-2.41.16-4.88-.45-7.34-.37-1.48,0-3.12-.09-4.69s-.31-3-.45-4.51c-.2-2.21.26-4.42-.4-6.65a11,11,0,0,1,0-4.21c.16-1.49-.48-2.83-.53-4.28-.07-2.37.45-4.78-.44-7.1.18-3.24-.43-6.46-.4-9.68s-.83-6.41-.9-9.82c-1.41,2.25-2.83,4.48-4.22,6.74a3.32,3.32,0,0,0-.57,1.4,29,29,0,0,1-.42,4.05,15.34,15.34,0,0,0,0,4.69c.18,1.65-.48,3.15-.53,4.75-.07,2.29.24,4.57-.37,6.88a13.55,13.55,0,0,0,0,4.68c.16,1.64-.46,3.15-.52,4.75a58.73,58.73,0,0,1-.35,7.11c-.48,3,0,6.13-.52,9.21-.41,2.56.22,5.2-.46,7.81a12.59,12.59,0,0,0,0,4.45c.18,1.57-.51,3-.54,4.51,0,2.29.26,4.57-.37,6.88a12.15,12.15,0,0,0,0,4.45c.18,1.57-.46,3-.53,4.51a60.81,60.81,0,0,1-.35,7.59c-.48,2.84-.06,5.81-.53,8.73-.41,2.56.19,5.19-.45,7.81-.38,1.55,0,3.28-.09,4.92s-.32,3.16-.45,4.75c-.19,2.36.24,4.73-.41,7.12-.38,1.39,0,3-.09,4.45s-.33,2.85-.44,4.28c-.2,2.6.07,5.19-.39,7.82-.51,2.93.05,6-.51,9-.43,2.31.13,4.72-.46,7.1-.37,1.48,0,3.12-.09,4.69s-.32,3-.45,4.51c-.2,2.36.24,4.73-.41,7.12a12.17,12.17,0,0,0,0,4.45c.18,1.57-.46,3-.53,4.51a59.27,59.27,0,0,1-.35,7.11c-.48,3,0,6.13-.52,9.21-.39,2.4.14,4.88-.45,7.34-.38,1.56,0,3.28-.09,4.92s-.32,3.16-.45,4.75c-.19,2.36.22,4.73-.4,7.12-.4,1.54,0,3.27-.09,4.91s-.48,3.17-.42,4.74c.16,4.42-.85,8.79-.5,13.21a9.69,9.69,0,0,0-.46,4.23,16.49,16.49,0,0,0,1.41,2c2,2.12,4.15,4.15,6,6.45,1.49,1.86,3.31,3.43,4.87,5.26,2,2.39,4.26,4.66,6.42,7a9.16,9.16,0,0,1,2,3.2c1.27,3.55,2.75,7,4.17,10.51,1.13,2.75,2.24,5.5,3.34,8.26,1.49,3.77,3,7.55,4.48,11.32.7,1.75,1.52,3.45,2.15,5.22,1.27,3.55,2.75,7,4.16,10.51,1.12,2.75,2.24,5.5,3.33,8.27s2.2,5.68,3.38,8.48c.85,2,1.51,4.08,2.33,6.09,1.12,2.75,2.21,5.52,3.37,8.25.79,1.87,1.31,3.85,2.26,5.65.56,1.08,1,2.23,1.46,3.36-.78.25-1.47.48-2.17.68a35.08,35.08,0,0,0-5.93,2.16,40.15,40.15,0,0,0-6.88,4.45,35,35,0,0,0-5.9,6c-.69.86-1.22,1.85-1.85,2.76a26.51,26.51,0,0,0-2.85,5.64,33.07,33.07,0,0,0-2.13,6.86,47.83,47.83,0,0,0-.63,7.32,32,32,0,0,0,.66,6.83,45.45,45.45,0,0,0,2.14,6.85,34.57,34.57,0,0,0,6.23,10.1,30.89,30.89,0,0,0,8,6.74,43.12,43.12,0,0,0,7.31,3.39,24.32,24.32,0,0,0,8.82,1.46c3.26-.14,6.49,0,9.75-.87a39,39,0,0,0,10.36-4.56,33.83,33.83,0,0,0,5.94-5,30.91,30.91,0,0,0,6.15-8.52,46.45,46.45,0,0,0,3.51-10.56,36.21,36.21,0,0,0,.4-4.53,18.77,18.77,0,0,1,.38-2C368.33,472.9,369.87,470.55,368.61,468.63Zm-71.1-176.22h-7.39a50.4,50.4,0,0,0-2.48-4.81,2.29,2.29,0,0,1,0-2.68c.66-1.21,1.29-2.43,2-3.62a6.46,6.46,0,0,1,1-1.06h6.65l3.69,6.31Zm62.11,186.18c-.59,2.1-.83,4.27-1.75,6.32a33.88,33.88,0,0,1-3.06,5.55,25.4,25.4,0,0,1-10.09,8.48,16.61,16.61,0,0,1-7.89,1.94c-.78,0-1.57,0-2.35,0s-1.72,0-2.59,0a15.54,15.54,0,0,1-6.23-1.42A25,25,0,0,1,311.73,486a24.23,24.23,0,0,1-2-6.94,22.48,22.48,0,0,1-.35-5A28.85,28.85,0,0,1,315,458.58c3-4,7.06-6.31,11.36-8.35a13.54,13.54,0,0,1,5.18-1.09c1.72-.08,3.45.07,5.17,0,2.08-.14,4,.64,5.89,1.12,2.37.59,4.31,2.09,6.42,3.21,1.19.64,2,2,3,2.92,2.71,2.46,4.36,5.61,6,8.81.57,1.13.57,2.39,1.05,3.56C359.76,470.22,360.06,477,359.62,478.58Z" transform="translate(-11.84 -18.11)"/><path class="cls-34" d="M203.08,298h4.1v-37.3l.68-.68h2.67c0,12.61,0,25.15,0,37.68a.37.37,0,0,0,.09.2c0,.06.11.1.06.06h4.58V260.08h2.85v38c.85,0,1.62,0,2.4,0s1.51,0,2.33-.08V259.56h2.77V298h4.73V259.58h2.77c0,12.77,0,25.46,0,38.15a.37.37,0,0,0,.08.2c0,.06.11.1.07.06h4.58V259.14h2.85v38.95c.85,0,1.62,0,2.4,0s1.51,0,2.34-.07V259.18l2.41-.69.8.76c0,12.78,0,25.63,0,38.48a.37.37,0,0,0,.08.2c0,.06.11.1.07.06h4.58V258.67h2.85v39.42c.85,0,1.62,0,2.4,0s1.51,0,2.34-.08V258.14h2.77V298h4.73V258.17h2.85c0,13.3,0,26.53,0,39.76,0,.05.11.1.06.06h1.1c.21-2.14.44-4.18.62-6.22.2-2.36-.24-4.73.41-7.12a12.16,12.16,0,0,0,0-4.45c-.18-1.57.46-3,.53-4.51a60.76,60.76,0,0,1,.35-7.59c.48-2.84.06-5.81.53-8.73.41-2.56,0-5.18.42-7.81.46-2.85.05-5.82.53-8.73.38-2.33-.18-4.72.44-7.11.4-1.52.07-3.23.07-4.91H263.54c-.31,0-.74-.13-.92,0-.89.77-1.92.31-2.88.45s-2.06.37-3.1.46c-2.28.19-4.57.33-6.86.48-.08,0-.18,0-.23,0-.87.7-1.9.37-2.87.48s-1.9.36-2.87.45a27.78,27.78,0,0,0-4.29.4c-1.58.39-3.3.08-5,.5-1.29.32-2.67.12-4,.46s-2.83.12-4.27.47-3.14.16-4.74.47a57.17,57.17,0,0,1-7.08.54c-.23,0-.56-.1-.69,0a3,3,0,0,1-2.64.42c-1-.13-1.9.41-2.87.51a19.81,19.81,0,0,0-4.3.39c-1.39.44-3,0-4.5.49s-3,0-4.52.44c-1.39.43-3,.15-4.5.49s-3.14.18-4.74.47a62.94,62.94,0,0,1-7.09.54c-.16,0-.36-.06-.46,0a3.76,3.76,0,0,1-2.86.42c-1.06-.16-1.89.46-2.87.52-2.37.13-4.73.3-7.1.46-.16,0-.37-.07-.46,0-.87.73-1.91.35-2.87.47s-1.9.37-2.87.45c-2.36.2-4.73.33-7.1.48-.08,0-.18,0-.23,0a4.31,4.31,0,0,1-3.1.44,17.52,17.52,0,0,0-3.1.48c-2.36.22-4.73.33-7.1.49-.16,0-.37-.07-.46,0-.87.75-1.91.34-2.87.47s-1.9.37-2.87.45c-2.36.2-4.73.33-7.1.48-.08,0-.18,0-.23,0a4.25,4.25,0,0,1-3.1.44,17.91,17.91,0,0,0-3.1.48c-2.36.21-4.73.33-7.1.49-.16,0-.37-.07-.46,0-.87.78-1.91.33-2.87.47s-1.9.37-2.87.45c-2.21.19-4.42.33-6.63.48-.08,0-.17,0-.23,0-1.87,1.1-4,.15-6,.85-1.43.5-3.14.29-4.72.45-1.88.19-3.75.54-5.67.68V298H93.43V264.29h2.76c0,11.2,0,22.33,0,33.45a.37.37,0,0,0,.09.2c0,.06.11.1.06.06h4.58V264.37l2.8-.59V298h4.73V263.81h2.85V298H116c0-11.52,0-23,0-34.39a.37.37,0,0,1,.09-.2,1,1,0,0,1,.16-.14h2.35l.76.76V298.1c1.45,0,2.82,0,4.26-.06V263.32h3.24V298h4.73V262.88h2.76c0,11.67,0,23.27,0,34.86a.37.37,0,0,0,.08.2c0,.06.11.1.06.06H139V262.91h2.85v35.18c.85,0,1.62,0,2.4,0s1.51,0,2.34-.08V262.38h2.77V298H154V262.54c1-.38,1.77-1.07,2.88-.48V298h4.73V262H165V298h4.1V262.15l.68-.68h2.66c0,12.14,0,24.21,0,36.27a.37.37,0,0,0,.08.2c0,.06.11.1.07.06h4.58v-36.5H180v36.59c.85,0,1.62,0,2.4,0s1.51,0,2.34-.08V261h2.77V298h4.73v-37l2.8-.58V298h4.73V260.5h3.32Z" transform="translate(-11.84 -18.11)"/><path class="cls-35" d="M460.91,298h8.67l.72-.72v-33.5h6.05c0,11.36,0,22.64,0,33.92a.37.37,0,0,0,.08.2c0,.06.11.1.07.06h8.81V264.28h5.92l.72.72v33h12.53V250.16c-2.07-.11-4-.82-6-.53-.08,0-.19,0-.23,0-.93-.86-2.07-.31-3.1-.46a18.09,18.09,0,0,0-3.33-.44c-2.16.08-4.22-.87-6.39-.51-.08,0-.18,0-.23,0-.94-.77-2.06-.35-3.1-.47a22.77,22.77,0,0,0-3.33-.43c-2.31.07-4.54-.87-6.86-.51-.15,0-.39.07-.46,0-.85-.9-1.92-.29-2.87-.46s-1.9-.38-2.86-.46c-2.44-.2-4.89-.33-7.33-.48-.16,0-.37.07-.46,0a3.13,3.13,0,0,0-2.63-.43c-1,.11-1.91-.41-2.87-.48a22.53,22.53,0,0,1-4.06-.42c-1.36-.35-2.83-.06-4.27-.48s-3,0-4.52-.44c-1.39-.43-3-.15-4.5-.49s-3.14-.11-4.74-.47-3.15-.08-4.74-.48c-1.29-.32-2.67-.11-4-.46s-2.83-.11-4.27-.47-3.14,0-4.74-.48c-1.42-.41-3,0-4.52-.45s-3-.2-4.5-.48a60.49,60.49,0,0,0-7.08-.54c-.16,0-.36.06-.46,0a3.78,3.78,0,0,0-2.86-.42c-1.06.17-1.89-.46-2.87-.51-2.52-.13-5-.31-7.57-.46-.16,0-.37.06-.46,0-.88-.7-1.91-.36-2.87-.47s-1.9-.37-2.87-.45c-2.36-.2-4.73-.33-7.1-.48-.16,0-.37.07-.46,0-.94-.85-2.07-.3-3.11-.46s-2.06-.37-3.1-.46c-2.21-.19-4.42-.33-6.63-.48-.08,0-.18,0-.23,0-.95-.76-2.08-.52-3.1-.42s-2.06-.44-3.1-.51l-7.1-.47c-.16,0-.37.07-.46,0-.94-.85-2.07-.31-3.11-.46a18.22,18.22,0,0,0-3.33-.44c-2.16.09-4.22-.87-6.39-.51-.08,0-.18,0-.23,0-.95-.76-2.08-.53-3.1-.42s-2.05-.5-3.1-.5c-3.67,0-7.34,0-11.2,0,.33,3.23-.15,6.33.41,9.51.52,2.91,0,6,.52,9,.41,2.56-.22,5.2.46,7.81a12.84,12.84,0,0,1,0,4.45c-.17,1.57.51,3,.54,4.51,0,2.29-.23,4.57.36,6.88a14,14,0,0,1,0,4.92c-.18,1.65.51,3.14.54,4.75.08,4.48.26,9,.47,13.45a10.33,10.33,0,0,0,.58,2.14l.86-.86V257l6.09.7V298h9V258.17h6.61V298H347V258.66h6.11v36.53a13.44,13.44,0,0,0,0,1.88,3.17,3.17,0,0,0,.54,1h8.14c.95-.52.69-1.37.69-2.12q0-17.41,0-34.81V258.9l6.12.72q0,19.1,0,38.11a.38.38,0,0,0,.08.2c0,.06.11.1.07.07h8.81V260.08h6.61V298h9V260.45c1.09,0,2.1,0,3.1,0a13.71,13.71,0,0,1,2.95.11v36.82l.57.57c2.83,0,5.55,0,8.27,0,.17,0,.33-.31.58-.56V260.84l6.17.71V298h9V261.91h6.53V298h9V262.4h6.06v34.85l.6.73h8.86V262.76l6.16.69Z" transform="translate(-11.84 -18.11)"/><path class="cls-36" d="M291.44,354.16a6.2,6.2,0,0,0-.78-1.55c-1.12-1.36-2.3-2.67-3.48-4-1.86-2.07-3.92-3.93-5.71-6.08-2.77-3.32-5.91-6.34-8.9-9.47a9.26,9.26,0,0,0-1.19-.87c-.4,1.78-.67,3.38-1.13,4.92-.53,1.76-.79,3.58-1.26,5.35a25.47,25.47,0,0,0-1,4.27c-.16,2-.88,3.76-1.13,5.69s-.91,3.85-1.36,5.78-.72,3.9-1.35,5.78-.8,3.57-1.29,5.34c-.39,1.4-.74,2.84-1,4.28-.21,1,0,2.26-.56,3-.66,1,.12,2.19-.8,3-.06,1.57-.76,3-1,4.52-.18,1.09-.41,2.18-.66,3.26-.55,2.36-1.28,4.69-1.64,7.07-.27,1.84-1.22,3.55-1,5.47-1,2.4-1.17,5-1.91,7.45-.53,1.76-.76,3.57-1.28,5.34a19.44,19.44,0,0,0-1,4.06c-.13,2-1.27,3.72-1,5.72-1,.56-.13,1.72-.87,2.49-.47.49-.38,1.54-.53,2.34s-.29,1.76-.48,2.63c-.23,1.07-.53,2.13-.78,3.2-.44,1.94-.86,3.89-1.34,6a2.48,2.48,0,0,1-.75.45c-.85.23-1.77.27-2.59.56a37.09,37.09,0,0,0-12.8,7.15,35.9,35.9,0,0,0-9.35,13.06,38.89,38.89,0,0,0-2.93,12.89,32.05,32.05,0,0,0,.3,6.17,40,40,0,0,0,1.23,6.12A40.9,40.9,0,0,0,225.14,496c.77,1.17,2,2,2.63,3.15,1.24,2.27,3.56,3.27,5.23,5a7.37,7.37,0,0,0,1.77,1.4,39.46,39.46,0,0,0,8.55,3.78c1.77.46,3.53,1.33,5.3,1.33,4.35,0,8.74.64,13-.82a46.8,46.8,0,0,0,6.18-2.13,46.07,46.07,0,0,0,5.44-3.39A35.08,35.08,0,0,0,281,497c2.13-2.73,3.91-7.27,5.41-11.4,1.28-3.54,1.29-7.18,1.79-10.79.15-1.09-.43-2.07-.44-3.1a26.63,26.63,0,0,0-.95-5.73,34.48,34.48,0,0,0-5.9-12.63,40.16,40.16,0,0,0-8-7.92,27.84,27.84,0,0,0-9.78-4.78,31.34,31.34,0,0,1-3.23-1.12c.93-2.53,1.91-4.87,2.82-7.23q2.22-5.79,4.65-11.48c1.17-2.73,1.81-5.68,3.41-8.23.28-2.29,1.57-4.22,2.4-6.3,1-2.62,2.16-5.23,3.18-7.85,1.48-3.78,3-7.54,4.48-11.32.68-1.76,1.55-3.44,2.15-5.22,1.18-3.51,2.64-6.91,4-10.33s2.61-7.24,4.44-10.63c.08-1.63,1.64-3,.59-5.21C292,355.52,291.72,354.83,291.44,354.16Zm-25.66,98.21c2.77,1.61,4.88,3.93,7.07,6.18a9.55,9.55,0,0,1,1.64,2.37,46.83,46.83,0,0,1,3,6.78c1,3.11,1,11.48,0,14.58a39,39,0,0,1-3.79,8.09c-.57.94-1.54,1.44-2,2.46s-1.48,1.43-2.2,2.14a19.47,19.47,0,0,1-6,3.88,18.46,18.46,0,0,1-8.1,2c-1.33-.05-2.67,0-4,0a18.22,18.22,0,0,1-7.7-1.85,24.88,24.88,0,0,1-6.38-3.95,25.77,25.77,0,0,1-6.69-8.7,18.59,18.59,0,0,1-2.23-8.48c0-1-.63-1.82-.51-2.87a46.81,46.81,0,0,1,1.4-8.13,28.23,28.23,0,0,1,3.36-7.07,24.85,24.85,0,0,1,8.44-7.69,34.43,34.43,0,0,1,7.24-3,3.85,3.85,0,0,1,1.15-.07h3.76c.86,0,1.73,0,2.59,0A22,22,0,0,1,265.78,452.37Z" transform="translate(-11.84 -18.11)"/><path class="cls-37" d="M176.69,311.48a57.8,57.8,0,0,1-4.92-4.9H154.35c-3.22,2.23-5.6,5.24-8.38,7.83s-5.67,5.26-8.35,7.75v50.16l16.36,16h17.66l16.29-15.85V322.25C184.09,318.82,180.8,314.74,176.69,311.48ZM167.2,370h-8.68c-.35-2-.48-36.93-.15-45.47h8.83Z" transform="translate(-11.84 -18.11)"/><path class="cls-38" d="M489.52,339.16a.35.35,0,0,1-.1.19,1,1,0,0,1-.2.14,8.49,8.49,0,0,1-.63-.92c-2.22-4.33-4.36-8.71-6.67-13-2.52-4.68-4.6-9.58-7.42-14.11a47.07,47.07,0,0,1-2.36-4.91H458.35a.37.37,0,0,0-.2.08c-.06,0-.1.11-.06.07v81.66h15V338.58a37.05,37.05,0,0,1,1.86,4c1.38,2.88,2.85,5.72,4.3,8.57s2.94,5.82,4.22,8.84c1.55,3.67,3.6,7.14,5.42,10.69a5.31,5.31,0,0,1,.65,2.56c-.06,4.39,0,8.78,0,13.17v2h15V306.64h-15C489.52,317.54,489.52,328.35,489.52,339.16Z" transform="translate(-11.84 -18.11)"/><path class="cls-39" d="M222.3,362.1h12.41l14.34-11.84v-32L234.8,306.66H201.11V386a6.78,6.78,0,0,0,0,1.41,3.47,3.47,0,0,0,.56.95H222.3ZM221.89,325h6.44v19.24h-6.44Z" transform="translate(-11.84 -18.11)"/><path class="cls-40" d="M428.3,373.79H416V306.6H400.2v67.54l14.27,14.27h15l14.81-14.83V306.66h-16Z" transform="translate(-11.84 -18.11)"/><path class="cls-41" d="M386,346.08H365.18c-.22,0-.45,0-.87.07-.87,2.21-.28,4.55-.38,6.83s0,4.8,0,7.28h6.54v13.5H357.86c-.33-8.24-.19-50.54.15-52.53H370.5v15.37h15.36l.62-.62V321.12l-14.52-14.52H356.16l-14.37,14.35v52.82l14.61,14.61h15.13c1.71-.89,2.42-2.51,3.72-3.49s2.26-2.64,3.64-3.6a32.29,32.29,0,0,0,3.75-3.38c1.31-1.24,2.56-2.54,3.84-3.82V350.81c0-1.18,0-2.35,0-3.53A4,4,0,0,0,386,346.08Z" transform="translate(-11.84 -18.11)"/><path class="cls-42" d="M81.68,324.91h11.8a.38.38,0,0,1,.2.08,2.13,2.13,0,0,1,.23.25v63.14h20.7V324.84h12.08V306.67h-45Z" transform="translate(-11.84 -18.11)"/><path class="cls-43" d="M295.61,89.92a11.79,11.79,0,0,1,0,4.44c-.18,1.57.47,3,.53,4.51a50.42,50.42,0,0,0,.35,7.11c.5,2.76,0,5.65.51,8.5.42,2.31-.14,4.72.46,7.1a13,13,0,0,1,0,4.45c-.16,1.57.51,3,.54,4.51,0,2.29-.28,4.58.37,6.88a11.43,11.43,0,0,1,0,4.21c-.16,1.49.48,2.83.53,4.28a53.13,53.13,0,0,0,.34,7.11c.47,2.85.06,5.81.53,8.73.39,2.41-.18,4.88.46,7.34.35,1.32,0,2.81.08,4.22s.32,2.85.45,4.28c.2,2.28-.22,4.57.41,6.88a12.15,12.15,0,0,1,0,4.45c-.18,1.57.46,3,.53,4.51a48.59,48.59,0,0,0,.35,7.12c.49,2.61,0,5.34.51,8,.43,2.47-.18,5,.47,7.57a12.8,12.8,0,0,1,0,4.45c-.17,1.57.51,3,.54,4.51,0,2.29-.26,4.57.37,6.88a11.93,11.93,0,0,1,0,4.45c-.18,1.5.46,2.84.52,4.28a59.81,59.81,0,0,0,.35,6.88c.46,2.85.05,5.81.52,8.73.39,2.41-.34,4.92.52,7.32-.35,4.27.71,8.48.46,12.74-.09,1.54.79,3,.48,4.51a11.36,11.36,0,0,1,1.31,4.61c.29,1.69,1,3.27,1,5,1,.8.27,2,.74,3a14.68,14.68,0,0,1,1.11,4.23c.44,3.15,1.35,6.18,2,9.27l.46-.14c-.19-1.16-.46-2.32-.56-3.49-.21-2.52.21-5-.42-7.58-.37-1.48,0-3.12-.08-4.69s-.32-3-.45-4.51c-.2-2.36.23-4.73-.4-7.11a13.51,13.51,0,0,1,0-4.68c.16-1.64-.46-3.15-.52-4.75a58.85,58.85,0,0,0-.35-7.11c-.48-3,0-6.13-.53-9.2-.39-2.4-.05-4.87-.42-7.34-.45-3,0-6.13-.53-9.21-.38-2.33.21-4.72-.44-7.11a12.15,12.15,0,0,1,0-4.45c.18-1.57-.46-3-.53-4.51a60.68,60.68,0,0,0-.35-7.59c-.48-2.84-.07-5.81-.52-8.73-.42-2.72.11-5.49-.43-8.28-.5-2.52,0-5.18-.49-7.8s.07-5.49-.46-8.28c-.5-2.61,0-5.33-.47-8s.05-5.65-.47-8.51c-.48-2.61,0-5.34-.47-8s0-5.65-.47-8.51c-.46-2.62,0-5.34-.48-8-.46-2.55,0-5.18-.45-7.8-.5-3,.11-6.13-.5-9.21-.46-2.31,0-4.7-.42-7.1-.48-3,0-6.13-.52-9.2-.4-2.4.12-4.87-.44-7.34-.39-1.71,0-3.59-.09-5.39s-.34-3.47-.44-5.22c-.07-1.25,0-2.51,0-3.52L296,76.4l-.74,1.44c0,1.83-.06,3.87,0,5.9S295,87.84,295.61,89.92Z" transform="translate(-11.84 -18.11)"/></svg>