<?xml version="1.0" encoding="UTF-8"?>
<!DOCTYPE svg PUBLIC "-//W3C//DTD SVG 1.1//EN" "http://www.w3.org/Graphics/SVG/1.1/DTD/svg11.dtd">
<!-- Creator: CorelDRAW X7 -->
<svg xmlns="http://www.w3.org/2000/svg" xml:space="preserve" width="24.2mm" height="24.2mm" version="1.1" style="shape-rendering:geometricPrecision; text-rendering:geometricPrecision; image-rendering:optimizeQuality; fill-rule:evenodd; clip-rule:evenodd"
viewBox="0 0 2420 2420"
 xmlns:xlink="http://www.w3.org/1999/xlink">
 <defs>
  <style type="text/css">
   <![CDATA[
    .fil0 {fill:#2B2A29}
   ]]>
  </style>
 </defs>
 <g id="Слой_x0020_1">
  <metadata id="CorelCorpID_0Corel-Layer"/>
  <path class="fil0" d="M1215 5c663,0 1201,538 1201,1202 0,664 -538,1202 -1201,1202 -664,0 -1202,-538 -1202,-1202 0,-664 538,-1202 1202,-1202zm-39 726l77 0 0 -26 -77 0 0 26zm-611 1156l288 0 0 -27 -288 0 0 27zm1011 0l289 0 0 -27 -289 0 0 27zm-434 -1216l145 0 0 434 -145 0 0 -434zm434 1155l289 0 0 -144 -146 0 0 -1011 146 0 0 -144 -289 0 0 1299zm-1011 0l288 0 0 -144 -145 0 0 -434 145 0 0 -143 -145 0 0 -434 145 0 0 -144 -288 0 0 1299zm432 2l145 0 0 -580 145 0 0 578 144 0 0 -1301 -434 0 0 1303zm756 -1097l112 0 0 -26 -112 0 0 26zm-1011 578l111 0 0 -27 -111 0 0 27zm0 -578l111 0 0 -26 -111 0 0 26zm255 1157l145 0 0 -27 -145 0 0 27zm179 -579l77 0 0 -27 -77 0 0 27zm111 551l0 27 144 0 0 -27 -144 0z"/>
 </g>
</svg>
