<?xml version="1.0" encoding="UTF-8"?>
<!DOCTYPE svg PUBLIC "-//W3C//DTD SVG 1.1//EN" "http://www.w3.org/Graphics/SVG/1.1/DTD/svg11.dtd">
<!-- Creator: CorelDRAW X7 -->
<svg xmlns="http://www.w3.org/2000/svg" xml:space="preserve" width="52mm" height="13mm" version="1.1" style="shape-rendering:geometricPrecision; text-rendering:geometricPrecision; image-rendering:optimizeQuality; fill-rule:evenodd; clip-rule:evenodd"
viewBox="0 0 5200 1300"
 xmlns:xlink="http://www.w3.org/1999/xlink">
 <defs>
  <style type="text/css">
   <![CDATA[
    .fil10 {fill:#D5A353}
    .fil4 {fill:url(#id0)}
    .fil2 {fill:url(#id1)}
    .fil7 {fill:url(#id2)}
    .fil3 {fill:url(#id3)}
    .fil9 {fill:url(#id4)}
    .fil1 {fill:url(#id5)}
    .fil6 {fill:url(#id6)}
    .fil8 {fill:url(#id7)}
    .fil5 {fill:url(#id8)}
    .fil0 {fill:url(#id9)}
   ]]>
  </style>
  <linearGradient id="id0" gradientUnits="userSpaceOnUse" x1="1455.14" y1="668.77" x2="1929.03" y2="492.7">
   <stop offset="0" style="stop-opacity:1; stop-color:#D5A353"/>
   <stop offset="0.458824" style="stop-opacity:1; stop-color:#D5A353"/>
   <stop offset="1" style="stop-opacity:1; stop-color:#966619"/>
  </linearGradient>
  <linearGradient id="id1" gradientUnits="userSpaceOnUse" xlink:href="#id0" x1="4591.31" y1="801.09" x2="5138.2" y2="557.56">
  </linearGradient>
  <linearGradient id="id2" gradientUnits="userSpaceOnUse" xlink:href="#id0" x1="1910.82" y1="771.9" x2="2305.43" y2="602.18">
  </linearGradient>
  <linearGradient id="id3" gradientUnits="userSpaceOnUse" xlink:href="#id0" x1="4083.18" y1="726.26" x2="4581.77" y2="534.75">
  </linearGradient>
  <linearGradient id="id4" gradientUnits="userSpaceOnUse" xlink:href="#id0" x1="1064.42" y1="807.77" x2="1450.18" y2="643.48">
  </linearGradient>
  <linearGradient id="id5" gradientUnits="userSpaceOnUse" xlink:href="#id0" x1="81.58" y1="824.12" x2="613.03" y2="601.05">
  </linearGradient>
  <linearGradient id="id6" gradientUnits="userSpaceOnUse" xlink:href="#id0" x1="616.57" y1="878.21" x2="1045.31" y2="672.74">
  </linearGradient>
  <linearGradient id="id7" gradientUnits="userSpaceOnUse" xlink:href="#id0" x1="2330.42" y1="758.49" x2="2714.33" y2="589.7">
  </linearGradient>
  <linearGradient id="id8" gradientUnits="userSpaceOnUse" xlink:href="#id0" x1="3743.11" y1="632.39" x2="4074.25" y2="552.52">
  </linearGradient>
  <linearGradient id="id9" gradientUnits="userSpaceOnUse" xlink:href="#id0" x1="3016.1" y1="779.32" x2="3684.52" y2="337.74">
  </linearGradient>
 </defs>
 <g id="Слой_x0020_1">
  <metadata id="CorelCorpID_0Corel-Layer"/>
  <g id="_2433303675024">
   <g>
    <path class="fil0" d="M2989 262c51,22 51,8 69,122 12,74 20,100 -8,165 25,30 36,43 47,96 22,119 30,264 57,377l130 4c14,-70 48,-422 70,-451 26,32 57,443 72,456 12,5 110,8 129,6 11,-21 32,-204 37,-243 9,-71 17,-191 65,-220 -18,-46 -23,-59 -16,-118 5,-45 10,-148 47,-161 30,-11 22,-3 22,-46 -1,-43 3,-98 0,-140l-150 -10 -2 179c1,1 2,0 3,2 2,4 0,0 5,2 7,2 21,5 25,15 6,52 -19,176 -26,232 -8,55 -15,186 -41,222 -15,-30 -66,-422 -60,-462 16,-12 17,-8 24,-11 10,-4 4,4 9,-7l0 -174 -207 -10 -1 177c5,8 1,3 9,8 28,16 26,11 16,98l-41 313c-5,40 -4,30 -18,55 -16,-22 -60,-359 -63,-431 -1,-45 18,-36 31,-43l0 -179 -232 -6 -2 183z"/>
    <path class="fil1" d="M312 1001l1 -220c95,-34 109,15 107,100 -1,83 -20,125 -108,120zm0 -588c4,-22 65,-25 84,0 24,31 22,106 14,146 -11,51 -39,68 -98,66l0 -212zm-198 -148l-2 183c41,-3 53,-5 60,35 5,29 4,62 4,91 -1,69 0,107 -35,156 14,20 26,32 31,64 6,36 6,148 -2,183 -7,33 -21,37 -57,43l-1 184c77,-5 168,-25 245,-37 212,-34 168,-133 221,-264 9,-21 2,-26 -6,-49 -12,-36 -16,-77 -28,-111 -21,-56 -54,-60 -64,-74 10,-22 33,-37 48,-79 12,-31 17,-70 30,-102 21,-52 3,-39 -9,-93 -37,-160 -39,-189 -208,-167 -77,10 -152,22 -227,37z"/>
    <path class="fil2" d="M4852 695c-20,-56 -33,-56 -35,-132 -2,-48 -2,-113 2,-160 73,10 98,40 107,114 5,32 6,71 3,103 -6,68 -18,60 -26,82 29,59 32,110 24,182 -8,77 -29,101 -109,92 -2,-51 -3,-107 -1,-157 3,-64 7,-82 35,-124zm-233 -320c65,18 63,24 63,148 0,60 0,108 -34,142 33,78 34,49 34,165 0,132 -9,114 -64,120l1 181c65,15 141,20 208,29 92,13 136,-1 176,-55 58,-79 64,-184 77,-280 7,-49 12,-55 31,-90 -58,-110 -23,-269 -109,-407 -33,-53 -75,-87 -155,-103 -43,-9 -191,-34 -229,-31l1 181z"/>
    <path class="fil3" d="M4121 322c58,18 61,6 61,132 1,74 3,110 -34,158 34,52 34,77 34,152 1,121 2,132 -62,132l0 182 427 44 1 -372 -100 -13c-1,149 29,214 -129,176 0,-52 -3,-105 -1,-156 3,-61 7,-85 35,-125 -33,-54 -34,-77 -34,-153 0,-87 -5,-133 62,-131l1 -183 -263 -26c-1,37 -4,155 2,183z"/>
    <path class="fil4" d="M1692 486c40,-18 52,49 54,85 3,56 -7,74 -22,120 -5,16 11,33 16,51 12,41 11,154 -25,177 -52,33 -76,-112 -38,-203 10,-23 -4,-30 -11,-54 -10,-37 -9,-95 0,-132 5,-22 11,-37 26,-44zm-201 -375l-2 156c8,25 50,-28 54,80 2,58 7,267 -7,316 -6,24 -15,31 -23,46 30,59 32,75 32,154 0,35 -7,158 1,182l36 0c11,-16 19,-45 25,-66 10,-31 10,-42 33,-59 18,152 174,230 221,-34 8,-50 7,-115 20,-159 16,-55 20,-14 2,-59 -9,-23 -10,-54 -12,-79 -3,-53 -10,-107 -26,-154 -32,-94 -100,-118 -144,-59 -19,26 -9,30 -37,51l-2 -325 -171 9z"/>
    <path class="fil5" d="M3777 297c67,8 64,27 64,138 -1,68 -1,102 -34,150 11,24 21,28 27,63 6,29 7,61 7,90l0 4c-1,121 -1,124 -64,128l1 182 261 19 1 -183c-64,-12 -64,-43 -64,-131 1,-95 0,-94 35,-157 -33,-65 -34,-61 -35,-157 0,-107 2,-122 64,-128l0 -182 -261 -20 -2 184z"/>
    <path class="fil6" d="M818 833c0,32 0,80 -13,107 -16,36 -50,32 -58,-10 -8,-49 36,-150 71,-163l0 66zm-163 -165c13,-1 69,-4 74,-12 2,-3 6,-58 13,-74 18,-41 72,-56 76,36 2,65 -22,83 -65,109 -40,24 -65,44 -86,86 -34,72 -52,221 -8,293 31,50 79,36 114,0 31,-33 43,-94 58,-114 25,33 15,72 51,103 36,31 84,12 108,-17 44,-55 39,-194 39,-275l-44 4c0,23 10,131 -18,138 -45,12 -31,-97 -28,-119 6,-35 19,-46 28,-73 -7,-13 -14,-17 -20,-36 -24,-69 18,-260 -101,-298 -71,-23 -128,23 -153,62 -27,44 -45,126 -38,187z"/>
    <path class="fil7" d="M2075 616c3,-204 108,-209 107,-1l-107 1zm205 177l-70 2c-12,23 -12,59 -25,82 -11,20 -39,45 -70,22 -37,-28 -39,-118 -41,-175l205 -5c17,-72 -8,-346 -128,-385 -78,-25 -131,46 -154,93 -35,73 -34,128 -48,211 -4,26 -9,27 -16,46 -4,12 9,30 13,45 9,33 11,76 17,111 45,254 208,229 259,155 39,-57 55,-119 58,-202z"/>
    <path class="fil8" d="M2525 436l0 -90 -173 0 0 162c34,10 52,6 54,73 2,54 -8,69 -30,99 6,17 16,23 23,41 8,22 21,114 -25,130 -33,11 -22,-9 -22,167l226 -1 1 -163c-48,-8 -53,-22 -54,-75 -1,-59 8,-62 31,-100 -18,-32 -32,-51 -32,-101 0,-38 12,-89 48,-89 40,23 25,95 30,143l90 0c5,-75 6,-198 -22,-262 -22,-52 -73,-60 -114,23 -12,24 -10,32 -31,43z"/>
    <path class="fil9" d="M1296 897c-20,-5 -28,-9 -33,-33 -19,-81 25,-133 25,-140 -1,-3 -21,-32 -25,-57 -8,-39 -5,-131 38,-131 46,1 34,101 34,138l91 -7c5,-73 5,-201 -22,-261 -19,-43 -62,-43 -90,-9 -39,45 -22,77 -55,84l0 -87 -172 14 -1 163c46,3 54,26 55,72 0,21 -1,41 -8,58 -7,17 -18,26 -23,41 25,30 32,50 30,102 -1,55 -11,59 -54,74l0 160 226 -16 1 -159 -17 -6z"/>
   </g>
   <g>
    <path class="fil10" d="M630 743l18 9c-6,11 -2,7 -11,15l-7 -24zm-77 -67c61,57 44,108 74,185 39,-78 29,-83 99,-139 6,-4 3,-2 7,-5 -49,3 -97,23 -101,-37 -8,-110 35,-268 169,-288 96,-15 156,51 176,127 20,77 5,172 23,207 11,23 24,14 20,56 89,-6 49,53 63,115l27 -9c19,-104 -28,-93 -28,-131 1,-23 55,-79 26,-129 -55,-13 -48,-19 -48,-90 0,-166 -17,-149 117,-160 39,-3 92,-15 120,3 18,-10 31,-25 59,-30 88,-15 109,85 117,158 5,52 7,122 2,174 -4,51 -60,43 -135,47 0,40 -14,36 -24,63 -7,16 -9,57 -4,75 8,16 40,1 49,36 4,15 2,64 2,83 0,27 1,56 0,84 -1,27 -11,43 -37,46 -48,6 -107,8 -157,11 -45,4 -87,17 -104,-15 -7,-12 -5,-24 -7,-38 -20,42 -40,74 -90,86 -76,20 -104,-30 -124,-50 -8,8 -66,113 -152,76 -57,-25 -74,-93 -80,-170l-11 26c-2,10 -4,15 -7,25 -56,148 -153,144 -303,169 -39,6 -75,12 -114,17 -52,8 -83,10 -83,-48 0,-29 -6,-175 9,-194 37,-47 60,49 54,-157 -1,-20 -2,-43 -10,-59 -7,-16 -23,-29 -25,-47 -2,-25 14,-30 22,-46 18,-36 13,-154 16,-200 -66,-8 -66,16 -66,-111 0,-31 1,-61 1,-92 0,-37 2,-49 34,-58 52,-15 262,-48 317,-47 126,1 138,127 158,207 5,22 23,54 22,70 -2,19 -17,49 -23,69 -7,25 -11,49 -19,72 -9,28 -23,44 -31,63zm1157 -340c35,-14 63,-26 103,-3 25,15 45,38 61,70 44,88 32,186 47,212 9,-108 47,-256 149,-298 127,-52 205,69 236,195 15,64 19,138 17,205 0,31 -2,38 -23,54 1,1 2,1 2,2 1,3 15,9 19,27 3,17 -2,33 0,50 6,-5 10,-10 17,-13 11,-6 14,-2 26,-11 8,-19 8,-53 1,-74 -7,-18 -26,-31 -27,-54 -1,-26 19,-33 26,-54 5,-13 18,-71 -12,-79 -44,-12 -37,-31 -37,-86 1,-168 -16,-156 118,-156 50,0 90,-8 124,13 36,-30 86,-43 125,-3 56,58 53,224 49,305 -3,71 -58,43 -133,50 -5,14 -2,18 -11,33 -6,10 -12,14 -17,27 -8,18 -15,72 6,81 10,4 18,4 27,10 12,8 15,19 16,34 1,32 -1,67 -1,99 0,99 8,101 -93,101 -33,0 -173,5 -191,-6 -35,-20 -13,-132 -20,-180 3,12 -17,69 -23,85 -11,28 -25,54 -44,73 -37,40 -88,72 -167,46 -112,-36 -146,-161 -160,-301 -18,71 -6,177 -67,266 -68,99 -171,57 -209,-15 -27,35 6,55 -65,60 -56,4 -65,-10 -66,-63 0,-66 9,-194 -5,-251 -10,-40 -44,-50 -13,-92 19,-27 20,-71 20,-110 0,-71 5,-187 -4,-253 -62,-21 -52,-4 -51,-152 1,-105 7,-91 108,-97 91,-5 141,-24 141,49 0,63 -4,143 1,204zm-281 -174c0,40 -2,83 -1,124 2,53 32,59 54,74l-1 40c0,-6 -15,-29 -20,-37 -60,-86 -165,-21 -165,-21 -3,1 -39,-2 -53,-1 -198,16 -214,0 -215,138 0,34 -3,85 1,116 5,43 38,52 53,63 1,27 -1,33 -13,49 -11,16 -12,27 -20,40 -7,-24 -14,-21 -21,-35 -5,-11 -6,-34 -6,-47 -1,-36 -1,-71 -6,-106 -17,-128 -101,-224 -230,-197 -68,15 -97,46 -130,86 -32,-62 -30,-136 -64,-195 -33,-60 -81,-94 -175,-88 -68,12 -292,30 -329,62 -35,32 -25,106 -25,172 0,124 0,102 63,139 7,218 -39,137 -35,211 3,72 43,-17 33,216 -36,13 -59,28 -61,73 -1,43 0,91 0,135 0,120 30,126 145,109 91,-14 262,-29 327,-79 44,-34 39,-40 66,-72 21,32 40,82 105,92 46,8 83,-10 116,-36 11,-8 17,-18 27,-25 54,58 161,35 199,-15 33,14 26,21 73,17 61,-5 218,-8 246,-31 39,-31 27,-97 27,-157 0,-49 9,-83 -23,-114 -12,-11 -18,-9 -29,-18 -3,-34 9,-57 28,-84l88 -7c24,53 25,40 25,124 0,50 -2,100 -1,150 0,54 5,88 49,102 20,7 50,4 71,2 31,-4 32,-12 50,-27 14,6 90,80 177,20 75,-52 83,-131 97,-152 30,72 70,127 148,151 43,13 86,10 126,-5 42,-16 60,-42 85,-68 29,65 58,54 137,54 40,0 158,7 187,-7 53,-26 40,-85 41,-154 0,-24 3,-73 -3,-93 -9,-31 -34,-40 -50,-50 -7,-45 27,-81 30,-82 58,0 107,8 129,-41 20,-46 8,-248 -20,-317 -19,-47 -44,-64 -91,-82 -51,-4 -80,19 -100,16 -36,-5 -75,-3 -112,-3 -88,1 -136,-12 -150,78 -15,-15 -21,-31 -35,-44 -45,-42 -108,-63 -173,-43 -68,21 -127,91 -149,162 -10,-14 -22,-70 -62,-112 -44,-46 -83,-40 -124,-42 0,-56 2,-114 0,-169 -1,-61 -39,-76 -99,-73 -48,4 -103,2 -150,8 -22,3 -40,17 -50,31 -14,21 -12,44 -12,75z"/>
    <path class="fil10" d="M4682 1200c-36,-5 -90,-8 -111,-29 -1,-1 -3,-4 -5,-5 0,-1 -1,-1 -2,-2 0,-1 -1,-1 -1,-2 -24,28 -95,8 -136,4 -47,-5 -95,-10 -142,-15 -227,-23 -211,-4 -217,-99 -1,31 1,61 -26,72 -17,6 -69,-1 -89,-3 -256,-21 -224,11 -224,-149 0,-126 -9,-111 58,-129 7,-30 5,-103 3,-136 -5,-82 -34,-76 -33,-107 0,-27 17,-27 24,-48 7,-17 8,-40 9,-60 2,-38 4,-99 -3,-136 -28,-9 -39,-2 -54,-26 -42,38 -38,-29 -59,122 -20,138 29,107 10,153 -13,32 -33,-2 -51,132 -7,52 -14,104 -21,157 -31,236 -13,200 -159,195 -31,-2 -56,1 -69,-23 -17,-30 -19,-195 -37,-235 -5,45 -20,194 -32,226 -14,34 -59,23 -100,22 -40,-1 -89,7 -103,-26 -24,-63 -41,-375 -73,-435 -18,-33 -50,-31 -21,-84 16,-30 5,-79 0,-114l-14 -84c-9,-31 -38,-10 -53,-42 -8,-18 -3,-163 -3,-187 1,-54 28,-52 77,-50 41,1 83,2 124,3 43,1 82,-6 103,20 23,-28 148,-11 207,-8 34,2 42,4 63,16 24,-21 123,-8 171,-4 23,2 27,4 40,16l4 4c34,-21 39,-14 85,-10l185 14c37,3 52,4 61,38 10,-27 25,-32 60,-28 315,30 278,-7 278,168 0,22 2,67 -2,86 -6,32 -28,29 -45,32 -2,0 -6,2 -7,1 0,-1 -2,1 -3,1 -8,31 -6,101 -4,135 5,84 33,73 33,106 0,21 -16,29 -24,51 -17,47 -11,147 -11,198l47 3c6,-49 0,-99 4,-146 5,-52 55,-38 99,-32 62,8 78,3 78,72 -1,45 -4,102 0,146 19,-18 23,-13 54,-14 5,-16 1,-111 0,-136 -3,-76 -35,-75 -35,-109 1,-44 33,-8 36,-110 0,-37 2,-98 -6,-133 -24,-8 -43,-6 -53,-28 -4,-8 -15,-203 6,-226 22,-26 99,-7 134,-1 45,6 95,12 139,22 187,41 230,227 246,396 6,62 6,80 32,128 15,28 -1,42 -11,60 -28,51 -12,196 -78,324 -76,144 -195,109 -353,88zm-1742 -1161c-26,48 -23,35 -23,104 -1,42 -1,83 -1,124 0,24 5,42 17,56 18,21 34,18 41,30 7,17 19,111 20,134 2,46 -42,70 -5,119 14,20 21,15 30,47 9,33 25,159 30,197 37,280 20,255 195,262 57,2 88,-5 102,-50 10,15 10,28 33,45 20,14 39,12 66,13 43,0 97,15 136,-4 38,-19 39,-57 46,-107l37 -270c14,-108 24,-81 43,-111 32,-49 -9,-71 -7,-123 1,-32 11,-103 19,-131 15,-2 27,5 40,9 1,38 9,142 -16,171 -46,56 8,88 14,138 5,38 3,85 2,124 -50,7 -62,43 -62,98 0,84 -18,174 30,211 16,13 40,13 65,15 37,3 225,23 256,15 19,-6 14,-5 30,2 23,11 381,44 426,49 13,2 22,3 36,2 40,-5 16,5 98,17 70,11 223,37 286,20 38,-10 80,-39 98,-59 104,-119 89,-273 112,-365 7,-26 21,-31 26,-55 6,-26 -8,-44 -11,-62 -26,-19 -27,-126 -32,-165 -23,-149 -76,-308 -231,-357 -50,-16 -113,-22 -167,-30 -51,-9 -133,-29 -167,6 -33,35 -21,119 -21,175 0,29 -5,65 8,90 17,34 26,24 53,42 20,223 -42,139 -32,235 -53,-12 -112,-22 -164,-9 33,-79 1,-62 -14,-112 -8,-27 -9,-114 -5,-144 78,-37 60,-53 60,-186 0,-103 6,-132 -101,-142 -68,-7 -160,-22 -226,-22 -28,0 -27,12 -49,2 -33,-15 -235,-26 -280,-28 -28,-1 -31,8 -54,0 -24,-9 -148,-15 -173,-15 -31,0 -19,6 -54,0 -28,-5 -209,-13 -233,-9 -25,5 -26,-4 -52,-5 -69,-3 -179,-10 -245,-4 -10,5 -22,11 -30,13z"/>
    <path class="fil10" d="M4065 645c44,76 36,77 33,196 -42,10 -21,6 -60,-8 -3,-36 -3,-73 -1,-109 2,-53 8,-45 28,-79zm-28 -244c37,-7 25,-7 61,9 1,32 9,141 -13,168l-13 14c-1,1 -2,2 -2,3 -42,-57 -36,-115 -33,-194zm-26 459c33,10 47,7 57,42 16,-37 25,-21 56,-32 12,-10 7,-157 0,-179 -6,-22 -24,-39 -28,-56 -5,-31 17,-36 25,-57 12,-32 13,-181 4,-193 -4,-3 -1,-2 -8,-4 -17,-7 -42,-2 -50,-40 -34,66 -63,-22 -63,102 0,47 -3,108 22,142 34,48 -13,56 -19,116 -5,48 -5,113 4,159z"/>
    <path class="fil10" d="M4840 954c32,-3 31,-70 31,-95 1,-34 3,-85 -16,-109 -18,21 -26,173 -15,204z"/>
    <path class="fil10" d="M3226 322l23 198c8,-24 25,-163 25,-194 -8,-7 -16,-12 -21,-19 -11,6 -13,11 -27,15z"/>
    <path class="fil10" d="M3496 332c2,38 14,170 24,197l26 -193c-14,-3 -20,-9 -28,-14 -7,4 -13,8 -22,10z"/>
    <path class="fil10" d="M4837 549l0 3c0,41 0,98 25,123 20,-37 14,-192 -24,-203l-1 77z"/>
    <path class="fil10" d="M2145 884c30,-18 14,-89 45,-107l-68 1c-9,25 7,94 23,106z"/>
    <path class="fil10" d="M372 828l-1 146c24,-6 26,-28 28,-60 2,-32 1,-61 -7,-89l-20 3z"/>
    <path class="fil10" d="M370 596c25,-7 24,-51 24,-73 0,-15 -1,-32 -3,-47 -3,-17 -3,-25 -20,-24l-1 144z"/>
    <path class="fil10" d="M2121 591l25 2 -7 -53c-3,-5 -4,-6 -5,-8 -9,17 -11,38 -13,59z"/>
    <path class="fil10" d="M1710 864c1,-1 2,-1 4,-9 0,-3 1,-8 1,-11 0,-6 0,-15 0,-22 0,-16 0,-29 -3,-46 -8,18 -10,65 -3,86 0,0 1,1 1,2z"/>
    <path class="fil10" d="M1708 650c10,-28 9,-55 4,-86 -11,20 -8,60 -4,86z"/>
   </g>
  </g>
 </g>
</svg>
