<?xml version="1.0" encoding="UTF-8"?>
<!DOCTYPE svg PUBLIC "-//W3C//DTD SVG 1.1//EN" "http://www.w3.org/Graphics/SVG/1.1/DTD/svg11.dtd">
<!-- Creator: CorelDRAW X7 -->
<svg xmlns="http://www.w3.org/2000/svg" xml:space="preserve" width="133mm" height="34mm" version="1.1" style="shape-rendering:geometricPrecision; text-rendering:geometricPrecision; image-rendering:optimizeQuality; fill-rule:evenodd; clip-rule:evenodd"
viewBox="0 0 13300 3400"
 xmlns:xlink="http://www.w3.org/1999/xlink">
 <defs>
  <style type="text/css">
   <![CDATA[
    .fil1 {fill:#D5A353}
    .fil0 {fill:#E6E6E6}
   ]]>
  </style>
 </defs>
 <g id="Слой_x0020_1">
  <metadata id="CorelCorpID_0Corel-Layer"/>
  <g id="_2433294109456">
   <path class="fil0" d="M7630 682c131,58 131,22 177,318 30,192 52,258 -20,426 66,80 94,112 120,251 59,307 80,683 148,978l339 10c37,-183 124,-1096 180,-1170 69,84 149,1149 188,1183 32,11 285,21 333,15 29,-54 83,-530 96,-630 25,-185 44,-496 169,-570 -47,-120 -60,-154 -42,-306 13,-117 28,-384 123,-418 79,-29 56,-9 56,-119 -1,-113 9,-255 0,-364l-389 -26 -4 466c2,1 6,0 7,3 5,13 1,1 14,5 17,6 53,15 65,39 15,136 -49,458 -69,602 -19,144 -38,483 -106,577 -37,-80 -170,-1095 -156,-1198 43,-32 45,-21 64,-29 25,-12 10,9 22,-18l0 -450 -535 -27 -3 458c12,21 3,8 23,20 73,44 68,30 40,255l-105 812c-13,103 -12,78 -47,143 -41,-56 -155,-932 -162,-1117 -5,-117 44,-95 80,-113l0 -464 -602 -14 -4 472z"/>
   <path class="fil0" d="M688 2598l2 -570c247,-88 283,40 279,260 -4,217 -52,325 -281,310zm-1 -1522c10,-57 168,-66 218,-1 62,80 58,274 36,379 -28,132 -101,176 -253,171l-1 -549zm-512 -386l-5 477c105,-9 137,-14 155,90 12,74 11,160 10,236 -1,178 1,277 -91,405 36,50 68,82 81,164 15,95 16,383 -5,476 -19,86 -55,96 -147,110l-3 477c198,-11 436,-63 633,-95 551,-88 436,-345 576,-685 22,-55 2,-67 -18,-127 -30,-93 -40,-199 -72,-287 -53,-145 -140,-157 -166,-192 26,-56 85,-97 126,-204 31,-82 44,-183 76,-265 54,-137 9,-102 -23,-242 -97,-416 -100,-490 -539,-432 -199,26 -394,56 -588,94z"/>
   <path class="fil0" d="M12458 1805c-51,-144 -85,-145 -91,-341 -3,-125 -5,-292 5,-415 190,25 256,105 280,295 11,83 14,184 6,268 -16,177 -46,154 -68,212 75,153 84,285 64,473 -21,200 -75,261 -283,237 -6,-131 -7,-277 -2,-407 8,-165 17,-213 89,-322zm-605 -828c171,46 165,62 165,383 0,155 -1,280 -89,369 87,202 89,127 89,426 0,342 -23,297 -165,311l1 470c169,39 366,53 540,76 239,33 352,-4 455,-143 152,-205 167,-478 201,-727 17,-127 30,-143 80,-233 -150,-285 -59,-698 -282,-1054 -86,-138 -196,-227 -403,-269 -110,-22 -495,-87 -592,-78l0 469z"/>
   <path class="fil0" d="M10564 839c149,47 157,16 159,341 1,192 7,286 -90,410 88,137 90,199 90,395 0,314 4,342 -162,341l-1 474 1108 112 1 -964 -256 -32c-5,386 75,555 -336,455 -1,-134 -7,-271 -2,-405 6,-157 18,-221 90,-324 -85,-139 -87,-200 -88,-396 -1,-227 -12,-345 162,-339l1 -476 -681 -66c-3,95 -12,402 5,474z"/>
   <path class="fil0" d="M4266 1264c104,-47 135,126 139,221 8,145 -17,193 -55,310 -14,43 26,85 40,132 31,106 29,400 -64,460 -134,86 -198,-289 -99,-526 25,-61 -10,-77 -28,-141 -26,-95 -23,-247 -1,-342 13,-57 29,-97 68,-114zm-522 -973l-4 406c19,64 129,-73 140,206 6,151 16,693 -19,820 -16,61 -39,80 -58,120 76,153 82,193 81,397 -1,91 -17,411 2,474l96 -1c28,-42 47,-115 64,-171 25,-80 25,-108 86,-153 47,395 451,596 571,-89 22,-129 19,-296 53,-412 41,-142 51,-35 5,-153 -22,-59 -27,-139 -31,-205 -8,-137 -25,-276 -67,-397 -84,-244 -260,-308 -373,-155 -50,68 -24,79 -98,133l-4 -842 -444 22z"/>
   <path class="fil0" d="M9672 774c173,21 165,70 164,359 0,176 0,263 -86,388 27,61 53,72 71,164 14,74 16,156 15,234l0 9c-1,314 0,322 -163,331l0 472 677 51 5 -475c-168,-31 -167,-112 -166,-341 0,-245 0,-242 88,-407 -84,-169 -87,-158 -88,-407 -2,-277 4,-317 164,-330l0 -472 -677 -52 -4 476z"/>
   <path class="fil0" d="M2000 2165c1,83 -1,206 -34,276 -42,94 -130,83 -149,-26 -23,-127 91,-389 183,-422l0 172zm-422 -428c33,-4 177,-12 191,-32 5,-8 17,-151 35,-193 44,-104 186,-144 195,94 7,170 -56,216 -168,283 -105,62 -168,113 -222,224 -89,184 -137,572 -21,759 80,128 205,93 296,-2 80,-83 110,-243 149,-295 65,88 40,187 133,268 92,80 219,30 280,-45 114,-140 101,-501 101,-711l-114 10c0,58 26,340 -46,358 -118,30 -82,-252 -73,-309 14,-90 49,-119 73,-190 -20,-32 -36,-44 -54,-94 -61,-177 49,-673 -260,-772 -185,-59 -333,60 -397,162 -71,114 -116,327 -98,485z"/>
   <path class="fil0" d="M5260 1602c6,-531 280,-542 277,-2l-277 2zm531 459l-182 3c-31,62 -33,155 -65,215 -28,51 -101,116 -181,56 -98,-72 -101,-305 -107,-454l532 -13c44,-187 -22,-898 -331,-998 -203,-66 -341,120 -400,241 -91,189 -88,332 -124,548 -11,65 -23,68 -42,118 -11,32 22,77 33,117 24,86 28,197 44,288 116,657 541,594 672,401 101,-147 142,-307 151,-522z"/>
   <path class="fil0" d="M6425 1135l0 -234 -447 1 -1 420c88,25 135,15 141,189 4,139 -21,178 -80,256 17,45 43,59 61,107 21,56 53,295 -65,335 -86,30 -57,-22 -57,434l587 -1 2 -423c-124,-21 -139,-58 -141,-196 -3,-153 21,-160 81,-258 -46,-84 -84,-132 -83,-263 1,-97 31,-229 124,-230 103,59 65,247 77,370l235 1c11,-196 14,-513 -57,-679 -58,-136 -189,-157 -297,60 -31,62 -24,83 -80,111z"/>
   <path class="fil0" d="M3239 2329c-51,-13 -72,-23 -86,-84 -49,-211 66,-345 64,-363 0,-8 -52,-85 -64,-148 -19,-101 -13,-341 99,-339 120,2 88,261 88,357l237 -19c12,-189 11,-520 -59,-677 -49,-110 -159,-110 -233,-23 -100,116 -55,200 -142,219l0 -226 -447 37 -1 420c118,10 140,68 142,189 0,52 -4,106 -22,151 -17,43 -45,65 -58,105 65,77 84,131 79,265 -5,142 -31,151 -140,192l-1 415 585 -42 4 -414 -45 -15z"/>
  </g>
  <g id="_2433294096400">
   <path class="fil1" d="M1513 1931l46 22c-15,30 -5,20 -29,39l-17 -61zm-200 -173c158,147 114,278 192,478 99,-201 75,-215 257,-359 14,-12 7,-6 17,-15 -126,9 -252,60 -263,-94 -19,-285 91,-696 439,-749 250,-38 404,134 456,330 53,199 15,446 60,536 30,60 62,38 51,146 231,-16 128,137 164,299l72 -24c47,-269 -74,-240 -73,-340 1,-58 142,-203 66,-335 -141,-32 -125,-49 -124,-233 1,-428 -43,-386 303,-414 101,-9 238,-39 312,8 46,-26 80,-66 152,-78 229,-39 284,221 303,409 14,134 20,317 7,453 -11,132 -157,110 -352,120 0,104 -35,94 -62,165 -17,42 -23,147 -11,193 21,41 106,3 130,94 10,38 4,167 3,214 0,72 2,147 1,218 -2,70 -30,111 -96,120 -124,17 -279,20 -406,30 -119,9 -227,42 -272,-39 -17,-32 -11,-62 -16,-100 -53,108 -106,191 -234,224 -198,52 -269,-80 -321,-129 -21,20 -171,292 -395,195 -148,-64 -193,-240 -206,-439l-29 67c-6,25 -10,39 -20,64 -144,384 -397,374 -785,437 -99,17 -195,32 -296,46 -134,19 -214,26 -214,-126 0,-74 -16,-452 23,-502 95,-123 154,127 139,-406 -2,-52 -4,-111 -24,-154 -20,-41 -61,-75 -66,-123 -6,-65 36,-77 57,-119 47,-93 34,-398 41,-518 -171,-21 -170,41 -169,-289 0,-79 0,-158 0,-236 1,-96 7,-129 88,-152 136,-39 681,-124 824,-122 327,3 357,330 409,537 14,56 59,140 56,181 -3,51 -42,129 -58,181 -18,63 -29,126 -49,186 -24,71 -61,115 -81,164zm2998 -883c91,-35 166,-68 267,-8 67,40 119,98 160,181 114,230 83,484 121,552 23,-281 123,-664 388,-773 329,-136 530,179 610,504 40,167 50,357 46,531 -2,81 -6,100 -60,142 2,2 4,2 5,5 2,8 39,21 48,70 8,42 -4,86 0,129 16,-13 25,-26 44,-35 30,-14 37,-5 67,-27 21,-50 23,-137 3,-192 -17,-48 -66,-80 -69,-140 -4,-68 48,-85 68,-140 12,-33 46,-185 -31,-206 -115,-31 -97,-79 -96,-222 1,-436 -42,-404 306,-405 128,-1 232,-20 322,34 93,-79 222,-110 322,-7 147,150 138,581 128,789 -8,186 -151,113 -346,130 -13,37 -3,46 -28,85 -16,27 -30,39 -43,70 -20,47 -40,189 16,212 26,10 46,9 69,25 32,22 39,50 40,90 4,81 -1,173 -2,255 -1,258 20,261 -242,261 -85,0 -446,13 -493,-14 -92,-52 -35,-344 -54,-468 10,32 -44,181 -59,221 -28,74 -65,140 -112,190 -98,103 -231,186 -434,120 -291,-95 -378,-419 -414,-782 -47,185 -16,458 -175,691 -176,255 -443,148 -541,-39 -72,91 15,143 -170,155 -145,9 -168,-27 -169,-164 -2,-171 23,-502 -14,-650 -26,-104 -114,-131 -35,-240 50,-68 52,-184 53,-284 0,-184 12,-484 -12,-657 -159,-55 -133,-10 -130,-394 3,-272 16,-235 279,-250 237,-14 366,-62 366,127 0,163 -12,370 1,528zm-727 -452c-1,105 -5,217 -2,322 4,137 81,154 139,193l-2 103c-1,-16 -39,-75 -53,-95 -154,-225 -426,-55 -426,-55 -10,2 -102,-6 -139,-3 -514,42 -554,-1 -556,358 0,87 -8,220 2,301 13,112 98,133 137,163 3,70 -3,85 -33,128 -29,41 -33,70 -52,102 -18,-60 -37,-53 -55,-90 -13,-29 -15,-87 -16,-121 -3,-93 -2,-184 -14,-275 -45,-333 -263,-581 -598,-510 -175,37 -250,118 -335,222 -84,-160 -80,-352 -166,-506 -87,-155 -211,-244 -455,-229 -176,31 -756,78 -852,163 -93,82 -66,274 -66,444 -1,321 1,264 163,360 19,567 -100,356 -91,549 8,186 112,-44 87,559 -94,33 -153,71 -158,188 -5,114 -1,236 -1,351 -1,312 78,327 376,282 235,-36 678,-73 848,-204 115,-88 101,-104 171,-188 53,85 103,215 273,241 119,19 215,-28 300,-94 29,-22 43,-46 71,-64 138,148 417,90 516,-39 84,34 66,53 189,42 157,-13 565,-19 638,-79 100,-82 70,-251 70,-408 0,-127 23,-215 -61,-294 -32,-30 -45,-24 -76,-47 -6,-88 25,-149 75,-218l226 -17c63,136 67,103 66,320 0,130 -4,259 -3,388 1,140 12,230 127,266 51,16 129,11 186,3 79,-10 81,-31 127,-69 36,15 235,208 461,52 193,-133 213,-339 250,-394 77,187 183,329 385,391 111,34 223,27 325,-12 110,-41 156,-110 221,-175 76,168 150,138 356,138 104,0 409,18 484,-18 138,-68 104,-220 105,-399 1,-62 9,-189 -6,-242 -22,-80 -87,-104 -129,-128 -18,-118 70,-210 77,-213 150,1 278,19 334,-106 52,-119 20,-642 -53,-824 -48,-121 -111,-165 -234,-210 -132,-11 -208,49 -259,41 -95,-15 -194,-8 -290,-8 -230,1 -355,-32 -390,201 -39,-37 -55,-78 -91,-113 -116,-110 -280,-162 -447,-111 -178,54 -332,236 -388,419 -26,-36 -57,-182 -160,-289 -113,-119 -217,-106 -321,-111 0,-143 5,-294 0,-437 -5,-160 -101,-197 -258,-191 -124,11 -266,7 -387,23 -59,8 -106,43 -130,79 -37,55 -31,115 -32,194z"/>
   <path class="fil1" d="M12019 3114c-94,-12 -235,-19 -288,-73 -4,-4 -9,-10 -13,-15 -1,-1 -4,-2 -5,-5 0,-2 -3,-3 -4,-4 -63,72 -245,22 -351,10 -123,-13 -247,-27 -369,-39 -590,-59 -547,-10 -564,-256 -1,79 3,159 -66,185 -44,17 -178,-2 -232,-7 -664,-53 -581,29 -581,-386 0,-326 -22,-287 152,-334 18,-78 13,-268 8,-353 -13,-213 -88,-196 -86,-278 1,-68 43,-69 63,-123 16,-44 20,-106 23,-157 6,-98 9,-256 -10,-351 -71,-23 -98,-6 -139,-67 -109,97 -97,-76 -152,316 -51,356 74,277 26,395 -35,85 -87,-5 -133,342 -18,137 -37,271 -55,408 -80,611 -33,517 -413,504 -80,-2 -143,5 -178,-58 -44,-78 -48,-505 -96,-608 -13,114 -51,501 -83,585 -34,88 -153,60 -259,57 -104,-3 -230,19 -265,-69 -65,-161 -107,-971 -190,-1126 -47,-87 -131,-82 -56,-218 43,-79 15,-206 1,-295l-37 -219c-23,-81 -98,-25 -136,-110 -21,-46 -9,-421 -8,-485 2,-138 71,-132 198,-129 107,2 215,5 323,8 110,3 213,-15 267,52 58,-72 383,-27 537,-19 87,4 109,10 162,40 63,-54 318,-21 445,-11 59,5 68,11 103,44l10 10c87,-55 101,-37 220,-28l481 37c95,7 133,10 156,100 28,-71 66,-83 157,-74 817,78 720,-18 720,435 0,57 6,175 -3,225 -17,83 -75,74 -119,81 -5,1 -15,7 -17,4 -1,-3 -5,1 -8,2 -22,79 -16,262 -11,351 12,216 86,187 86,274 0,55 -42,75 -62,132 -44,121 -28,381 -28,512l122 10c15,-129 -1,-257 10,-380 13,-135 141,-98 256,-83 161,21 203,7 201,187 -1,116 -9,265 1,378 50,-47 59,-33 140,-35 14,-42 3,-288 0,-352 -8,-197 -90,-197 -89,-284 1,-113 85,-20 91,-284 2,-98 6,-256 -15,-347 -61,-20 -112,-15 -137,-71 -11,-22 -38,-527 15,-588 57,-65 256,-17 349,-2 115,17 245,32 358,57 487,108 596,589 640,1027 16,161 14,208 82,333 40,72 -3,109 -29,156 -72,131 -30,509 -202,838 -198,376 -506,284 -914,228zm-4517 -3009c-68,124 -60,90 -61,271 -1,107 -2,214 -2,322 1,60 13,106 44,143 46,56 89,48 107,79 18,43 50,288 52,346 5,120 -110,182 -14,310 38,50 55,39 78,122 23,86 65,412 77,510 97,725 53,662 507,678 147,5 228,-11 264,-128 27,39 26,73 86,116 52,38 101,32 171,33 112,2 252,40 353,-11 98,-48 99,-145 120,-277l96 -700c35,-279 60,-208 111,-286 82,-127 -24,-185 -19,-320 3,-83 28,-267 49,-339 39,-5 70,13 103,23 3,99 24,368 -40,445 -119,143 21,226 37,356 12,100 7,219 4,321 -130,20 -161,113 -160,254 0,220 -46,453 76,548 43,33 106,35 170,39 97,7 582,60 663,37 49,-13 36,-12 77,8 61,28 989,113 1105,127 34,3 58,7 93,3 104,-12 43,13 256,45 179,27 577,96 740,53 100,-27 209,-102 254,-153 269,-310 230,-709 292,-948 17,-67 54,-81 67,-142 14,-67 -21,-114 -29,-161 -69,-49 -69,-326 -84,-428 -58,-386 -195,-798 -599,-926 -129,-41 -293,-56 -432,-78 -133,-21 -344,-74 -433,18 -86,89 -54,308 -54,453 0,75 -13,168 19,232 46,90 69,62 140,109 50,580 -109,360 -83,609 -140,-30 -293,-56 -426,-23 85,-204 2,-159 -37,-289 -21,-70 -24,-297 -12,-373 201,-97 155,-139 156,-483 0,-266 16,-343 -262,-369 -177,-18 -416,-55 -588,-56 -72,-1 -69,30 -127,4 -85,-38 -607,-66 -725,-71 -71,-3 -79,19 -140,-2 -63,-22 -383,-39 -447,-38 -82,1 -50,17 -142,0 -71,-13 -542,-34 -603,-23 -65,12 -67,-10 -135,-13 -180,-9 -463,-25 -635,-11 -27,14 -57,30 -78,34z"/>
   <path class="fil1" d="M10418 1676c115,199 93,201 87,508 -111,26 -56,16 -158,-19 -6,-94 -7,-191 -2,-285 7,-135 21,-115 73,-204zm-73 -631c97,-18 64,-18 158,22 3,84 25,367 -34,436l-34 37c-1,1 -3,4 -5,6 -109,-147 -93,-297 -85,-501zm-66 1188c84,26 122,19 147,110 42,-96 64,-54 146,-84 30,-26 16,-408 0,-463 -17,-58 -64,-101 -72,-146 -15,-79 43,-93 64,-147 32,-82 32,-470 11,-501 -12,-9 -3,-4 -21,-11 -44,-16 -109,-3 -129,-102 -89,171 -164,-57 -165,263 0,123 -7,279 57,369 89,123 -33,144 -50,301 -13,124 -12,293 12,411z"/>
   <path class="fil1" d="M12428 2479c82,-9 80,-183 81,-248 2,-88 7,-219 -43,-283 -46,55 -66,449 -38,531z"/>
   <path class="fil1" d="M8242 838l60 513c22,-61 65,-422 66,-502 -20,-17 -42,-32 -55,-48 -28,15 -33,26 -71,37z"/>
   <path class="fil1" d="M8942 865c7,99 38,441 63,511l68 -501c-38,-9 -53,-22 -73,-36 -18,11 -34,21 -58,26z"/>
   <path class="fil1" d="M12419 1426l1 10c0,107 1,252 65,318 51,-96 35,-498 -63,-527l-3 199z"/>
   <path class="fil1" d="M5440 2295c77,-45 36,-229 118,-277l-178 2c-23,66 19,244 60,275z"/>
   <path class="fil1" d="M844 2150l-4 380c62,-16 68,-74 73,-157 6,-82 2,-157 -17,-229l-52 6z"/>
   <path class="fil1" d="M838 1550c65,-19 61,-132 62,-190 0,-39 -2,-83 -8,-122 -6,-43 -6,-64 -51,-63l-3 375z"/>
   <path class="fil1" d="M5377 1536l67 4 -20 -136c-6,-13 -10,-17 -13,-20 -23,43 -29,98 -34,152z"/>
   <path class="fil1" d="M4313 2245c2,-4 5,-3 9,-23 1,-8 2,-21 3,-29 1,-18 1,-39 2,-57 0,-43 -3,-77 -10,-119 -21,45 -25,168 -8,221 1,2 2,5 4,7z"/>
   <path class="fil1" d="M4307 1688c27,-73 24,-141 11,-222 -30,52 -21,155 -11,222z"/>
  </g>
 </g>
</svg>
