<svg id="Слой_1" data-name="Слой 1" xmlns="http://www.w3.org/2000/svg" viewBox="0 0 266.62 255.43"><defs><style>.cls-1{fill:#231f20;}</style></defs><title>phone</title><path class="cls-1" d="M294.61-60c-1,0-2,.08-3,0-.62,0-1.05-.41-.19-.46.55,0,1.1.12,1.66.08C293.36-60.36,294.61-60.57,294.61-60Z" transform="translate(-29 60.43)"/><path class="cls-1" d="M286.44-60c-.41,0-2.32.27-2.51-.17s1-.18,1.13-.17C285.42-60.31,286.44-60.57,286.44-60Z" transform="translate(-29 60.43)"/><path class="cls-1" d="M286.44-60c0-.62,1.8-.31,2.2-.31C288-59.8,287.17-60,286.44-60Z" transform="translate(-29 60.43)"/><path class="cls-1" d="M290.84-60.3c0,.66-1.22.3-1.57,0Z" transform="translate(-29 60.43)"/><path class="cls-1" d="M283.93-60.3c.22.66-1.12.29-1,.1S283.71-60.3,283.93-60.3Z" transform="translate(-29 60.43)"/><path class="cls-1" d="M294.61-60c-.22-.66,1.12-.29,1-.1S294.83-60,294.61-60Z" transform="translate(-29 60.43)"/><path class="cls-1" d="M50.16,24.42C57.5,38.15,66.08,51.16,73.5,64.84c.43.8.86,1.61,1.28,2.41a12.62,12.62,0,0,1,1,1.84c.37,1.23-1.31,1.93-2.08,2.62a16.48,16.48,0,0,0-4.62,7.44c-2.38,7.47-.77,15.23,1.16,22.58a67.81,67.81,0,0,0,9,19.68c3.82,5.85,8.14,11.53,13.59,16,5.22,4.26,12,8,19,6.79a15.59,15.59,0,0,0,4.53-1.5c.6-.31,1.08-.84,1.73-.42s.84,1.39,1.1,1.94c1.59,3.39,3.79,6.54,5.65,9.79,3.8,6.65,7.67,13.25,11.49,19.89,1.9,3.31,3.65,6.73,5.65,10,.55.89,2,2.35,1.42,3.5-.71,1.32-3.29,2.16-4.57,2.77-6.28,3-13.46,6.05-20.56,4.43s-13.4-5.73-19.14-10.24c-12-9.45-22.09-20.63-31.07-32.94a236.42,236.42,0,0,1-23.62-40,221.44,221.44,0,0,1-8.52-21.24c-1.27-3.7-2.38-7.44-3.3-11.24a85,85,0,0,1-2.31-11.08C29.94,64,29.11,60.26,29,56.45a39.38,39.38,0,0,1,1.09-11.08A28.27,28.27,0,0,1,40.88,30.29C43.82,28.1,47,26.3,50.16,24.42Z" transform="translate(-29 60.43)"/><path class="cls-1" d="M102.88,54.86c.89,5-4.85,7.53-8.41,9.44-3.74,2-8.79,6.72-13.25,4-3.25-2-4.63-6.12-6.41-9.26-3-5.2-5.91-10.45-9-15.55-3.22-5.27-5.91-10.84-9.1-16.12-1.25-2.07-3-4.16-3-6.71s1.65-4.3,3.56-5.57c2.42-1.61,5.13-2.81,7.65-4.25,1.27-.73,2.54-1.46,3.83-2.16a8.16,8.16,0,0,1,3.61-1.37c2.2,0,4.32,1.63,5.49,3.38,1.66,2.48,2.92,5.29,4.41,7.88,3.49,6,6.77,12.19,10.36,18.16C94.43,39.82,96.22,42.9,98,46c.81,1.4,1.68,2.76,2.56,4.12A36,36,0,0,1,102.88,54.86Z" transform="translate(-29 60.43)"/><path class="cls-1" d="M120.88,138.84c.26-2.29.49-4.5,2.35-6.09s4.36-2.63,6.57-3.86c4.13-2.28,9.24-7.28,13.92-3.2,1.83,1.6,2.73,4,3.84,6.1,1.39,2.61,3,5.09,4.52,7.63q4.51,7.55,8.77,15.24c2.75,5,6.1,9.7,8.48,14.87a6.34,6.34,0,0,1-.65,6.82c-1.44,1.8-3.64,2.67-5.61,3.74-3.81,2.06-7.56,6.13-12.26,5.62-2.46-.26-4-1.89-5.14-3.92-1.5-2.56-3-5.13-4.52-7.67C134.14,162.52,127.69,150.58,120.88,138.84Z" transform="translate(-29 60.43)"/></svg>